<?xml version="1.0" encoding="UTF-8"?>
<!--Generator: Apple Native CoreSVG 175-->
<!DOCTYPE svg
PUBLIC "-//W3C//DTD SVG 1.1//EN"
       "http://www.w3.org/Graphics/SVG/1.1/DTD/svg11.dtd">
<svg version="1.1" xmlns="http://www.w3.org/2000/svg" xmlns:xlink="http://www.w3.org/1999/xlink" width="3300" height="2200">
 <!--glyph: "uni10127D.medium", point size: 100.0, font version: "17.0d12e1", template writer version: "65.1"-->
 <g id="Notes">
  <rect height="2200" id="artboard" style="fill:white;opacity:1" width="3300" x="0" y="0"/>
  <line style="fill:none;stroke:black;opacity:1;stroke-width:0.5;" x1="263" x2="3036" y1="292" y2="292"/>
  <text style="stroke:none;fill:black;font-family:sans-serif;font-size:13;font-weight:bold;" transform="matrix(1 0 0 1 263 322)">Weight/Scale Variations</text>
  <text style="stroke:none;fill:black;font-family:sans-serif;font-size:13;text-anchor:middle;" transform="matrix(1 0 0 1 559.711 322)">Ultralight</text>
  <text style="stroke:none;fill:black;font-family:sans-serif;font-size:13;text-anchor:middle;" transform="matrix(1 0 0 1 856.422 322)">Thin</text>
  <text style="stroke:none;fill:black;font-family:sans-serif;font-size:13;text-anchor:middle;" transform="matrix(1 0 0 1 1153.13 322)">Light</text>
  <text style="stroke:none;fill:black;font-family:sans-serif;font-size:13;text-anchor:middle;" transform="matrix(1 0 0 1 1449.84 322)">Regular</text>
  <text style="stroke:none;fill:black;font-family:sans-serif;font-size:13;text-anchor:middle;" transform="matrix(1 0 0 1 1746.56 322)">Medium</text>
  <text style="stroke:none;fill:black;font-family:sans-serif;font-size:13;text-anchor:middle;" transform="matrix(1 0 0 1 2043.27 322)">Semibold</text>
  <text style="stroke:none;fill:black;font-family:sans-serif;font-size:13;text-anchor:middle;" transform="matrix(1 0 0 1 2339.98 322)">Bold</text>
  <text style="stroke:none;fill:black;font-family:sans-serif;font-size:13;text-anchor:middle;" transform="matrix(1 0 0 1 2636.69 322)">Heavy</text>
  <text style="stroke:none;fill:black;font-family:sans-serif;font-size:13;text-anchor:middle;" transform="matrix(1 0 0 1 2933.4 322)">Black</text>
  <line style="fill:none;stroke:black;opacity:1;stroke-width:0.5;" x1="263" x2="3036" y1="1903" y2="1903"/>
  <g transform="matrix(1 0 0 1 263 1933)">
   <path d="M9.24805 0.830078Q10.8691 0.830078 12.2949 0.214844Q13.7207-0.400391 14.8096-1.49414Q15.8984-2.58789 16.5186-4.01367Q17.1387-5.43945 17.1387-7.05078Q17.1387-8.66211 16.5186-10.0879Q15.8984-11.5137 14.8047-12.6074Q13.7109-13.7012 12.2852-14.3164Q10.8594-14.9316 9.23828-14.9316Q7.62695-14.9316 6.20117-14.3164Q4.77539-13.7012 3.69141-12.6074Q2.60742-11.5137 1.9873-10.0879Q1.36719-8.66211 1.36719-7.05078Q1.36719-5.43945 1.9873-4.01367Q2.60742-2.58789 3.69629-1.49414Q4.78516-0.400391 6.21094 0.214844Q7.63672 0.830078 9.24805 0.830078ZM9.24805-0.654297Q7.91992-0.654297 6.7627-1.14746Q5.60547-1.64062 4.73145-2.51953Q3.85742-3.39844 3.36426-4.56055Q2.87109-5.72266 2.87109-7.05078Q2.87109-8.37891 3.35938-9.54102Q3.84766-10.7031 4.72168-11.582Q5.5957-12.4609 6.75293-12.9541Q7.91016-13.4473 9.23828-13.4473Q10.5762-13.4473 11.7334-12.9541Q12.8906-12.4609 13.7695-11.582Q14.6484-10.7031 15.1465-9.54102Q15.6445-8.37891 15.6445-7.05078Q15.6445-5.72266 15.1514-4.56055Q14.6582-3.39844 13.7842-2.51953Q12.9102-1.64062 11.748-1.14746Q10.5859-0.654297 9.24805-0.654297ZM5.6543-7.05078Q5.6543-6.72852 5.85938-6.52832Q6.06445-6.32812 6.40625-6.32812L8.51562-6.32812L8.51562-4.20898Q8.51562-3.88672 8.71094-3.67676Q8.90625-3.4668 9.23828-3.4668Q9.56055-3.4668 9.77051-3.67676Q9.98047-3.88672 9.98047-4.20898L9.98047-6.32812L12.0898-6.32812Q12.4219-6.32812 12.627-6.52832Q12.832-6.72852 12.832-7.05078Q12.832-7.38281 12.627-7.58789Q12.4219-7.79297 12.0898-7.79297L9.98047-7.79297L9.98047-9.90234Q9.98047-10.2344 9.77051-10.4443Q9.56055-10.6543 9.23828-10.6543Q8.90625-10.6543 8.71094-10.4443Q8.51562-10.2344 8.51562-9.90234L8.51562-7.79297L6.40625-7.79297Q6.06445-7.79297 5.85938-7.58789Q5.6543-7.38281 5.6543-7.05078Z"/>
  </g>
  <g transform="matrix(1 0 0 1 281.867 1933)">
   <path d="M11.709 2.91016Q13.75 2.91016 15.5518 2.12891Q17.3535 1.34766 18.7305-0.0292969Q20.1074-1.40625 20.8887-3.20801Q21.6699-5.00977 21.6699-7.05078Q21.6699-9.0918 20.8887-10.8936Q20.1074-12.6953 18.7305-14.0723Q17.3535-15.4492 15.5469-16.2305Q13.7402-17.0117 11.6992-17.0117Q9.6582-17.0117 7.85645-16.2305Q6.05469-15.4492 4.68262-14.0723Q3.31055-12.6953 2.5293-10.8936Q1.74805-9.0918 1.74805-7.05078Q1.74805-5.00977 2.5293-3.20801Q3.31055-1.40625 4.6875-0.0292969Q6.06445 1.34766 7.86621 2.12891Q9.66797 2.91016 11.709 2.91016ZM11.709 1.25Q9.98047 1.25 8.47656 0.605469Q6.97266-0.0390625 5.83496-1.17676Q4.69727-2.31445 4.05762-3.81836Q3.41797-5.32227 3.41797-7.05078Q3.41797-8.7793 4.05762-10.2832Q4.69727-11.7871 5.83008-12.9297Q6.96289-14.0723 8.4668-14.7119Q9.9707-15.3516 11.6992-15.3516Q13.4277-15.3516 14.9316-14.7119Q16.4355-14.0723 17.5781-12.9297Q18.7207-11.7871 19.3652-10.2832Q20.0098-8.7793 20.0098-7.05078Q20.0098-5.32227 19.3701-3.81836Q18.7305-2.31445 17.5928-1.17676Q16.4551-0.0390625 14.9463 0.605469Q13.4375 1.25 11.709 1.25ZM7.17773-7.05078Q7.17773-6.69922 7.41211-6.47461Q7.64648-6.25 8.01758-6.25L10.8887-6.25L10.8887-3.36914Q10.8887-2.99805 11.1133-2.76855Q11.3379-2.53906 11.6895-2.53906Q12.0605-2.53906 12.29-2.76855Q12.5195-2.99805 12.5195-3.36914L12.5195-6.25L15.4004-6.25Q15.7715-6.25 16.001-6.47461Q16.2305-6.69922 16.2305-7.05078Q16.2305-7.42188 16.001-7.65137Q15.7715-7.88086 15.4004-7.88086L12.5195-7.88086L12.5195-10.752Q12.5195-11.1328 12.29-11.3623Q12.0605-11.5918 11.6895-11.5918Q11.3379-11.5918 11.1133-11.3574Q10.8887-11.123 10.8887-10.752L10.8887-7.88086L8.01758-7.88086Q7.63672-7.88086 7.40723-7.65137Q7.17773-7.42188 7.17773-7.05078Z"/>
  </g>
  <g transform="matrix(1 0 0 1 305.646 1933)">
   <path d="M14.9707 5.66406Q17.0605 5.66406 18.96 5.01465Q20.8594 4.36523 22.4512 3.19336Q24.043 2.02148 25.2197 0.429688Q26.3965-1.16211 27.0459-3.06641Q27.6953-4.9707 27.6953-7.05078Q27.6953-9.14062 27.0459-11.04Q26.3965-12.9395 25.2197-14.5312Q24.043-16.123 22.4512-17.2998Q20.8594-18.4766 18.9551-19.126Q17.0508-19.7754 14.9609-19.7754Q12.8711-19.7754 10.9717-19.126Q9.07227-18.4766 7.48535-17.2998Q5.89844-16.123 4.72168-14.5312Q3.54492-12.9395 2.90039-11.04Q2.25586-9.14062 2.25586-7.05078Q2.25586-4.9707 2.90527-3.06641Q3.55469-1.16211 4.72656 0.429688Q5.89844 2.02148 7.49023 3.19336Q9.08203 4.36523 10.9814 5.01465Q12.8809 5.66406 14.9707 5.66406ZM14.9707 3.84766Q13.1641 3.84766 11.5283 3.2959Q9.89258 2.74414 8.53516 1.74805Q7.17773 0.751953 6.17676-0.610352Q5.17578-1.97266 4.62891-3.6084Q4.08203-5.24414 4.08203-7.05078Q4.08203-8.86719 4.62891-10.5029Q5.17578-12.1387 6.17188-13.501Q7.16797-14.8633 8.52539-15.8594Q9.88281-16.8555 11.5186-17.4023Q13.1543-17.9492 14.9609-17.9492Q16.7773-17.9492 18.4131-17.4023Q20.0488-16.8555 21.4111-15.8594Q22.7734-14.8633 23.7695-13.501Q24.7656-12.1387 25.3174-10.5029Q25.8691-8.86719 25.8691-7.05078Q25.8789-5.24414 25.332-3.6084Q24.7852-1.97266 23.7842-0.610352Q22.7832 0.751953 21.4209 1.74805Q20.0586 2.74414 18.4229 3.2959Q16.7871 3.84766 14.9707 3.84766ZM9.19922-7.05078Q9.19922-6.66992 9.45801-6.4209Q9.7168-6.17188 10.1172-6.17188L14.0625-6.17188L14.0625-2.2168Q14.0625-1.81641 14.3115-1.55762Q14.5605-1.29883 14.9512-1.29883Q15.3516-1.29883 15.6104-1.55273Q15.8691-1.80664 15.8691-2.2168L15.8691-6.17188L19.8242-6.17188Q20.2246-6.17188 20.4785-6.4209Q20.7324-6.66992 20.7324-7.05078Q20.7324-7.46094 20.4785-7.71484Q20.2246-7.96875 19.8242-7.96875L15.8691-7.96875L15.8691-11.9141Q15.8691-12.3242 15.6104-12.583Q15.3516-12.8418 14.9512-12.8418Q14.5605-12.8418 14.3115-12.583Q14.0625-12.3242 14.0625-11.9141L14.0625-7.96875L10.1172-7.96875Q9.70703-7.96875 9.45312-7.71484Q9.19922-7.46094 9.19922-7.05078Z"/>
  </g>
  <text style="stroke:none;fill:black;font-family:sans-serif;font-size:13;font-weight:bold;" transform="matrix(1 0 0 1 263 1953)">Design Variations</text>
  <text style="stroke:none;fill:black;font-family:sans-serif;font-size:13;" transform="matrix(1 0 0 1 263 1971)">Symbols are supported in up to nine weights and three scales.</text>
  <text style="stroke:none;fill:black;font-family:sans-serif;font-size:13;" transform="matrix(1 0 0 1 263 1989)">For optimal layout with text and other symbols, vertically align</text>
  <text style="stroke:none;fill:black;font-family:sans-serif;font-size:13;" transform="matrix(1 0 0 1 263 2007)">symbols with the adjacent text.</text>
  <line style="fill:none;stroke:#00AEEF;stroke-width:0.5;opacity:1.0;" x1="776" x2="776" y1="1919" y2="1933"/>
  <g transform="matrix(1 0 0 1 776 1933)">
   <path d="M3.31055 0.15625Q3.70117 0.15625 3.91602-0.00976562Q4.13086-0.175781 4.26758-0.585938L5.52734-4.0332L11.2891-4.0332L12.5488-0.585938Q12.6855-0.175781 12.9004-0.00976562Q13.1152 0.15625 13.4961 0.15625Q13.8867 0.15625 14.1162-0.0585938Q14.3457-0.273438 14.3457-0.644531Q14.3457-0.869141 14.2383-1.17188L9.6582-13.3691Q9.48242-13.8184 9.17969-14.043Q8.87695-14.2676 8.4082-14.2676Q7.5-14.2676 7.17773-13.3789L2.59766-1.16211Q2.49023-0.859375 2.49023-0.634766Q2.49023-0.263672 2.70996-0.0537109Q2.92969 0.15625 3.31055 0.15625ZM6.00586-5.51758L8.37891-12.0898L8.42773-12.0898L10.8008-5.51758Z"/>
  </g>
  <line style="fill:none;stroke:#00AEEF;stroke-width:0.5;opacity:1.0;" x1="793.197" x2="793.197" y1="1919" y2="1933"/>
  <text style="stroke:none;fill:black;font-family:sans-serif;font-size:13;font-weight:bold;" transform="matrix(1 0 0 1 776 1953)">Margins</text>
  <text style="stroke:none;fill:black;font-family:sans-serif;font-size:13;" transform="matrix(1 0 0 1 776 1971)">Leading and trailing margins on the left and right side of each symbol</text>
  <text style="stroke:none;fill:black;font-family:sans-serif;font-size:13;" transform="matrix(1 0 0 1 776 1989)">can be adjusted by modifying the x-location of the margin guidelines.</text>
  <text style="stroke:none;fill:black;font-family:sans-serif;font-size:13;" transform="matrix(1 0 0 1 776 2007)">Modifications are automatically applied proportionally to all</text>
  <text style="stroke:none;fill:black;font-family:sans-serif;font-size:13;" transform="matrix(1 0 0 1 776 2025)">scales and weights.</text>
  <g transform="matrix(1 0 0 1 1289 1933)">
   <path d="M2.8418 1.86523L4.54102 3.57422Q5.18555 4.22852 5.90332 4.17969Q6.62109 4.13086 7.31445 3.35938L18.0078-8.42773L17.041-9.4043L6.42578 2.27539Q6.16211 2.57812 5.89355 2.61719Q5.625 2.65625 5.27344 2.30469L4.10156 1.14258Q3.75 0.791016 3.79395 0.522461Q3.83789 0.253906 4.14062-0.0195312L15.6152-10.8203L14.6387-11.7871L3.04688-0.898438Q2.30469-0.214844 2.25098 0.498047Q2.19727 1.21094 2.8418 1.86523ZM9.25781-16.3281Q8.94531-16.0254 8.90625-15.6348Q8.86719-15.2441 9.04297-14.9512Q9.21875-14.6777 9.55566-14.541Q9.89258-14.4043 10.3809-14.5215Q11.4746-14.7754 12.5977-14.7314Q13.7207-14.6875 14.7949-13.9844L14.209-12.5293Q13.9551-11.9043 14.0674-11.4404Q14.1797-10.9766 14.5801-10.5664L16.875-8.25195Q17.2363-7.88086 17.5781-7.82227Q17.9199-7.76367 18.3398-7.8418L19.4043-8.03711L20.0684-7.36328L20.0293-6.80664Q20-6.43555 20.1221-6.12305Q20.2441-5.81055 20.6055-5.44922L21.3672-4.70703Q21.7285-4.3457 22.1533-4.33105Q22.5781-4.31641 22.9297-4.66797L25.8398-7.58789Q26.1914-7.93945 26.1816-8.35449Q26.1719-8.76953 25.8105-9.13086L25.0391-9.89258Q24.6875-10.2539 24.3799-10.3857Q24.0723-10.5176 23.7109-10.4883L23.1348-10.4395L22.4902-11.0742L22.7344-12.1973Q22.832-12.6172 22.6953-12.9834Q22.5586-13.3496 22.1191-13.7891L19.9219-15.9766Q18.6719-17.2168 17.2607-17.8369Q15.8496-18.457 14.4189-18.4814Q12.9883-18.5059 11.665-17.959Q10.3418-17.4121 9.25781-16.3281ZM10.752-15.957Q11.6602-16.6211 12.7002-16.9043Q13.7402-17.1875 14.8047-17.085Q15.8691-16.9824 16.8701-16.5137Q17.8711-16.0449 18.7012-15.2051L21.1328-12.793Q21.3086-12.6172 21.3525-12.4512Q21.3965-12.2852 21.3379-12.0312L21.0156-10.5469L22.5195-9.0625L23.5059-9.12109Q23.6914-9.13086 23.7891-9.09668Q23.8867-9.0625 24.0332-8.91602L24.6094-8.33984L22.168-5.89844L21.5918-6.47461Q21.4453-6.62109 21.4062-6.71875Q21.3672-6.81641 21.377-7.01172L21.4453-7.98828L19.9512-9.47266L18.4277-9.21875Q18.1836-9.16992 18.042-9.2041Q17.9004-9.23828 17.7148-9.41406L15.7129-11.416Q15.5176-11.5918 15.4932-11.7529Q15.4688-11.9141 15.5859-12.1875L16.4648-14.2773Q15.293-15.3711 13.8281-15.791Q12.3633-16.2109 10.8398-15.7617Q10.7227-15.7324 10.6885-15.8057Q10.6543-15.8789 10.752-15.957Z"/>
  </g>
  <text style="stroke:none;fill:black;font-family:sans-serif;font-size:13;font-weight:bold;" transform="matrix(1 0 0 1 1289 1953)">Exporting</text>
  <text style="stroke:none;fill:black;font-family:sans-serif;font-size:13;" transform="matrix(1 0 0 1 1289 1971)">Symbols should be outlined when exporting to ensure the</text>
  <text style="stroke:none;fill:black;font-family:sans-serif;font-size:13;" transform="matrix(1 0 0 1 1289 1989)">design is preserved when submitting to Xcode.</text>
  <text id="template-version" style="stroke:none;fill:black;font-family:sans-serif;font-size:13;text-anchor:end;" transform="matrix(1 0 0 1 3036 1933)">Template v.3.0</text>
  <text style="stroke:none;fill:black;font-family:sans-serif;font-size:13;text-anchor:end;" transform="matrix(1 0 0 1 3036 1951)">Requires Xcode 13 or greater</text>
  <text id="descriptive-name" style="stroke:none;fill:black;font-family:sans-serif;font-size:13;text-anchor:end;" transform="matrix(1 0 0 1 3036 1969)">Generated from square.3.layers.3d.down.right</text>
  <text style="stroke:none;fill:black;font-family:sans-serif;font-size:13;text-anchor:end;" transform="matrix(1 0 0 1 3036 1987)">Typeset at 100 points</text>
  <text style="stroke:none;fill:black;font-family:sans-serif;font-size:13;" transform="matrix(1 0 0 1 263 726)">Small</text>
  <text style="stroke:none;fill:black;font-family:sans-serif;font-size:13;" transform="matrix(1 0 0 1 263 1156)">Medium</text>
  <text style="stroke:none;fill:black;font-family:sans-serif;font-size:13;" transform="matrix(1 0 0 1 263 1586)">Large</text>
 </g>
 <g id="Guides">
  <g id="H-reference" style="fill:#27AAE1;stroke:none;" transform="matrix(1 0 0 1 339 696)">
   <path d="M0.993347 0L3.6377 0L29.3282-67.1326L30.0301-67.1326L30.0301-70.459L28.1227-70.459ZM11.6882-24.4797L46.9818-24.4797L46.2311-26.7288L12.4382-26.7288ZM55.1193 0L57.7637 0L30.6381-70.459L29.4327-70.459L29.4327-67.1326Z"/>
  </g>
  <line id="Baseline-S" style="fill:none;stroke:#27AAE1;opacity:1;stroke-width:0.5;" x1="263" x2="3036" y1="696" y2="696"/>
  <line id="Capline-S" style="fill:none;stroke:#27AAE1;opacity:1;stroke-width:0.5;" x1="263" x2="3036" y1="625.541" y2="625.541"/>
  <g id="H-reference" style="fill:#27AAE1;stroke:none;" transform="matrix(1 0 0 1 339 1126)">
   <path d="M0.993347 0L3.6377 0L29.3282-67.1326L30.0301-67.1326L30.0301-70.459L28.1227-70.459ZM11.6882-24.4797L46.9818-24.4797L46.2311-26.7288L12.4382-26.7288ZM55.1193 0L57.7637 0L30.6381-70.459L29.4327-70.459L29.4327-67.1326Z"/>
  </g>
  <line id="Baseline-M" style="fill:none;stroke:#27AAE1;opacity:1;stroke-width:0.5;" x1="263" x2="3036" y1="1126" y2="1126"/>
  <line id="Capline-M" style="fill:none;stroke:#27AAE1;opacity:1;stroke-width:0.5;" x1="263" x2="3036" y1="1055.54" y2="1055.54"/>
  <g id="H-reference" style="fill:#27AAE1;stroke:none;" transform="matrix(1 0 0 1 339 1556)">
   <path d="M0.993347 0L3.6377 0L29.3282-67.1326L30.0301-67.1326L30.0301-70.459L28.1227-70.459ZM11.6882-24.4797L46.9818-24.4797L46.2311-26.7288L12.4382-26.7288ZM55.1193 0L57.7637 0L30.6381-70.459L29.4327-70.459L29.4327-67.1326Z"/>
  </g>
  <line id="Baseline-L" style="fill:none;stroke:#27AAE1;opacity:1;stroke-width:0.5;" x1="263" x2="3036" y1="1556" y2="1556"/>
  <line id="Capline-L" style="fill:none;stroke:#27AAE1;opacity:1;stroke-width:0.5;" x1="263" x2="3036" y1="1485.54" y2="1485.54"/>
  <line id="left-margin-Regular-M" style="fill:none;stroke:#00AEEF;stroke-width:0.5;opacity:1.0;" x1="1389.22" x2="1389.22" y1="1030.79" y2="1150.12"/>
  <line id="right-margin-Regular-M" style="fill:none;stroke:#00AEEF;stroke-width:0.5;opacity:1.0;" x1="1510.46" x2="1510.46" y1="1030.79" y2="1150.12"/>
 </g>
 <g id="Symbols">
  <g id="Black-L" transform="matrix(1 0 0 1 2849.07 1556)">
   <path d="M71.0449-30.0781L71.0449 23.877Q71.0449 31.4941 74.3896 35.6445Q77.7344 39.7949 83.2031 40.1855Q88.6719 40.5762 95.1172 36.8164L142.041 9.76562Q146.24 7.32422 148.535 4.93164Q150.83 2.53906 151.709-0.65918Q152.588-3.85742 152.588-8.59375L152.588-64.2578Q152.588-69.7754 150.513-73.3643Q148.438-76.9531 145.02-78.5645Q141.602-80.1758 137.598-79.8584Q133.594-79.541 129.736-77.3438L82.5195-50Q78.0273-47.3633 75.5371-44.751Q73.0469-42.1387 72.0459-38.6963Q71.0449-35.2539 71.0449-30.0781ZM91.9434-33.3496L132.764-56.9824Q133.105-57.1289 133.35-56.958Q133.594-56.7871 133.594-56.4941L133.594-9.86328Q133.594-8.64258 133.228-7.91016Q132.861-7.17773 131.738-6.54297L90.9668 17.6758Q90.625 17.8711 90.332 17.7002Q90.0391 17.5293 90.0391 17.1875L90.0391-30.0781Q90.0391-31.4453 90.4053-32.0801Q90.7715-32.7148 91.9434-33.3496ZM81.1523 12.8906L81.1523-8.93555L63.2324 1.70898Q62.8906 1.9043 62.6221 1.7334Q62.3535 1.5625 62.3535 1.2207L62.3535-46.0449Q62.3535-47.4121 62.7197-48.0469Q63.0859-48.6816 64.209-49.3164L105.029-72.9492Q105.371-73.1445 105.64-72.9736Q105.908-72.8027 105.908-72.4609L105.908-52.6855L124.902-62.8906L124.902-80.2246Q124.902-85.791 122.803-89.3555Q120.703-92.9199 117.31-94.5557Q113.916-96.1914 109.888-95.874Q105.859-95.5566 102.002-93.3105L54.7852-65.9668Q50.293-63.3301 47.8027-60.7178Q45.3125-58.1055 44.3115-54.6631Q43.3105-51.2207 43.3105-46.0449L43.3105 7.91016Q43.3105 15.5273 46.6553 19.6777Q50 23.8281 55.4932 24.1943Q60.9863 24.5605 67.4316 20.8496ZM52.0508-1.51367L52.0508-23.3398L35.9863-13.8184Q35.6445-13.623 35.3516-13.8184Q35.0586-14.0137 35.0586-14.3555L35.0586-61.5723Q35.0586-62.9883 35.4248-63.5986Q35.791-64.209 36.9629-64.8438L77.7832-88.4766Q78.125-88.6719 78.3691-88.501Q78.6133-88.3301 78.6133-87.9883L78.6133-68.7012L97.6074-77.7832L97.6074-95.752Q97.6074-101.318 95.5322-104.883Q93.457-108.447 90.0391-110.083Q86.6211-111.719 82.6172-111.401Q78.6133-111.084 74.7559-108.838L27.5391-81.4941Q23.0469-78.8574 20.5566-76.2695Q18.0664-73.6816 17.0654-70.2148Q16.0645-66.748 16.0645-61.5723L16.0645-7.61719Q16.0645 0 19.4092 4.15039Q22.7539 8.30078 28.2471 8.66699Q33.7402 9.0332 40.1855 5.32227Z"/>
  </g>
  <g id="Heavy-L" transform="matrix(1 0 0 1 2553.98 1556)">
   <path d="M70.4109-30.7007L70.4109 24.1882Q70.4109 31.1142 73.381 34.8782Q76.3512 38.6421 81.2611 38.987Q86.171 39.3318 92.0059 35.9291L139.632 8.46329Q143.497 6.21796 145.614 3.99246Q147.73 1.76697 148.54-1.1776Q149.349-4.12216 149.349-8.44421L149.349-64.9727Q149.349-69.8792 147.493-73.0648Q145.637-76.2505 142.576-77.6829Q139.516-79.1153 135.927-78.8269Q132.338-78.5385 128.872-76.5717L80.8022-48.7442Q76.7715-46.3837 74.5117-43.996Q72.2519-41.6084 71.3314-38.4773Q70.4109-35.3462 70.4109-30.7007ZM89.0511-34.1797L131.796-58.9188Q132.195-59.111 132.486-58.923Q132.776-58.7349 132.776-58.3611L132.776-9.44824Q132.776-8.10089 132.375-7.32231Q131.974-6.54373 130.759-5.85175L87.9936 19.3581Q87.5938 19.577 87.2894 19.4004Q86.985 19.2238 86.985 18.824L86.985-30.6313Q86.985-32.1136 87.4031-32.806Q87.8212-33.4984 89.0511-34.1797ZM79.2511 11.4388L79.2511-7.66754L60.4317 3.41492Q60.0327 3.64456 59.7469 3.46222Q59.4612 3.27988 59.4612 2.89154L59.4612-46.5752Q59.4612-48.0576 59.8789-48.7442Q60.2966-49.4308 61.4891-50.1228L104.234-74.8505Q104.633-75.0809 104.942-74.8924Q105.251-74.704 105.251-74.2935L105.251-53.4691L121.825-62.3489L121.825-80.9044Q121.825-85.849 119.95-89.0156Q118.076-92.1822 115.033-93.6337Q111.991-95.0851 108.384-94.7964Q104.776-94.5076 101.311-92.5041L53.241-64.6759Q49.2096-62.3161 46.9498-59.9285Q44.6899-57.5409 43.7698-54.4098Q42.8497-51.2787 42.8497-46.6438L42.8497 8.24432Q42.8497 15.1817 45.8199 18.9461Q48.79 22.7104 53.7186 23.0362Q58.6472 23.362 64.4814 19.9966ZM50.5524-2.76947L50.5524-21.8994L33.6472-11.9514Q33.2474-11.7218 32.943-11.9228Q32.6385-12.1239 32.6385-12.5229L32.6385-61.9408Q32.6385-63.4605 33.0566-64.1285Q33.4747-64.7964 34.7038-65.4892L77.4605-90.2283Q77.8481-90.4579 78.1384-90.2641Q78.4286-90.0703 78.4286-89.6591L78.4286-69.6114L95.0142-77.5757L95.0142-96.2708Q95.0142-101.215 93.1522-104.387Q91.2903-107.56 88.2355-109.011Q85.1807-110.463 81.5857-110.174Q77.9907-109.885 74.5369-107.87L26.4671-80.0537Q22.4358-77.6817 20.1763-75.3185Q17.9169-72.9553 16.9907-69.7998Q16.0645-66.6443 16.0645-62.0102L16.0645-7.12128Q16.0645-0.184631 19.0403 3.57971Q22.0161 7.34406 26.939 7.67021Q31.8619 7.99637 37.7075 4.63104Z"/>
  </g>
  <g id="Bold-L" transform="matrix(1 0 0 1 2259.08 1556)">
   <path d="M69.7021-31.3965L69.7021 24.5361Q69.7021 30.6885 72.2534 34.021Q74.8047 37.3535 79.0894 37.6465Q83.374 37.9395 88.5254 34.9365L136.938 7.00684Q140.43 4.98047 142.346 2.94189Q144.263 0.90332 144.995-1.75781Q145.728-4.41895 145.728-8.27637L145.728-65.7715Q145.728-69.9951 144.116-72.7295Q142.505-75.4639 139.844-76.6968Q137.183-77.9297 134.058-77.6733Q130.933-77.417 127.905-75.708L78.8818-47.3389Q75.3662-45.2881 73.3643-43.1519Q71.3623-41.0156 70.5322-38.2324Q69.7021-35.4492 69.7021-31.3965ZM85.8154-35.1074L130.713-61.084Q131.177-61.3281 131.519-61.1206Q131.86-60.9131 131.86-60.4492L131.86-8.98438Q131.86-7.49512 131.421-6.66504Q130.981-5.83496 129.663-5.07812L84.668 21.2402Q84.2041 21.4844 83.8867 21.3013Q83.5693 21.1182 83.5693 20.6543L83.5693-31.25Q83.5693-32.8613 84.0454-33.6182Q84.5215-34.375 85.8154-35.1074ZM77.124 9.81445L77.124-6.25L57.2998 5.32227Q56.8359 5.59082 56.5308 5.39551Q56.2256 5.2002 56.2256 4.76074L56.2256-47.168Q56.2256-48.7793 56.7017-49.5239Q57.1777-50.2686 58.4473-51.0254L103.345-76.9775Q103.809-77.2461 104.163-77.0386Q104.517-76.8311 104.517-76.3428L104.517-54.3457L118.384-61.7432L118.384-81.665Q118.384-85.9131 116.76-88.6353Q115.137-91.3574 112.488-92.6025Q109.839-93.8477 106.702-93.5913Q103.564-93.335 100.537-91.6016L51.5137-63.2324Q47.998-61.1816 45.9961-59.0454Q43.9941-56.9092 43.1641-54.126Q42.334-51.3428 42.334-47.3145L42.334 8.61816Q42.334 14.7949 44.8853 18.1274Q47.4365 21.46 51.7334 21.7407Q56.0303 22.0215 61.1816 19.043ZM48.877-4.1748L48.877-20.2881L31.0303-9.86328Q30.5664-9.59473 30.249-9.80225Q29.9316-10.0098 29.9316-10.4736L29.9316-62.3535Q29.9316-63.9893 30.4077-64.7217Q30.8838-65.4541 32.1777-66.2109L77.0996-92.1875Q77.5391-92.4561 77.8809-92.2363Q78.2227-92.0166 78.2227-91.5283L78.2227-70.6299L92.1143-77.3438L92.1143-96.8506Q92.1143-101.099 90.4907-103.833Q88.8672-106.567 86.2183-107.812Q83.5693-109.058 80.4321-108.801Q77.2949-108.545 74.292-106.787L25.2686-78.4424Q21.7529-76.3672 19.751-74.2554Q17.749-72.1436 16.9067-69.3359Q16.0645-66.5283 16.0645-62.5L16.0645-6.56738Q16.0645-0.390625 18.6279 2.94189Q21.1914 6.27441 25.4761 6.55518Q29.7607 6.83594 34.9365 3.85742Z"/>
  </g>
  <g id="Semibold-L" transform="matrix(1 0 0 1 1963.62 1556)">
   <path d="M69.2131-31.8764L69.2131 24.7765Q69.2131 30.3955 71.4756 33.4301Q73.7381 36.4647 77.5917 36.7222Q81.4453 36.9797 86.1259 34.2522L135.081 6.00281Q138.315 4.1275 140.094 2.21786Q141.872 0.308228 142.551-2.15759Q143.23-4.62341 143.23-8.16116L143.23-66.3223Q143.23-70.0752 141.788-72.4983Q140.345-74.9214 137.96-76.0166Q135.574-77.1118 132.769-76.878Q129.964-76.6441 127.238-75.1129L77.5574-46.3699Q74.3973-44.5328 72.5731-42.5697Q70.7489-40.6067 69.981-38.0634Q69.2131-35.5202 69.2131-31.8764ZM83.5846-35.7475L129.967-62.5771Q130.475-62.8571 130.852-62.6362Q131.229-62.4153 131.229-61.8889L131.229-8.6647Q131.229-7.07779 130.763-6.21185Q130.297-5.34592 128.908-4.54483L82.3753 22.538Q81.8665 22.7997 81.5403 22.612Q81.2141 22.4243 81.2141 21.9162L81.2141-31.6765Q81.2141-33.3771 81.7303-34.1782Q82.2464-34.9792 83.5846-35.7475ZM75.6577 8.69446L75.6577-5.27267L55.1399 6.63757Q54.6318 6.93283 54.3133 6.72874Q53.9948 6.52466 53.9948 6.04935L53.9948-47.5769Q53.9948-49.2767 54.5109-50.0614Q55.027-50.8461 56.3499-51.6472L102.731-78.4439Q103.24-78.7392 103.625-78.5183Q104.01-78.2974 104.01-77.7557L104.01-54.95L116.011-61.3258L116.011-82.1892Q116.011-85.9573 114.561-88.3732Q113.11-90.789 110.733-91.8919Q108.355-92.9947 105.542-92.7605Q102.729-92.5262 100.004-90.9798L50.3227-62.2368Q47.1626-60.3996 45.3384-58.4366Q43.5143-56.4735 42.7464-53.9303Q41.9785-51.387 41.9785-47.7768L41.9785 8.87604Q41.9785 14.5287 44.241 17.5632Q46.5034 20.5978 50.3647 20.8477Q54.2259 21.0976 58.9066 18.3853ZM47.7219-5.14374L47.7219-19.1772L29.2259-8.42361Q28.7178-8.12836 28.3916-8.34045Q28.0655-8.55255 28.0655-9.06067L28.0655-62.6381Q28.0655-64.3539 28.5816-65.1306Q29.0977-65.9073 30.4359-66.7084L76.8509-93.5387Q77.3254-93.8339 77.7031-93.5963Q78.0807-93.3586 78.0807-92.8169L78.0807-71.3318L90.1146-77.1835L90.1146-97.2504Q90.1146-101.019 88.6555-103.451Q87.1964-105.883 84.8274-106.986Q82.4585-108.089 79.6368-107.855Q76.815-107.621 74.1234-106.041L24.4423-77.3315Q21.2822-75.4608 19.458-73.5222Q17.6338-71.5836 16.8491-69.0159Q16.0645-66.4482 16.0645-62.838L16.0645-6.18515Q16.0645-0.532532 18.3437 2.50206Q20.623 5.53665 24.4675 5.78651Q28.3119 6.03638 33.0261 3.32413Z"/>
  </g>
  <g id="Medium-L" transform="matrix(1 0 0 1 1667.85 1556)">
   <path d="M68.8431-32.2403L68.8431 24.958Q68.8431 30.1727 70.8862 32.9819Q72.9294 35.791 76.4565 36.0214Q79.9835 36.2518 84.3063 33.7334L133.673 5.24139Q136.711 3.48053 138.385 1.66855Q140.06-0.143433 140.698-2.46086Q141.337-4.77829 141.337-8.07343L141.337-66.7404Q141.337-70.1355 140.022-72.3232Q138.708-74.511 136.531-75.5016Q134.354-76.4923 131.792-76.2749Q129.23-76.0574 126.733-74.6613L76.5533-45.636Q73.6633-43.9598 71.9738-42.1284Q70.2843-40.2969 69.5637-37.9356Q68.8431-35.5743 68.8431-32.2403ZM81.8932-36.2328L129.401-63.7093Q129.942-64.016 130.347-63.7848Q130.751-63.5536 130.751-62.9807L130.751-8.42209Q130.751-6.76041 130.265-5.86815Q129.778-4.97589 128.335-4.14047L80.6366 23.5214Q80.0949 23.7968 79.7619 23.6061Q79.4289 23.4154 79.4289 22.8729L79.4289-32Q79.4289-33.7677 79.9751-34.6027Q80.5214-35.4378 81.8932-36.2328ZM74.5461 7.84531L74.5461-4.5311L53.5027 7.63474Q52.961 7.95059 52.6321 7.73964Q52.3033 7.52869 52.3033 7.02667L52.3033-47.8867Q52.3033-49.6544 52.85-50.4692Q53.3966-51.284 54.76-52.1194L102.267-79.5555Q102.808-79.8714 103.217-79.6402Q103.626-79.409 103.626-78.8269L103.626-55.4085L114.212-61.0085L114.212-82.5867Q114.212-85.9909 112.893-88.1741Q111.574-90.3572 109.402-91.3525Q107.23-92.3477 104.663-92.1303Q102.096-91.9128 99.5995-90.5075L49.4202-61.4822Q46.5294-59.8068 44.8399-57.975Q43.1503-56.1432 42.4297-53.7819Q41.7091-51.4206 41.7091-48.127L41.7091 9.07135Q41.7091 14.3265 43.7527 17.1352Q45.7962 19.944 49.3271 20.1702Q52.858 20.3964 57.1815 17.8864ZM46.846-5.87769L46.846-18.335L27.858-7.33185Q27.3163-7.01675 26.9833-7.2319Q26.6502-7.44705 26.6502-7.9895L26.6502-62.8532Q26.6502-64.6301 27.1965-65.4408Q27.7428-66.2514 29.1153-67.086L76.6624-94.5625Q77.1637-94.8776 77.5681-94.627Q77.9724-94.3764 77.9724-93.7943L77.9724-71.8643L88.5986-77.0622L88.5986-97.554Q88.5986-100.958 87.2643-103.161Q85.9299-105.364 83.773-106.359Q81.6162-107.355 79.0337-107.137Q76.4511-106.92 73.9952-105.475L23.8152-76.4893Q20.9251-74.7734 19.2356-72.9664Q17.5461-71.1594 16.8053-68.7737Q16.0645-66.3879 16.0645-63.0936L16.0645-5.89523Q16.0645-0.640869 18.1278 2.16827Q20.1912 4.97742 23.7026 5.20363Q27.2141 5.42984 31.5773 2.91977Z"/>
  </g>
  <g id="Regular-L" transform="matrix(1 0 0 1 1372.38 1556)">
   <path d="M68.3594-32.7148L68.3594 25.1953Q68.3594 29.8828 70.1172 32.3975Q71.875 34.9121 74.9756 35.1074Q78.0762 35.3027 81.9336 33.0566L131.836 4.24805Q134.619 2.63672 136.157 0.952148Q137.695-0.732422 138.281-2.85645Q138.867-4.98047 138.867-7.95898L138.867-67.2852Q138.867-70.2148 137.72-72.0947Q136.572-73.9746 134.668-74.8291Q132.764-75.6836 130.518-75.4883Q128.271-75.293 126.074-74.0723L75.2441-44.6777Q72.7051-43.2129 71.1914-41.5527Q69.6777-39.8926 69.0186-37.7686Q68.3594-35.6445 68.3594-32.7148ZM79.6875-36.8652L128.662-65.1855Q129.248-65.5273 129.688-65.2832Q130.127-65.0391 130.127-64.4043L130.127-8.10547Q130.127-6.34766 129.614-5.41992Q129.102-4.49219 127.588-3.61328L78.3691 24.8047Q77.7832 25.0977 77.4414 24.9023Q77.0996 24.707 77.0996 24.1211L77.0996-32.4219Q77.0996-34.2773 77.6855-35.1562Q78.2715-36.0352 79.6875-36.8652ZM73.0957 6.73828L73.0957-3.56445L51.3672 8.93555Q50.7812 9.27734 50.4395 9.05762Q50.0977 8.83789 50.0977 8.30078L50.0977-48.291Q50.0977-50.1465 50.6836-51.001Q51.2695-51.8555 52.6855-52.7344L101.66-81.0059Q102.246-81.3477 102.686-81.1035Q103.125-80.8594 103.125-80.2246L103.125-56.0059L111.865-60.5957L111.865-83.1055Q111.865-86.0352 110.718-87.915Q109.57-89.7949 107.666-90.6494Q105.762-91.5039 103.516-91.3086Q101.27-91.1133 99.0723-89.8926L48.2422-60.498Q45.7031-59.0332 44.1895-57.373Q42.6758-55.7129 42.0166-53.5889Q41.3574-51.4648 41.3574-48.584L41.3574 9.32617Q41.3574 14.0625 43.1152 16.5771Q44.873 19.0918 47.9736 19.2871Q51.0742 19.4824 54.9316 17.2363ZM45.7031-6.83594L45.7031-17.2363L26.0742-5.9082Q25.4883-5.56641 25.1465-5.78613Q24.8047-6.00586 24.8047-6.5918L24.8047-63.1348Q24.8047-64.9902 25.3906-65.8447Q25.9766-66.6992 27.3926-67.5781L76.416-95.8984Q76.9531-96.2402 77.3926-95.9717Q77.832-95.7031 77.832-95.0684L77.832-72.5586L86.6211-76.9043L86.6211-97.9492Q86.6211-100.879 85.4492-102.783Q84.2773-104.688 82.3975-105.542Q80.5176-106.396 78.2471-106.201Q75.9766-106.006 73.8281-104.736L22.998-75.3906Q20.459-73.877 18.9453-72.2412Q17.4316-70.6055 16.748-68.457Q16.0645-66.3086 16.0645-63.4277L16.0645-5.51758Q16.0645-0.78125 17.8467 1.7334Q19.6289 4.24805 22.7051 4.44336Q25.7812 4.63867 29.6875 2.39258Z"/>
  </g>
  <g id="Light-L" transform="matrix(1 0 0 1 1076.69 1556)">
   <path d="M68.8286-32.972L68.8286 25.9827Q68.8286 29.9286 70.3594 31.9965Q71.8903 34.0645 74.5064 34.2068Q77.1225 34.3491 80.2689 32.5272L130.973 3.24936Q133.318 1.89514 134.591 0.535965Q135.863-0.823212 136.344-2.53868Q136.824-4.25415 136.824-6.71768L136.824-66.8915Q136.824-69.2459 135.881-70.8233Q134.937-72.4007 133.344-73.1567Q131.75-73.9128 129.814-73.7629Q127.878-73.613 125.893-72.4983L74.5781-42.8162Q72.4174-41.5627 71.1613-40.2206Q69.9051-38.8786 69.3668-37.1555Q68.8286-35.4324 68.8286-32.972ZM77.8259-36.7744L128.147-65.9119Q128.9-66.3445 129.521-66.0248Q130.142-65.7051 130.142-64.7827L130.142-6.80389Q130.142-5.18188 129.667-4.37546Q129.192-3.56903 127.83-2.79617L77.2034 26.4549Q76.4061 26.8837 75.9583 26.6052Q75.5104 26.3268 75.5104 25.5745L75.5104-32.8003Q75.5104-34.4284 76.0204-35.2165Q76.5305-36.0046 77.8259-36.7744ZM72.4602 5.37567L72.4602-2.45972L49.929 10.5095Q49.131 10.9726 48.6759 10.6773Q48.2208 10.3821 48.2208 9.66339L48.2208-48.745Q48.2208-50.3883 48.7309-51.1597Q49.2409-51.931 50.5363-52.7344L100.873-81.823Q101.611-82.2708 102.239-81.9435Q102.868-81.6162 102.868-80.7091L102.868-55.6732L109.534-59.2186L109.534-82.8026Q109.534-85.157 108.591-86.742Q107.648-88.327 106.062-89.0755Q104.475-89.8239 102.539-89.674Q100.603-89.5241 98.6183-88.4094L47.3038-58.7273Q45.1431-57.489 43.8866-56.147Q42.63-54.805 42.0921-53.0743Q41.5543-51.3435 41.5543-48.9319L41.5543 10.0372Q41.5543 14.0022 43.0851 16.0778Q44.6159 18.1534 47.2321 18.2957Q49.8482 18.438 52.9945 16.6008ZM44.9615-8.74329L44.9615-16.6458L24.4392-4.80347Q23.642-4.34036 23.1865-4.63562Q22.731-4.93088 22.731-5.6839L22.731-64.0579Q22.731-65.6868 23.2414-66.4654Q23.7518-67.244 25.0465-68.0321L75.4173-97.1703Q76.1208-97.6028 76.7494-97.266Q77.3781-96.9292 77.3781-96.0068L77.3781-72.2107L84.0782-75.5272L84.0782-98.1155Q84.0782-100.47 83.1181-102.064Q82.1579-103.658 80.5885-104.414Q79.0192-105.17 77.0664-105.021Q75.1137-104.871 73.1621-103.722L21.8475-74.0738Q19.6869-72.7875 18.4307-71.4619Q17.1745-70.1363 16.6195-68.3964Q16.0645-66.6565 16.0645-64.2303L16.0645-5.27573Q16.0645-1.29623 17.6121 0.772095Q19.1597 2.84042 21.759 2.98271Q24.3584 3.125 27.5383 1.3031Z"/>
  </g>
  <g id="Thin-L" transform="matrix(1 0 0 1 781.329 1556)">
   <path d="M69.4489-33.3122L69.4489 27.0233Q69.4489 29.9881 70.6795 31.4659Q71.9101 32.9437 73.8857 33.0158Q75.8614 33.0879 78.0663 31.826L129.832 1.92795Q131.596 0.914001 132.519-0.0144958Q133.442-0.942993 133.781-2.11792Q134.121-3.29285 134.121-5.0766L134.121-66.3712Q134.121-67.9649 133.448-69.1418Q132.776-70.3186 131.592-70.9446Q130.408-71.5706 128.883-71.4806Q127.357-71.3905 125.652-70.4163L73.6977-40.3534Q72.0375-39.3806 71.1212-38.459Q70.2049-37.5374 69.8269-36.3449Q69.4489-35.1524 69.4489-33.3122ZM75.3632-36.6547L127.467-66.8732Q128.439-67.4255 129.301-67.0055Q130.162-66.5855 130.162-65.2832L130.162-5.08194Q130.162-3.64075 129.737-2.99416Q129.312-2.34756 128.15-1.71509L75.6622 28.6369Q74.5842 29.2458 73.9964 28.857Q73.4085 28.4683 73.4085 27.4963L73.4085-33.3008Q73.4085-34.6291 73.8186-35.297Q74.2287-35.965 75.3632-36.6547ZM71.6194 3.57437L71.6194-0.997925L48.0278 12.5916Q46.949 13.2149 46.3436 12.8193Q45.7382 12.4237 45.7382 11.4647L45.7382-49.3454Q45.7382-50.7088 46.1487-51.3699Q46.5591-52.0309 47.6936-52.7344L99.8322-82.9041Q100.77-83.4923 101.649-83.0547Q102.528-82.6172 102.528-81.3499L102.528-55.2322L106.451-57.3967L106.451-82.402Q106.451-83.9958 105.779-85.1902Q105.106-86.3846 103.939-86.993Q102.773-87.6015 101.248-87.5118Q99.7231-87.4222 98.0179-86.4471L46.0625-56.385Q44.4023-55.4474 43.4864-54.5254Q42.5705-53.6034 42.1925-52.3933Q41.8144-51.1833 41.8144-49.3927L41.8144 10.9787Q41.8144 13.9221 43.045 15.4171Q44.2757 16.9121 46.2513 16.9846Q48.2269 17.057 50.4318 15.76ZM43.9804-11.2656L43.9804-15.8653L22.2778-3.34167Q21.199-2.71912 20.5936-3.11432Q19.9883-3.50952 19.9883-4.48227L19.9883-65.2794Q19.9883-66.6077 20.3987-67.2863Q20.8092-67.9649 21.9437-68.6325L74.0959-98.8518Q75.0198-99.4041 75.8987-98.9773Q76.7776-98.5504 76.7776-97.2481L76.7776-71.7499L80.7152-73.7053L80.7152-98.336Q80.7152-99.9298 80.0354-101.114Q79.3556-102.297 78.1963-102.923Q77.037-103.549 75.5051-103.459Q73.9731-103.369 72.2816-102.381L20.3262-72.332Q18.6661-71.3455 17.7502-70.4308Q16.8343-69.516 16.4494-68.3167Q16.0645-67.1173 16.0645-65.2908L16.0645-4.95529Q16.0645-1.97678 17.3019-0.498962Q18.5394 0.978851 20.5082 1.05095Q22.477 1.12305 24.6956-0.138855Z"/>
  </g>
  <g id="Ultralight-L" transform="matrix(1 0 0 1 485.31 1556)">
   <path d="M69.767-33.4869L69.767 27.5566Q69.767 30.0194 70.8439 31.1943Q71.9208 32.3692 73.568 32.4055Q75.2151 32.4417 76.9386 31.4674L129.247 1.25122Q130.714 0.411987 131.457-0.296402Q132.201-1.00479 132.469-1.90277Q132.737-2.80075 132.737-4.23508L132.737-66.1041Q132.737-67.3088 132.203-68.2804Q131.668-69.252 130.695-69.8112Q129.721-70.3705 128.406-70.3114Q127.091-70.2522 125.529-69.3497L73.246-39.0923Q71.8422-38.2629 71.1006-37.5565Q70.359-36.85 70.063-35.9295Q69.767-35.009 69.767-33.4869ZM74.102-36.5929L127.118-67.3653Q128.204-67.9794 129.188-67.5083Q130.173-67.0372 130.173-65.5396L130.173-4.19998Q130.173-2.8511 129.773-2.28653Q129.374-1.72195 128.314-1.16119L74.8726 29.7546Q73.6511 30.4558 72.9912 30.011Q72.3312 29.5662 72.3312 28.4805L72.3312-33.5571Q72.3312-34.7313 72.6902-35.3378Q73.0492-35.9444 74.102-36.5929ZM71.1884 2.65121L71.1884-0.249481L47.0535 13.6581Q45.8313 14.3631 45.1492 13.9164Q44.4672 13.4697 44.4672 12.3878L44.4672-49.6536Q44.4672-50.8728 44.8257-51.4778Q45.1843-52.0828 46.2372-52.7344L99.2989-83.4579Q100.339-84.1179 101.346-83.6239Q102.353-83.1299 102.353-81.678L102.353-55.0072L104.872-56.4636L104.872-82.1976Q104.872-83.4015 104.338-84.396Q103.803-85.3905 102.853-85.9268Q101.902-86.4632 100.587-86.404Q99.2714-86.3449 97.7097-85.4424L45.4269-55.1849Q44.0231-54.4014 43.2812-53.6949Q42.5392-52.9884 42.2436-52.0451Q41.9479-51.1017 41.9479-49.6284L41.9479 11.4601Q41.9479 13.8809 43.0244 15.0787Q44.101 16.2766 45.7485 16.3128Q47.3961 16.349 49.1196 15.329ZM43.4784-12.5572L43.4784-15.4655L21.17-2.59323Q19.9486-1.88828 19.2661-2.33498Q18.5837-2.78168 18.5837-3.86734L18.5837-65.905Q18.5837-67.0792 18.9426-67.7067Q19.3016-68.3342 20.3537-68.9407L73.4192-99.7131Q74.4553-100.327 75.4623-99.8543Q76.4694-99.3813 76.4694-97.8836L76.4694-71.5141L78.9925-72.7722L78.9925-98.4489Q78.9925-99.6529 78.4561-100.626Q77.9198-101.6 76.9711-102.159Q76.0223-102.718 74.7051-102.659Q73.3879-102.6 71.83-101.694L19.5473-71.4401Q18.1435-70.6078 17.4015-69.9028Q16.6595-69.1978 16.362-68.2755Q16.0645-67.3531 16.0645-65.8348L16.0645-4.79126Q16.0645-2.32544 17.1429-1.15013Q18.2213 0.025177 19.8669 0.0614166Q21.5126 0.0976562 23.2391-0.876617Z"/>
  </g>
  <g id="Black-M" transform="matrix(1 0 0 1 2866.99 1126)">
   <path d="M55.7617-30.7617L55.7617 10.5957Q55.7617 16.7969 58.5938 20.2148Q61.4258 23.6328 65.9912 23.9258Q70.5566 24.2188 75.8301 21.1914L111.816 0.439453Q115.234-1.5625 117.065-3.4668Q118.896-5.37109 119.629-7.91016Q120.361-10.4492 120.361-14.3066L120.361-56.9824Q120.361-63.1348 117.383-66.4307Q114.404-69.7266 109.985-70.1172Q105.566-70.5078 101.221-67.9688L65.1855-47.0703Q61.4258-44.9219 59.3994-42.8223Q57.373-40.7227 56.5674-37.8906Q55.7617-35.0586 55.7617-30.7617ZM73.0957-33.0566L103.516-50.6836Q103.809-50.7812 104.028-50.6592Q104.248-50.5371 104.248-50.2441L104.248-15.4785Q104.248-14.6973 104.004-14.209Q103.76-13.7207 103.027-13.3301L72.6562 4.88281Q72.3633 5.07812 72.1191 4.90723Q71.875 4.73633 71.875 4.49219L71.875-30.8594Q71.875-31.7871 72.0947-32.1777Q72.3145-32.5684 73.0957-33.0566ZM64.3066 2.83203L64.3066-15.5762L50.9277-7.56836Q50.6348-7.37305 50.3906-7.54395Q50.1465-7.71484 50.1465-7.95898L50.1465-43.3105Q50.1465-44.2383 50.3662-44.6289Q50.5859-45.0195 51.3672-45.459L81.8359-63.0859Q82.0801-63.2324 82.2998-63.0859Q82.5195-62.9395 82.5195-62.6953L82.5195-47.9492L98.6328-56.6406L98.6328-69.3848Q98.6328-75.5859 95.6543-78.8818Q92.6758-82.1777 88.2568-82.5684Q83.8379-82.959 79.4922-80.4199L43.457-59.5215Q39.7461-57.373 37.6953-55.249Q35.6445-53.125 34.8389-50.3174Q34.0332-47.5098 34.0332-43.2129L34.0332-1.85547Q34.0332 4.39453 36.8652 7.78809Q39.6973 11.1816 44.2871 11.499Q48.877 11.8164 54.1016 8.74023ZM41.3574-8.64258L41.3574-27.0508L29.3457-19.873Q29.0527-19.6777 28.8086-19.8486Q28.5645-20.0195 28.5645-20.3125L28.5645-55.6641Q28.5645-56.543 28.7842-56.958Q29.0039-57.373 29.7852-57.8125L60.2051-75.4395Q60.498-75.5859 60.7178-75.4395Q60.9375-75.293 60.9375-75L60.9375-60.2539L77.0508-67.9199L77.0508-81.7383Q77.0508-87.9395 74.0723-91.2354Q71.0938-94.5312 66.6504-94.8975Q62.207-95.2637 57.9102-92.7734L21.875-71.875Q18.1152-69.6777 16.0889-67.5781Q14.0625-65.4785 13.2568-62.6709Q12.4512-59.8633 12.4512-55.5664L12.4512-14.1602Q12.4512-7.95898 15.2832-4.56543Q18.1152-1.17188 22.6807-0.854492Q27.2461-0.537109 32.5195-3.56445Z"/>
  </g>
  <g id="Heavy-M" transform="matrix(1 0 0 1 2571.65 1126)">
   <path d="M55.0354-31.3263L55.0354 10.7224Q55.0354 16.4284 57.5565 19.558Q60.0777 22.6875 64.1933 22.9519Q68.309 23.2162 73.1445 20.4422L109.661-0.632477Q112.837-2.48413 114.547-4.28505Q116.257-6.08597 116.944-8.47511Q117.63-10.8643 117.63-14.4218L117.63-57.766Q117.63-63.2729 114.945-66.2117Q112.26-69.1505 108.286-69.4836Q104.311-69.8166 100.414-67.5537L63.6528-46.2524Q60.273-44.3108 58.408-42.3611Q56.543-40.4114 55.7892-37.804Q55.0354-35.1967 55.0354-31.3263ZM70.6642-33.8867L102.686-52.4239Q103.002-52.5444 103.222-52.4166Q103.442-52.2888 103.442-51.9844L103.442-15.3519Q103.442-14.4089 103.157-13.8573Q102.872-13.3057 102.025-12.8342L69.9944 6.17371Q69.6899 6.35757 69.4572 6.20384Q69.2245 6.05011 69.2245 5.77164L69.2245-31.3316Q69.2245-32.4097 69.5076-32.8808Q69.7906-33.3519 70.6642-33.8867ZM62.5778 1.71432L62.5778-14.5737L48.4962-6.23169Q48.1918-6.03638 47.9591-6.19583Q47.7264-6.35529 47.7264-6.62231L47.7264-43.7256Q47.7264-44.8029 48.0095-45.2744Q48.2925-45.7458 49.1661-46.2425L81.2248-64.7804Q81.4926-64.9384 81.7181-64.7919Q81.9435-64.6454 81.9435-64.3776L81.9435-48.7907L96.1319-56.4102L96.1319-70.1225Q96.1319-75.6783 93.4471-78.611Q90.7623-81.5437 86.7874-81.8825Q82.8125-82.2212 78.9162-79.9477L42.1547-58.6571Q38.8008-56.7162 36.9232-54.7478Q35.0456-52.7794 34.2915-50.1907Q33.5373-47.6021 33.5373-43.7202L33.5373-1.67084Q33.5373 4.06036 36.0584 7.17163Q38.5796 10.2829 42.7139 10.5713Q46.8483 10.8597 51.6472 8.04901ZM40.0551-9.47266L40.0551-25.7713L27.4094-18.2823Q27.1049-18.087 26.8723-18.2465Q26.6396-18.4059 26.6396-18.7103L26.6396-55.8136Q26.6396-56.8542 26.923-57.3441Q27.2064-57.8339 28.0792-58.3313L60.1013-76.8684Q60.4057-77.0378 60.6312-76.8856Q60.8566-76.7334 60.8566-76.429L60.8566-61.2221L75.0458-68.0122L75.0458-82.2105Q75.0458-87.7663 72.361-90.6994Q69.6762-93.6325 65.6822-93.9526Q61.6882-94.2726 57.8293-92.0471L21.0686-70.7458Q17.6773-68.7675 15.818-66.8175Q13.9587-64.8674 13.205-62.2787Q12.4512-59.6901 12.4512-55.8083L12.4512-13.7337Q12.4512-8.02841 14.9719-4.91714Q17.4927-1.80588 21.6087-1.51711Q25.7248-1.22833 30.5603-4.01382Z"/>
  </g>
  <g id="Bold-M" transform="matrix(1 0 0 1 2276.46 1126)">
   <path d="M54.2236-31.958L54.2236 10.8643Q54.2236 16.0156 56.3965 18.8232Q58.5693 21.6309 62.1826 21.8628Q65.7959 22.0947 70.1416 19.6045L107.251-1.83105Q110.156-3.51562 111.731-5.2002Q113.306-6.88477 113.94-9.10645Q114.575-11.3281 114.575-14.5508L114.575-58.6426Q114.575-63.4277 112.219-65.9668Q109.863-68.5059 106.384-68.7744Q102.905-69.043 99.5117-67.0898L61.9385-45.3369Q58.9844-43.6279 57.2998-41.8457Q55.6152-40.0635 54.9194-37.7075Q54.2236-35.3516 54.2236-31.958ZM67.9443-34.8145L101.758-54.3701Q102.1-54.5166 102.319-54.3823Q102.539-54.248 102.539-53.9307L102.539-15.21Q102.539-14.0869 102.209-13.4644Q101.88-12.8418 100.903-12.2803L67.0166 7.61719Q66.6992 7.78809 66.4795 7.65381Q66.2598 7.51953 66.2598 7.20215L66.2598-31.8604Q66.2598-33.1055 66.6138-33.667Q66.9678-34.2285 67.9443-34.8145ZM60.6445 0.463867L60.6445-13.4521L45.7764-4.73633Q45.459-4.54102 45.2393-4.6875Q45.0195-4.83398 45.0195-5.12695L45.0195-44.1895Q45.0195-45.4346 45.3735-45.9961Q45.7275-46.5576 46.7041-47.1191L80.542-66.6748Q80.835-66.8457 81.0669-66.6992Q81.2988-66.5527 81.2988-66.2598L81.2988-49.7314L93.335-56.1523L93.335-70.9473Q93.335-75.7812 90.979-78.3081Q88.623-80.835 85.144-81.1157Q81.665-81.3965 78.2715-79.4189L40.6982-57.6904Q37.7441-55.9814 36.0596-54.187Q34.375-52.3926 33.6792-50.0488Q32.9834-47.7051 32.9834-44.2871L32.9834-1.46484Q32.9834 3.68652 35.1562 6.48193Q37.3291 9.27734 40.9546 9.53369Q44.5801 9.79004 48.9014 7.27539ZM38.5986-10.4004L38.5986-24.3408L25.2441-16.5039Q24.9268-16.3086 24.707-16.4551Q24.4873-16.6016 24.4873-16.9189L24.4873-55.9814Q24.4873-57.2021 24.8413-57.7759Q25.1953-58.3496 26.1719-58.9111L59.9854-78.4668Q60.3027-78.6621 60.5347-78.5034Q60.7666-78.3447 60.7666-78.0273L60.7666-62.3047L72.8027-68.1152L72.8027-82.7393Q72.8027-87.5732 70.4468-90.1001Q68.0908-92.627 64.5996-92.8955Q61.1084-93.1641 57.7393-91.2354L20.166-69.4824Q17.1875-67.749 15.5151-65.9668Q13.8428-64.1846 13.147-61.8408Q12.4512-59.4971 12.4512-56.0791L12.4512-13.2568Q12.4512-8.10547 14.624-5.31006Q16.7969-2.51465 20.4102-2.2583Q24.0234-2.00195 28.3691-4.5166Z"/>
  </g>
  <g id="Semibold-M" transform="matrix(1 0 0 1 1980.81 1126)">
   <path d="M53.6636-32.3936L53.6636 10.9619Q53.6636 15.731 55.5965 18.3167Q57.5294 20.9023 60.7964 21.1121Q64.0633 21.3219 68.071 19.0269L105.589-2.65732Q108.308-4.22668 109.789-5.83115Q111.271-7.43561 111.87-9.5417Q112.469-11.6478 112.469-14.6393L112.469-59.2468Q112.469-63.5345 110.339-65.7982Q108.21-68.0618 105.073-68.2858Q101.936-68.5097 98.8899-66.7702L60.7567-44.706Q58.0956-43.1572 56.5353-41.4902Q54.9751-39.8232 54.3194-37.6408Q53.6636-35.4584 53.6636-32.3936ZM66.069-35.4546L101.118-55.7121Q101.478-55.8762 101.698-55.7377Q101.917-55.5992 101.917-55.2727L101.917-15.1123Q101.917-13.8649 101.556-13.1935Q101.196-12.5221 100.13-11.898L64.9635 8.61282Q64.6378 8.77457 64.4268 8.65364Q64.2159 8.53271 64.2159 8.18863L64.2159-32.225Q64.2159-33.5854 64.6187-34.2091Q65.0215-34.8328 66.069-35.4546ZM59.3117-0.398254L59.3117-12.6793L43.9011-3.7056Q43.5753-3.51028 43.3643-3.64761Q43.1534-3.78494 43.1534-4.09622L43.1534-44.5091Q43.1534-45.8702 43.5562-46.4939Q43.959-47.1176 45.0066-47.7234L80.0713-67.981Q80.3818-68.161 80.6183-68.0145Q80.8548-67.868 80.8548-67.5575L80.8548-50.3799L91.4062-55.9746L91.4062-71.5164Q91.4062-75.8522 89.2769-78.0991Q87.1475-80.3459 84.0107-80.587Q80.8739-80.8281 77.8275-79.0543L39.6942-57.0236Q37.0155-55.4749 35.4641-53.8006Q33.9127-52.1263 33.2569-49.9512Q32.6012-47.776 32.6012-44.6785L32.6012-1.32294Q32.6012 3.42865 34.5341 6.00624Q36.467 8.58383 39.7415 8.81805Q43.0161 9.05228 47.0085 6.7421ZM37.5946-11.0405L37.5946-23.3543L23.7511-15.2779Q23.4245-15.0826 23.214-15.2199Q23.0034-15.3572 23.0034-15.6837L23.0034-56.0966Q23.0034-57.4425 23.4062-58.0738Q23.8091-58.7051 24.8566-59.3109L59.9052-79.5685Q60.2318-79.7821 60.4679-79.6188Q60.704-79.4556 60.704-79.129L60.704-63.0508L71.2563-68.1862L71.2563-83.1039Q71.2563-87.4397 69.1269-89.6866Q66.9975-91.9334 63.8531-92.1665Q60.7086-92.3996 57.6767-90.6754L19.5442-68.6111Q16.8495-67.0471 15.3061-65.3805Q13.7627-63.7138 13.1069-61.5387Q12.4512-59.3636 12.4512-56.266L12.4512-12.928Q12.4512-8.15887 14.3841-5.58128Q16.317-3.00369 19.5835-2.76947Q22.85-2.53525 26.8585-4.86298Z"/>
  </g>
  <g id="Medium-M" transform="matrix(1 0 0 1 1684.89 1126)">
   <path d="M53.2394-32.724L53.2394 11.0359Q53.2394 15.5159 54.9904 17.9329Q56.7413 20.3499 59.745 20.5425Q62.7487 20.7352 66.5009 18.589L104.329-3.28445Q106.906-4.76532 108.317-6.30951Q109.727-7.8537 110.3-9.87206Q110.872-11.8904 110.872-14.7072L110.872-59.7054Q110.872-63.6154 108.915-65.67Q106.957-67.7246 104.08-67.915Q101.202-68.1053 98.4177-66.5276L59.8602-44.2276Q57.4219-42.8001 55.9559-41.2209Q54.4899-39.6416 53.8647-37.5904Q53.2394-35.5392 53.2394-32.724ZM64.6477-35.9398L100.632-56.7299Q101.006-56.9077 101.225-56.7654Q101.445-56.6231 101.445-56.2904L101.445-15.0383Q101.445-13.6963 101.061-12.9879Q100.677-12.2795 99.5438-11.6081L63.4071 9.36737Q63.0745 9.52225 62.87 9.41162Q62.6656 9.30099 62.6656 8.93631L62.6656-32.5012Q62.6656-33.9493 63.1058-34.6203Q63.546-35.2913 64.6477-35.9398ZM58.3008-1.05209L58.3008-12.0926L42.4797-2.92358Q42.1463-2.72827 41.9422-2.85912Q41.7381-2.98996 41.7381-3.31421L41.7381-44.7517Q41.7381-46.2006 42.178-46.8712Q42.6178-47.5418 43.7195-48.1819L79.7142-68.972Q80.0385-69.1582 80.278-69.0117Q80.5176-68.8652 80.5176-68.541L80.5176-50.872L89.9445-55.8395L89.9445-71.9475Q89.9445-75.9064 87.9868-77.9411Q86.0291-79.9759 83.1516-80.1861Q80.2742-80.3963 77.4902-78.7781L38.9328-56.5186Q36.4632-55.0911 35.0128-53.5076Q33.5625-51.9241 32.9369-49.8772Q32.3112-47.8302 32.3112-44.9745L32.3112-1.2146Q32.3112 3.23334 34.0622 5.64613Q35.8131 8.05893 38.8214 8.27599Q41.8297 8.49304 45.5734 6.33774ZM36.8332-11.5257L36.8332-22.6067L22.6189-14.3478Q22.2862-14.1525 22.0821-14.2834Q21.8781-14.4142 21.8781-14.7469L21.8781-56.1844Q21.8781-57.6241 22.3179-58.2993Q22.7577-58.9745 23.8594-59.6146L59.845-80.4047Q60.1776-80.6313 60.4176-80.4646Q60.6575-80.2979 60.6575-79.9652L60.6575-63.6169L70.0836-68.2404L70.0836-83.3801Q70.0836-87.339 68.1263-89.3738Q66.169-91.4085 63.287-91.6145Q60.405-91.8205 57.6302-90.2512L19.072-67.9512Q16.5939-66.5146 15.1482-64.9357Q13.7024-63.3568 13.0768-61.3098Q12.4512-59.2628 12.4512-56.4072L12.4512-12.6785Q12.4512-8.19931 14.2021-5.78651Q15.9531-3.37372 18.9571-3.15666Q21.9612-2.93961 25.7126-5.12619Z"/>
  </g>
  <g id="Regular-M" transform="matrix(1 0 0 1 1389.22 1126)">
   <path d="M52.6855-33.1543L52.6855 11.1328Q52.6855 15.2344 54.1992 17.4316Q55.7129 19.6289 58.374 19.7998Q61.0352 19.9707 64.4531 18.0176L102.686-4.10156Q105.078-5.46875 106.396-6.93359Q107.715-8.39844 108.252-10.3027Q108.789-12.207 108.789-14.7949L108.789-60.3027Q108.789-63.7207 107.056-65.5029Q105.322-67.2852 102.783-67.4316Q100.244-67.5781 97.8027-66.2109L58.6914-43.6035Q56.543-42.334 55.2002-40.8691Q53.8574-39.4043 53.2715-37.5244Q52.6855-35.6445 52.6855-33.1543ZM62.793-36.5723L100-58.0566Q100.391-58.252 100.61-58.1055Q100.83-57.959 100.83-57.6172L100.83-14.9414Q100.83-13.4766 100.415-12.7197Q100-11.9629 98.7793-11.2305L61.377 10.3516Q61.0352 10.498 60.8398 10.4004Q60.6445 10.3027 60.6445 9.91211L60.6445-32.8613Q60.6445-34.4238 61.1328-35.1562Q61.6211-35.8887 62.793-36.5723ZM56.9824-1.9043L56.9824-11.3281L40.625-1.9043Q40.2832-1.70898 40.0879-1.83105Q39.8926-1.95312 39.8926-2.29492L39.8926-45.0684Q39.8926-46.6309 40.3809-47.3633Q40.8691-48.0957 42.041-48.7793L79.248-70.2637Q79.5898-70.459 79.834-70.3125Q80.0781-70.166 80.0781-69.8242L80.0781-51.5137L88.0371-55.6641L88.0371-72.5098Q88.0371-75.9766 86.3037-77.7344Q84.5703-79.4922 82.0312-79.6631Q79.4922-79.834 77.0508-78.418L37.9395-55.8594Q35.7422-54.5898 34.4238-53.125Q33.1055-51.6602 32.5195-49.7803Q31.9336-47.9004 31.9336-45.3613L31.9336-1.07422Q31.9336 2.97852 33.4473 5.17578Q34.9609 7.37305 37.6221 7.56836Q40.2832 7.76367 43.7012 5.81055ZM35.8398-12.1582L35.8398-21.6309L21.1426-13.1348Q20.8008-12.9395 20.6055-13.0615Q20.4102-13.1836 20.4102-13.5254L20.4102-56.2988Q20.4102-57.8613 20.8984-58.5938Q21.3867-59.3262 22.5586-60.0098L59.7656-81.4941Q60.1074-81.7383 60.3516-81.5674Q60.5957-81.3965 60.5957-81.0547L60.5957-64.3555L68.5547-68.3105L68.5547-83.7402Q68.5547-87.207 66.8213-88.9648Q65.0879-90.7227 62.5488-90.8936Q60.0098-91.0645 57.5684-89.6973L18.457-67.0898Q16.2598-65.8203 14.9414-64.3555Q13.623-62.8906 13.0371-61.0107Q12.4512-59.1309 12.4512-56.5918L12.4512-12.3535Q12.4512-8.25195 13.9648-6.05469Q15.4785-3.85742 18.1396-3.66211Q20.8008-3.4668 24.2188-5.46875Z"/>
  </g>
  <g id="Light-M" transform="matrix(1 0 0 1 1093.43 1126)">
   <path d="M53.1242-33.3817L53.1242 11.8439Q53.1242 15.2649 54.4262 17.0685Q55.7281 18.8721 57.9578 18.9976Q60.1875 19.1231 62.97 17.5331L101.913-4.99496Q103.912-6.1348 105.004-7.31201Q106.095-8.48923 106.526-10.0227Q106.957-11.5562 106.957-13.6749L106.957-59.9548Q106.957-62.6915 105.534-64.2014Q104.111-65.7112 101.973-65.8726Q99.8352-66.0339 97.6517-64.8033L58.1009-41.9388Q56.2859-40.8661 55.1777-39.6812Q54.0695-38.4964 53.5969-36.9797Q53.1242-35.463 53.1242-33.3817ZM61.1282-36.4815L99.5461-58.6922Q100.072-58.9783 100.459-58.7639Q100.845-58.5495 100.845-57.9651L100.845-13.7756Q100.845-12.4474 100.46-11.7889Q100.076-11.1305 98.9914-10.4736L60.3325 11.8347Q59.8091 12.1025 59.5154 11.9293Q59.2216 11.7561 59.2216 11.2289L59.2216-33.194Q59.2216-34.5604 59.642-35.2093Q60.0624-35.8582 61.1282-36.4815ZM56.4224-3.13034L56.4224-10.3294L39.3387-0.496674Q38.8-0.180054 38.5063-0.378036Q38.2126-0.576019 38.2126-1.06888L38.2126-45.4773Q38.2126-46.843 38.6326-47.4995Q39.0526-48.156 40.1184-48.7793L78.537-70.99Q79.0298-71.2761 79.4403-71.0617Q79.8508-70.8473 79.8508-70.2629L79.8508-51.226L85.9482-54.4228L85.9482-72.2374Q85.9482-75.0229 84.5253-76.516Q83.1024-78.009 80.9643-78.1876Q78.8261-78.3661 76.6418-77.1011L37.0918-54.2549Q35.2425-53.1975 34.1511-52.0126Q33.0597-50.8278 32.5874-49.3111Q32.1152-47.7943 32.1152-45.6795L32.1152-0.453949Q32.1152 2.93274 33.4171 4.73671Q34.7191 6.54068 36.9488 6.68297Q39.1785 6.82526 41.9601 5.23529ZM35.1738-13.8687L35.1738-21.1014L19.6747-12.1361Q19.1505-11.8347 18.8496-12.0247Q18.5486-12.2147 18.5486-12.7228L18.5486-57.1312Q18.5486-58.4969 18.9762-59.1537Q19.4038-59.8106 20.4544-60.434L58.8722-82.6447Q59.3658-82.9643 59.7763-82.7328Q60.1868-82.5012 60.1868-81.9023L60.1868-64.0373L66.2842-67.0845L66.2842-83.8913Q66.2842-86.6623 64.8685-88.1626Q63.4529-89.6629 61.3075-89.8338Q59.1621-90.0047 56.9778-88.7741L17.4278-65.9088Q15.5785-64.8361 14.4871-63.6589Q13.3957-62.4817 12.9234-60.9577Q12.4512-59.4337 12.4512-57.3334L12.4512-12.1262Q12.4512-8.72116 13.7527-6.91757Q15.0543-5.11398 17.2844-4.97169Q19.5145-4.82941 22.2961-6.43768Z"/>
  </g>
  <g id="Thin-M" transform="matrix(1 0 0 1 797.929 1126)">
   <path d="M53.7048-33.6815L53.7048 12.7853Q53.7048 15.3046 54.7264 16.5878Q55.748 17.8711 57.4074 17.9367Q59.0668 18.0023 61.0077 16.893L100.893-6.17599Q102.371-7.01523 103.162-7.81212Q103.954-8.60901 104.245-9.65233Q104.536-10.6956 104.536-12.1933L104.536-59.494Q104.536-61.3304 103.523-62.4798Q102.51-63.6292 100.903-63.8107Q99.295-63.9923 97.451-62.9417L57.3204-39.7362Q55.9456-38.9236 55.1476-38.1092Q54.3495-37.2948 54.0272-36.2587Q53.7048-35.2226 53.7048-33.6815ZM58.9256-36.3617L98.9456-59.5329Q99.6521-59.9396 100.259-59.6348Q100.865-59.33 100.865-58.4259L100.865-12.2345Q100.865-11.0863 100.52-10.5579Q100.175-10.0296 99.2714-9.47266L58.9516 13.797Q58.1879 14.2242 57.7641 13.9511Q57.3402 13.678 57.3402 12.9707L57.3402-33.6349Q57.3402-34.7404 57.6702-35.2795Q58.0002-35.8185 58.9256-36.3617ZM55.6816-4.75159L55.6816-9.00803L37.6366 1.3649Q36.8378 1.84174 36.414 1.54381Q35.9901 1.24588 35.9901 0.552368L35.9901-46.0175Q35.9901-47.123 36.3205-47.6795Q36.6508-48.2361 37.5763-48.7793L77.5955-71.9513Q78.289-72.3572 78.92-72.0528Q79.5509-71.7484 79.5509-70.8435L79.5509-50.8461L83.1856-52.7817L83.1856-71.8773Q83.1856-73.7617 82.1728-74.9043Q81.16-76.0468 79.5528-76.2352Q77.9457-76.4236 76.1017-75.3593L35.9711-52.1332Q34.5818-51.3557 33.791-50.5413Q33.0002-49.7269 32.6778-48.6904Q32.3555-47.654 32.3555-46.0999L32.3555 0.366974Q32.3555 2.87323 33.3771 4.15649Q34.3987 5.43976 36.0577 5.51186Q37.7167 5.58395 39.6584 4.47464ZM34.2934-16.1308L34.2934-20.4002L17.7322-10.8147Q16.9685-10.3729 16.5272-10.6533Q16.0858-10.9337 16.0858-11.6623L16.0858-58.2321Q16.0858-59.3376 16.4337-59.8946Q16.7816-60.4515 17.672-60.994L57.6912-84.166Q58.3847-84.5856 59.0157-84.2743Q59.6466-83.963 59.6466-83.0231L59.6466-63.6169L63.2812-65.4633L63.2812-84.0919Q63.2812-85.9413 62.2864-87.1017Q61.2915-88.2622 59.6664-88.4331Q58.0414-88.604 56.1974-87.5526L16.0667-64.3478Q14.6774-63.5353 13.8866-62.7384Q13.0959-61.9415 12.7735-60.8879Q12.4512-59.8343 12.4512-58.3145L12.4512-11.8263Q12.4512-9.34143 13.4727-8.05817Q14.4943-6.7749 16.1533-6.7028Q17.8123-6.63071 19.754-7.71866Z"/>
  </g>
  <g id="Ultralight-M" transform="matrix(1 0 0 1 501.838 1126)">
   <path d="M54.0024-33.8356L54.0024 13.2668Q54.0024 15.3252 54.8805 16.3418Q55.7587 17.3584 57.1255 17.3931Q58.4923 17.4278 60.0029 16.5642L100.37-6.78101Q101.582-7.46689 102.219-8.06885Q102.856-8.67081 103.075-9.46274Q103.294-10.2547 103.294-11.4349L103.294-59.2583Q103.294-60.6331 102.492-61.5978Q101.689-62.5626 100.354-62.7544Q99.0181-62.9463 97.3488-61.9881L56.9206-38.6086Q55.7709-37.9295 55.1319-37.3047Q54.493-36.6798 54.2477-35.8898Q54.0024-35.0998 54.0024-33.8356ZM57.798-36.2999L98.6374-59.964Q99.437-60.4317 100.156-60.0807Q100.876-59.7298 100.876-58.6617L100.876-11.4449Q100.876-10.3889 100.552-9.92699Q100.227-9.46503 99.4148-8.95996L58.2436 14.8018Q57.357 15.3114 56.8665 14.9868Q56.3759 14.6622 56.3759 13.8626L56.3759-33.86Q56.3759-34.8328 56.6597-35.3153Q56.9435-35.7979 57.798-36.2999ZM55.3024-5.58243L55.3024-8.3313L36.7653 2.31857Q35.833 2.87704 35.3424 2.528Q34.8518 2.17896 34.8518 1.38321L34.8518-46.2944Q34.8518-47.2664 35.136-47.7718Q35.4202-48.2773 36.274-48.7793L77.1141-72.4434Q77.9099-72.9111 78.6533-72.5601Q79.3968-72.2092 79.3968-71.1411L79.3968-50.6508L81.7703-51.9402L81.7703-71.6927Q81.7703-73.1155 80.9681-74.0788Q80.1659-75.042 78.83-75.2357Q77.494-75.4295 75.8247-74.4675L35.3966-51.046Q34.2438-50.412 33.6063-49.7871Q32.9689-49.1623 32.7236-48.3723Q32.4783-47.5822 32.4783-46.315L32.4783 0.787354Q32.4783 2.84195 33.3565 3.85857Q34.2346 4.87518 35.6014 4.9118Q36.9682 4.94843 38.4789 4.08478ZM33.8417-17.2897L33.8417-20.0417L16.7381-10.1379Q15.8508-9.62448 15.3378-9.95102Q14.8247-10.2776 14.8247-11.1183L14.8247-58.7967Q14.8247-59.7687 15.1314-60.2741Q15.4381-60.7796 16.2468-61.2816L57.0862-84.9449Q57.8827-85.4164 58.6262-85.0639Q59.3697-84.7115 59.3697-83.5976L59.3697-63.4018L61.7432-64.6324L61.7432-84.1942Q61.7432-85.5721 60.9634-86.5582Q60.1837-87.5443 58.8253-87.7151Q57.4669-87.886 55.7976-86.927L15.3694-63.5475Q14.2166-62.8685 13.5792-62.2665Q12.9417-61.6646 12.6965-60.8517Q12.4512-60.0388 12.4512-58.8165L12.4512-11.6722Q12.4512-9.65958 13.3289-8.64296Q14.2067-7.62634 15.5739-7.5901Q16.9411-7.55386 18.4517-8.37479Z"/>
  </g>
  <g id="Black-S" transform="matrix(1 0 0 1 2881.01 696)">
   <path d="M43.9453-31.5918L43.9453 0.683594Q43.9453 5.66406 46.2402 8.39844Q48.5352 11.1328 52.2461 11.377Q55.957 11.6211 60.1562 9.17969L88.2324-7.03125Q92.2852-9.375 93.6523-11.7432Q95.0195-14.1113 95.0195-18.75L95.0195-52.002Q95.0195-57.0312 92.627-59.6924Q90.2344-62.3535 86.6455-62.6709Q83.0566-62.9883 79.541-60.9375L51.5137-44.6777Q48.4863-42.9199 46.8506-41.2354Q45.2148-39.5508 44.5801-37.3047Q43.9453-35.0586 43.9453-31.5918ZM57.9102-33.252L81.3477-46.8262Q81.5918-46.9238 81.7627-46.8262Q81.9336-46.7285 81.9336-46.4844L81.9336-19.7266Q81.9336-19.1895 81.7627-18.8232Q81.5918-18.457 81.0547-18.1641L57.666-4.10156Q57.4707-3.95508 57.251-4.10156Q57.0312-4.24805 57.0312-4.44336L57.0312-31.6895Q57.0312-32.373 57.1777-32.6416Q57.3242-32.9102 57.9102-33.252ZM50.8789-5.12695L50.8789-20.0684L40.5762-13.8672Q40.3809-13.7207 40.1611-13.8672Q39.9414-14.0137 39.9414-14.209L39.9414-41.4551Q39.9414-42.1387 40.0879-42.4072Q40.2344-42.6758 40.8203-43.0176L64.2578-56.5918Q64.502-56.6895 64.6729-56.5918Q64.8438-56.4941 64.8438-56.25L64.8438-44.9219L77.9297-52.002L77.9297-61.7676Q77.9297-66.7969 75.5371-69.458Q73.1445-72.1191 69.5557-72.4365Q65.9668-72.7539 62.4512-70.7031L34.4238-54.4434Q31.3965-52.6855 29.7607-51.001Q28.125-49.3164 27.4902-47.0703Q26.8555-44.8242 26.8555-41.3574L26.8555-9.08203Q26.8555-4.10156 29.1504-1.36719Q31.4453 1.36719 35.1562 1.61133Q38.8672 1.85547 43.0664-0.585938ZM32.7637-14.2578L32.7637-29.1992L23.4863-23.6328Q23.291-23.4863 23.0713-23.6328Q22.8516-23.7793 22.8516-23.9746L22.8516-51.2207Q22.8516-51.9043 22.998-52.1729Q23.1445-52.4414 23.7305-52.7832L47.168-66.3574Q47.4121-66.4551 47.583-66.3574Q47.7539-66.2598 47.7539-66.0156L47.7539-54.541L60.8398-60.7422L60.8398-71.5332Q60.8398-76.5625 58.4473-79.2236Q56.0547-81.8848 52.4658-82.2021Q48.877-82.5195 45.3613-80.4688L17.334-64.209Q14.3066-62.4512 12.6709-60.7666Q11.0352-59.082 10.4004-56.8359Q9.76562-54.5898 9.76562-51.123L9.76562-18.8477Q9.76562-13.8672 12.0605-11.1328Q14.3555-8.39844 18.0664-8.1543Q21.7773-7.91016 25.9766-10.3516Z"/>
  </g>
  <g id="Heavy-S" transform="matrix(1 0 0 1 2585.35 696)">
   <path d="M43.2655-32.0412L43.2655 0.695038Q43.2655 5.34134 45.3239 7.87964Q47.3824 10.4179 50.7591 10.6449Q54.1359 10.8719 58.0475 8.59222L86.4922-7.82623Q90.3145-10.0319 91.6183-12.3367Q92.9222-14.6416 92.9222-18.9804L92.9222-52.7168Q92.9222-57.2731 90.7372-59.6634Q88.5521-62.0537 85.2974-62.3249Q82.0427-62.5961 78.8727-60.7643L50.2808-44.194Q47.5296-42.5858 46.0091-40.9992Q44.4885-39.4127 43.877-37.3047Q43.2655-35.1967 43.2655-32.0412ZM56.0547-33.9783L80.7022-48.2323Q80.9349-48.3414 81.0886-48.2437Q81.2424-48.1461 81.2424-47.9248L81.2424-19.7609Q81.2424-19.0742 81.031-18.639Q80.8197-18.2037 80.1674-17.8413L55.5336-3.19138Q55.3383-3.05634 55.1418-3.18527Q54.9454-3.31421 54.9454-3.50952L54.9454-32.0465Q54.9454-32.8804 55.1609-33.2294Q55.3764-33.5785 56.0547-33.9783ZM49.4728-5.93338L49.4728-19.342L38.6627-12.9105Q38.4674-12.7754 38.2767-12.899Q38.0859-13.0226 38.0859-13.2179L38.0859-41.7549Q38.0859-42.588 38.2957-42.9375Q38.5056-43.2869 39.1838-43.6859L63.8313-57.9399Q64.064-58.049 64.2178-57.9514Q64.3715-57.8537 64.3715-57.6332L64.3715-45.6825L76.0513-51.9676L76.0513-62.4245Q76.0513-66.9815 73.8663-69.3775Q71.6812-71.7735 68.4265-72.039Q65.1718-72.3045 62.0132-70.4727L33.4099-53.9017Q30.6587-52.3056 29.1382-50.713Q27.6176-49.1203 27.0119-47.0184Q26.4061-44.9165 26.4061-41.7496L26.4061-9.0126Q26.4061-4.37851 28.4588-1.83411Q30.5115 0.710297 33.8882 0.937271Q37.265 1.16425 41.1766-1.11618ZM31.7383-14.7415L31.7383-28.1624L22.023-22.3999Q21.8391-22.2649 21.6423-22.3881Q21.4455-22.5113 21.4455-22.7066L21.4455-51.255Q21.4455-52.0889 21.6553-52.438Q21.8651-52.787 22.5433-53.1754L47.1909-67.4408Q47.4236-67.5385 47.583-67.4465Q47.7425-67.3546 47.7425-67.1333L47.7425-55.4054L59.4223-60.9726L59.4223-71.9131Q59.4223-76.4816 57.2372-78.8719Q55.0522-81.2622 51.7918-81.5334Q48.5313-81.8047 45.3728-79.9614L16.7809-63.3911Q14.0182-61.7943 12.4977-60.202Q10.9772-58.6098 10.3714-56.5075Q9.76562-54.4052 9.76562-51.2383L9.76562-18.502Q9.76562-13.8672 11.8244-11.3228Q13.8832-8.77838 17.2539-8.55751Q20.6245-8.33664 24.5476-10.6049Z"/>
  </g>
  <g id="Bold-S" transform="matrix(1 0 0 1 2289.81 696)">
   <path d="M42.5049-32.5439L42.5049 0.708008Q42.5049 4.98047 44.2993 7.2998Q46.0938 9.61914 49.0967 9.82666Q52.0996 10.0342 55.6885 7.93457L84.5459-8.71582Q88.1104-10.7666 89.3433-13.0005Q90.5762-15.2344 90.5762-19.2383L90.5762-53.5156Q90.5762-57.5439 88.623-59.6313Q86.6699-61.7188 83.7891-61.9385Q80.9082-62.1582 78.125-60.5713L48.9014-43.6523Q46.46-42.2119 45.0684-40.7349Q43.6768-39.2578 43.0908-37.3047Q42.5049-35.3516 42.5049-32.5439ZM53.9795-34.79L79.9805-49.8047Q80.2002-49.9268 80.3345-49.8291Q80.4688-49.7314 80.4688-49.5361L80.4688-19.7998Q80.4688-18.9453 80.2124-18.4326Q79.9561-17.9199 79.1748-17.4805L53.1494-2.17285Q52.9541-2.05078 52.7832-2.16064Q52.6123-2.27051 52.6123-2.46582L52.6123-32.4463Q52.6123-33.4473 52.9053-33.8867Q53.1982-34.3262 53.9795-34.79ZM47.9004-6.83594L47.9004-18.5303L36.5234-11.8408Q36.3281-11.7188 36.1694-11.8164Q36.0107-11.9141 36.0107-12.1094L36.0107-42.0898Q36.0107-43.0908 36.2915-43.5303Q36.5723-43.9697 37.3535-44.4336L63.3545-59.4482Q63.5742-59.5703 63.7085-59.4727Q63.8428-59.375 63.8428-59.1797L63.8428-46.5332L73.9502-51.9287L73.9502-63.1592Q73.9502-67.1875 71.9971-69.2871Q70.0439-71.3867 67.1631-71.5942Q64.2822-71.8018 61.5234-70.2148L32.2754-53.2959Q29.834-51.8799 28.4424-50.3906Q27.0508-48.9014 26.4771-46.9604Q25.9033-45.0195 25.9033-42.1875L25.9033-8.93555Q25.9033-4.6875 27.6855-2.35596Q29.4678-0.0244141 32.4707 0.183105Q35.4736 0.390625 39.0625-1.70898ZM30.5908-15.2832L30.5908-27.002L20.3857-21.0205Q20.2148-20.8984 20.0439-20.9961Q19.873-21.0938 19.873-21.2891L19.873-51.2939Q19.873-52.2949 20.1538-52.7344Q20.4346-53.1738 21.2158-53.6133L47.2168-68.6523Q47.4365-68.75 47.583-68.6646Q47.7295-68.5791 47.7295-68.3838L47.7295-56.3721L57.8369-61.2305L57.8369-72.3389Q57.8369-76.3916 55.8838-78.479Q53.9307-80.5664 51.0376-80.7861Q48.1445-81.0059 45.3857-79.3945L16.1621-62.4756Q13.6963-61.0596 12.3047-59.5703Q10.9131-58.0811 10.3394-56.1401Q9.76562-54.1992 9.76562-51.3672L9.76562-18.1152Q9.76562-13.8672 11.5601-11.5356Q13.3545-9.2041 16.3452-9.00879Q19.3359-8.81348 22.9492-10.8887Z"/>
  </g>
  <g id="Semibold-S" transform="matrix(1 0 0 1 1993.9 696)">
   <path d="M41.9807-32.8903L41.9807 0.717163Q41.9807 4.73175 43.5928 6.90002Q45.2049 9.0683 47.9504 9.26247Q50.6958 9.45663 54.0619 7.48138L83.2039-9.32922Q86.5906-11.2732 87.7747-13.4583Q88.9587-15.6433 88.9587-19.416L88.9587-54.0665Q88.9587-57.7309 87.1655-59.6092Q85.3722-61.4876 82.7492-61.6718Q80.1262-61.8561 77.6093-60.4378L47.9507-43.2793Q45.7222-41.954 44.4195-40.5525Q43.1168-39.151 42.5488-37.3047Q41.9807-35.4584 41.9807-32.8903ZM52.549-35.35L79.483-50.8888Q79.6936-51.0201 79.8145-50.9224Q79.9355-50.8247 79.9355-50.647L79.9355-19.8265Q79.9355-18.8568 79.6482-18.2907Q79.361-17.7246 78.4904-17.2318L51.5053-1.47095Q51.31-1.35727 51.157-1.45378Q51.004-1.55029 51.004-1.74561L51.004-32.7217Q51.004-33.8387 51.35-34.3403Q51.696-34.8419 52.549-35.35ZM46.8163-7.45773L46.8163-17.9703L35.0479-11.1031Q34.8526-10.9901 34.7164-11.0699Q34.5802-11.1496 34.5802-11.3449L34.5802-42.321Q34.5802-43.4372 34.9098-43.9388Q35.2394-44.4405 36.0916-44.9493L63.0257-60.4881Q63.2362-60.6194 63.3572-60.5217Q63.4781-60.424 63.4781-60.2463L63.4781-47.1199L72.5014-51.902L72.5014-63.6658Q72.5014-67.3294 70.7085-69.2249Q68.9156-71.1205 66.2922-71.2879Q63.6688-71.4554 61.1855-70.0371L31.4934-52.8786Q29.2656-51.5869 27.9625-50.1686Q26.6594-48.7503 26.1082-46.9204Q25.5569-45.0905 25.5569-42.4896L25.5569-8.88214Q25.5569-4.90112 27.1523-2.71606Q28.7476-0.531006 31.493-0.336838Q34.2384-0.14267 37.6053-2.11792ZM29.7997-15.6563L29.7997-26.2024L19.2574-20.0699Q19.0948-19.9562 18.9419-20.0363Q18.7889-20.1164 18.7889-20.3117L18.7889-51.3206Q18.7889-52.4368 19.1185-52.9385Q19.4481-53.4401 20.3003-53.9154L47.2343-69.4878Q47.4457-69.5854 47.583-69.5045Q47.7203-69.4237 47.7203-69.2459L47.7203-57.0389L56.7436-61.4082L56.7436-72.6318Q56.7436-76.329 54.9507-78.2078Q53.1578-80.0865 50.518-80.2708Q47.8783-80.455 45.3949-79.0031L15.7356-61.8446Q13.4743-60.553 12.1716-59.1347Q10.8688-57.7164 10.3172-55.8868Q9.76562-54.0573 9.76562-51.4557L9.76562-17.849Q9.76562-13.8672 11.3777-11.6821Q12.9898-9.49707 15.7185-9.31969Q18.4471-9.1423 21.8475-11.084Z"/>
  </g>
  <g id="Medium-S" transform="matrix(1 0 0 1 1697.81 696)">
   <path d="M41.5833-33.1535L41.5833 0.723267Q41.5833 4.5433 43.0573 6.59676Q44.5312 8.65021 47.081 8.83446Q49.6307 9.01871 52.829 7.1373L82.1861-9.79385Q85.4385-11.657 86.5856-13.805Q87.7327-15.9531 87.7327-19.5511L87.7327-54.4846Q87.7327-57.872 86.0607-59.5924Q84.3887-61.3129 81.9611-61.47Q79.5334-61.6272 77.2186-60.3371L47.2298-42.9962Q45.163-41.7587 43.9278-40.4144Q42.6926-39.0701 42.1379-37.3047Q41.5833-35.5392 41.5833-33.1535ZM51.4641-35.7742L79.1054-51.7113Q79.3098-51.8486 79.4205-51.7509Q79.5311-51.6533 79.5311-51.4893L79.5311-19.8463Q79.5311-18.7889 79.2202-18.1824Q78.9093-17.5758 77.9716-17.0433L50.2586-0.938416Q50.0633-0.832367 49.9237-0.918579Q49.7841-1.00479 49.7841-1.2001L49.7841-32.9308Q49.7841-34.1347 50.1709-34.6836Q50.5577-35.2325 51.4641-35.7742ZM45.9938-7.92999L45.9938-17.5461L33.9294-10.5438Q33.7341-10.4378 33.6147-10.5042Q33.4953-10.5705 33.4953-10.7658L33.4953-42.4957Q33.4953-43.7004 33.8619-44.249Q34.2285-44.7975 35.1349-45.34L62.7762-61.2762Q62.9807-61.4143 63.0913-61.3167Q63.2019-61.219 63.2019-61.055L63.2019-47.5647L71.4035-51.8822L71.4035-64.0495Q71.4035-67.4377 69.7315-69.178Q68.0595-70.9183 65.6319-71.0552Q63.2042-71.1922 60.9299-69.902L30.9006-52.5612Q28.8338-51.3641 27.5986-50Q26.3634-48.6359 25.8286-46.8903Q25.2937-45.1447 25.2937-42.7185L25.2937-8.84171Q25.2937-5.06287 26.7479-2.98882Q28.2021-0.914764 30.7518-0.730896Q33.3015-0.547028 36.4998-2.42767ZM29.2-15.9393L29.2-25.5959L18.4013-19.3489Q18.2457-19.2421 18.1061-19.3085Q17.9665-19.3748 17.9665-19.5702L17.9665-51.3405Q17.9665-52.5452 18.3334-53.0937Q18.7004-53.6423 19.6068-54.1443L47.2481-70.121Q47.4518-70.2187 47.583-70.1412Q47.7142-70.0638 47.7142-69.8997L47.7142-57.5439L55.9151-61.5433L55.9151-72.8546Q55.9151-76.2825 54.2431-78.0025Q52.5711-79.7226 50.1236-79.8798Q47.6761-80.0369 45.401-78.7071L15.4121-61.3663Q13.3057-60.1692 12.0705-58.8047Q10.8353-57.4402 10.3004-55.6946Q9.76562-53.949 9.76562-51.5236L9.76562-17.6468Q9.76562-13.8672 11.2396-11.7935Q12.7136-9.71985 15.2435-9.55582Q17.7734-9.39178 21.0114-11.2328Z"/>
  </g>
  <g id="Regular-S" transform="matrix(1 0 0 1 1401.9 696)">
   <path d="M41.0645-33.4961L41.0645 0.732422Q41.0645 4.29688 42.3584 6.20117Q43.6523 8.10547 45.9473 8.27637Q48.2422 8.44727 51.2207 6.68945L80.8594-10.4004Q83.9355-12.1582 85.0342-14.2578Q86.1328-16.3574 86.1328-19.7266L86.1328-55.0293Q86.1328-58.0566 84.6191-59.5703Q83.1055-61.084 80.9326-61.2061Q78.7598-61.3281 76.709-60.2051L46.2891-42.627Q44.4336-41.5039 43.2861-40.2344Q42.1387-38.9648 41.6016-37.3047Q41.0645-35.6445 41.0645-33.4961ZM50.0488-36.3281L78.6133-52.7832Q78.8086-52.9297 78.9062-52.832Q79.0039-52.7344 79.0039-52.5879L79.0039-19.873Q79.0039-18.7012 78.6621-18.042Q78.3203-17.3828 77.2949-16.7969L48.6328-0.244141Q48.4375-0.146484 48.3154-0.219727Q48.1934-0.292969 48.1934-0.488281L48.1934-33.2031Q48.1934-34.5215 48.6328-35.1318Q49.0723-35.7422 50.0488-36.3281ZM44.9219-8.54492L44.9219-16.9922L32.4707-9.81445Q32.2754-9.7168 32.1777-9.76562Q32.0801-9.81445 32.0801-10.0098L32.0801-42.7246Q32.0801-44.043 32.4951-44.6533Q32.9102-45.2637 33.8867-45.8496L62.4512-62.3047Q62.6465-62.4512 62.7441-62.3535Q62.8418-62.2559 62.8418-62.1094L62.8418-48.1445L69.9707-51.8555L69.9707-64.5508Q69.9707-67.5781 68.457-69.1162Q66.9434-70.6543 64.7705-70.752Q62.5977-70.8496 60.5957-69.7266L30.127-52.1484Q28.2715-51.0742 27.124-49.7803Q25.9766-48.4863 25.4639-46.8506Q24.9512-45.2148 24.9512-43.0176L24.9512-8.78906Q24.9512-5.27344 26.2207-3.34473Q27.4902-1.41602 29.7852-1.24512Q32.0801-1.07422 35.0586-2.83203ZM28.418-16.3086L28.418-24.8047L17.2852-18.4082Q17.1387-18.3105 17.0166-18.3594Q16.8945-18.4082 16.8945-18.6035L16.8945-51.3672Q16.8945-52.6855 17.3096-53.2959Q17.7246-53.9062 18.7012-54.4434L47.2656-70.9473Q47.4609-71.0449 47.583-70.9717Q47.7051-70.8984 47.7051-70.752L47.7051-58.2031L54.834-61.7188L54.834-73.1445Q54.834-76.2207 53.3203-77.7344Q51.8066-79.248 49.6094-79.3701Q47.4121-79.4922 45.4102-78.3203L14.9902-60.7422Q13.0859-59.668 11.9385-58.374Q10.791-57.0801 10.2783-55.4443Q9.76562-53.8086 9.76562-51.6113L9.76562-17.3828Q9.76562-13.8672 11.0596-11.9385Q12.3535-10.0098 14.624-9.86328Q16.8945-9.7168 19.9219-11.4258Z"/>
  </g>
  <g id="Light-S" transform="matrix(1 0 0 1 1105.99 696)">
   <path d="M41.4581-33.6929L41.4581 1.36795Q41.4581 4.32739 42.5629 5.88341Q43.6676 7.43942 45.5765 7.56493Q47.4854 7.69043 49.9039 6.26526L80.1628-11.1877Q82.7248-12.6579 83.6189-14.3185Q84.5131-15.979 84.5131-18.7576L84.5131-54.7264Q84.5131-57.1487 83.2718-58.4278Q82.0305-59.7069 80.2059-59.8362Q78.3813-59.9655 76.5724-58.9485L45.7596-41.1438Q44.2062-40.2023 43.2556-39.1823Q42.305-38.1622 41.8816-36.8202Q41.4581-35.4782 41.4581-33.6929ZM48.5657-36.2526L78.1891-53.3585Q78.521-53.5652 78.7701-53.4145Q79.0192-53.2639 79.0192-52.8908L79.0192-18.8591Q79.0192-17.778 78.7075-17.2096Q78.3958-16.6412 77.4765-16.1308L47.7097 1.07269Q47.348 1.26114 47.1424 1.13487Q46.9368 1.00861 46.9368 0.67749L46.9368-33.4908Q46.9368-34.6428 47.316-35.1849Q47.6952-35.7269 48.5657-36.2526ZM44.4221-9.6344L44.4221-16.114L31.3202-8.55789Q30.9738-8.36945 30.7854-8.48656Q30.5969-8.60367 30.5969-8.92029L30.5969-43.103Q30.5969-44.2398 30.9513-44.7819Q31.3057-45.3239 32.1915-45.8496L61.8156-62.9555Q62.1468-63.1775 62.3959-63.0196Q62.645-62.8616 62.645-62.5031L62.645-47.8874L68.1244-50.7507L68.1244-64.3234Q68.1244-66.7458 66.8907-68.0416Q65.657-69.3375 63.8321-69.4504Q62.0071-69.5633 60.2173-68.5455L29.3854-50.7408Q27.8175-49.8329 26.8742-48.7965Q25.9308-47.76 25.5165-46.4344Q25.1022-45.1088 25.1022-43.2899L25.1022-8.22906Q25.1022-5.31921 26.1902-3.7384Q27.2781-2.15759 29.1946-2.03209Q31.1111-1.90659 33.5297-3.33176ZM27.8275-17.8223L27.8275-24.3355L15.9836-17.5301Q15.6708-17.3264 15.4652-17.4435Q15.2596-17.5606 15.2596-17.8925L15.2596-52.0935Q15.2596-53.2455 15.6143-53.7804Q15.9691-54.3152 16.8396-54.8218L46.4783-71.946Q46.8102-72.1344 47.0684-72.0009Q47.3267-71.8674 47.3267-71.4935L47.3267-57.9308L52.8206-60.6293L52.8206-73.2811Q52.8206-75.7362 51.5869-77.0153Q50.3532-78.2944 48.5119-78.4241Q46.6705-78.5538 44.8807-77.5177L14.0823-59.713Q12.4802-58.8051 11.5372-57.761Q10.5942-56.7169 10.1799-55.3989Q9.76562-54.081 9.76562-52.2621L9.76562-17.2012Q9.76562-14.2761 10.8704-12.7029Q11.9751-11.1298 13.8748-11.021Q15.7745-10.9123 18.2266-12.2887Z"/>
  </g>
  <g id="Thin-S" transform="matrix(1 0 0 1 810.354 696)">
   <path d="M41.9785-33.9531L41.9785 2.20871Q41.9785 4.36707 42.8329 5.46303Q43.6874 6.55899 45.0859 6.62422Q46.4844 6.68945 48.1621 5.70526L79.2419-12.2284Q81.1234-13.3186 81.7474-14.3986Q82.3715-15.4785 82.3715-17.4767L82.3715-54.3259Q82.3715-55.9471 81.4903-56.916Q80.6091-57.885 79.245-58.0246Q77.8809-58.1642 76.3924-57.2876L45.0584-39.1815Q43.9064-38.4804 43.2159-37.7911Q42.5255-37.1017 42.252-36.1797Q41.9785-35.2577 41.9785-33.9531ZM46.6034-36.1526L77.6291-54.1191Q78.141-54.406 78.59-54.1855Q79.039-53.965 79.039-53.2913L79.039-17.5179Q79.039-16.5565 78.7674-16.1083Q78.4958-15.6601 77.7168-15.2504L46.4882 2.81448Q45.9061 3.12271 45.591 2.92664Q45.2759 2.73056 45.2759 2.21863L45.2759-33.8707Q45.2759-34.803 45.5746-35.2551Q45.8733-35.7071 46.6034-36.1526ZM43.7614-11.0764L43.7614-14.9529L29.7989-6.89697Q29.2519-6.58798 28.9433-6.79512Q28.6346-7.00226 28.6346-7.47833L28.6346-43.6035Q28.6346-44.5 28.9093-44.952Q29.184-45.4041 29.9492-45.8496L60.9749-63.8161Q61.4861-64.1388 61.9354-63.9004Q62.3848-63.662 62.3848-63.0234L62.3848-47.5471L65.6815-49.2889L65.6815-64.0236Q65.6815-65.6448 64.8182-66.6203Q63.9549-67.5957 62.5908-67.7284Q61.2267-67.8612 59.7168-66.9846L28.4042-48.8792Q27.2171-48.1918 26.5442-47.4953Q25.8713-46.7987 25.5871-45.8836Q25.3029-44.9684 25.3029-43.6501L25.3029-7.48825Q25.3029-5.37872 26.1505-4.25873Q26.9981-3.13873 28.4142-3.07312Q29.8302-3.00751 31.5079-3.99246ZM27.047-19.8242L27.047-23.7152L14.2616-16.3689Q13.7283-16.0255 13.4132-16.2327Q13.0981-16.4398 13.0981-16.951L13.0981-53.0548Q13.0981-53.9864 13.3724-54.4209Q13.6467-54.8553 14.3768-55.3223L45.4376-73.2674Q45.9496-73.5764 46.3879-73.3624Q46.8262-73.1483 46.8262-72.4747L46.8262-57.5706L50.1587-59.1873L50.1587-73.4612Q50.1587-75.0961 49.2954-76.0647Q48.4322-77.0332 47.0608-77.1729Q45.6894-77.3125 44.1795-76.4572L12.8807-58.3519Q11.6798-57.6645 11.0069-56.9504Q10.334-56.2363 10.0498-55.3387Q9.76562-54.4411 9.76562-53.1227L9.76562-16.9609Q9.76562-14.8163 10.6201-13.7138Q11.4746-12.6114 12.8838-12.5526Q14.2929-12.4939 15.9843-13.4293Z"/>
  </g>
  <g id="Ultralight-S" transform="matrix(1 0 0 1 514.191 696)">
   <path d="M42.2455-34.0866L42.2455 2.63977Q42.2455 4.38766 42.9718 5.2475Q43.6981 6.10733 44.8349 6.14204Q45.9717 6.17676 47.2702 5.41763L78.7704-12.7617Q80.3024-13.6566 80.788-14.4394Q81.2737-15.2222 81.2737-16.8205L81.2737-54.1214Q81.2737-55.3322 80.5775-56.142Q79.8813-56.9519 78.7529-57.0965Q77.6245-57.2411 76.3-56.4362L44.6999-38.1767Q43.7523-37.5984 43.1953-37.0781Q42.6384-36.5578 42.4419-35.8513Q42.2455-35.1448 42.2455-34.0866ZM45.5986-36.1008L77.3415-54.509Q77.9457-54.837 78.4977-54.5803Q79.0497-54.3236 79.0497-53.4958L79.0497-16.8304Q79.0497-15.9309 78.7987-15.5445Q78.5477-15.1581 77.8397-14.7987L45.8626 3.70636Q45.1683 4.07639 44.7964 3.84445Q44.4244 3.61252 44.4244 3.00827L44.4244-34.066Q44.4244-34.8846 44.6823-35.2905Q44.9402-35.6964 45.5986-36.1008ZM43.4235-11.8141L43.4235-14.3585L29.0199-6.04553Q28.3699-5.67551 27.9999-5.92842Q27.6299-6.18134 27.6299-6.74057L27.6299-43.8599Q27.6299-44.6335 27.8633-45.0394Q28.0968-45.4453 28.801-45.8496L60.5438-64.257Q61.1481-64.6309 61.6997-64.3517Q62.2513-64.0724 62.2513-63.2904L62.2513-47.3724L64.431-48.5405L64.431-63.8695Q64.431-65.0803 63.7573-65.892Q63.0836-66.7038 61.9553-66.8468Q60.8269-66.9899 59.4604-66.1842L27.9022-47.9256Q26.9089-47.3503 26.3744-46.8285Q25.84-46.3066 25.6226-45.6017Q25.4051-44.8967 25.4051-43.8347L25.4051-7.10907Q25.4051-5.41 26.1299-4.52538Q26.8547-3.64075 28.0144-3.60641Q29.174-3.57208 30.4726-4.33044ZM26.6472-20.8496L26.6472-23.3971L13.3797-15.7745Q12.7342-15.3587 12.3623-15.612Q11.9904-15.8653 11.9904-16.4696L11.9904-53.5469Q11.9904-54.3655 12.2238-54.7489Q12.4573-55.1323 13.1157-55.5786L44.9043-73.9441Q45.5086-74.3141 46.0392-74.0593Q46.5698-73.8045 46.5698-72.9767L46.5698-57.386L48.7946-58.4496L48.7946-73.5535Q48.7946-74.7673 48.1209-75.5772Q47.4472-76.387 46.3173-76.532Q45.1874-76.6769 43.821-75.9132L12.2658-57.6546Q11.2694-57.0793 10.7349-56.535Q10.2005-55.9906 9.98306-55.3082Q9.76562-54.6257 9.76562-53.5637L9.76562-16.8381Q9.76562-15.0932 10.4919-14.2315Q11.2183-13.3698 12.3764-13.3369Q13.5345-13.3041 14.8361-14.0144Z"/>
  </g>
 </g>
</svg>
