<?xml version="1.0" encoding="UTF-8"?>
<!--Generator: Apple Native CoreSVG 175-->
<!DOCTYPE svg
PUBLIC "-//W3C//DTD SVG 1.1//EN"
       "http://www.w3.org/Graphics/SVG/1.1/DTD/svg11.dtd">
<svg version="1.1" xmlns="http://www.w3.org/2000/svg" xmlns:xlink="http://www.w3.org/1999/xlink" width="3300" height="2200">
 <!--glyph: "uni1002AF.medium", point size: 100.0, font version: "17.0d12e1", template writer version: "65.1"-->
 <g id="Notes">
  <rect height="2200" id="artboard" style="fill:white;opacity:1" width="3300" x="0" y="0"/>
  <line style="fill:none;stroke:black;opacity:1;stroke-width:0.5;" x1="263" x2="3036" y1="292" y2="292"/>
  <text style="stroke:none;fill:black;font-family:sans-serif;font-size:13;font-weight:bold;" transform="matrix(1 0 0 1 263 322)">Weight/Scale Variations</text>
  <text style="stroke:none;fill:black;font-family:sans-serif;font-size:13;text-anchor:middle;" transform="matrix(1 0 0 1 559.711 322)">Ultralight</text>
  <text style="stroke:none;fill:black;font-family:sans-serif;font-size:13;text-anchor:middle;" transform="matrix(1 0 0 1 856.422 322)">Thin</text>
  <text style="stroke:none;fill:black;font-family:sans-serif;font-size:13;text-anchor:middle;" transform="matrix(1 0 0 1 1153.13 322)">Light</text>
  <text style="stroke:none;fill:black;font-family:sans-serif;font-size:13;text-anchor:middle;" transform="matrix(1 0 0 1 1449.84 322)">Regular</text>
  <text style="stroke:none;fill:black;font-family:sans-serif;font-size:13;text-anchor:middle;" transform="matrix(1 0 0 1 1746.56 322)">Medium</text>
  <text style="stroke:none;fill:black;font-family:sans-serif;font-size:13;text-anchor:middle;" transform="matrix(1 0 0 1 2043.27 322)">Semibold</text>
  <text style="stroke:none;fill:black;font-family:sans-serif;font-size:13;text-anchor:middle;" transform="matrix(1 0 0 1 2339.98 322)">Bold</text>
  <text style="stroke:none;fill:black;font-family:sans-serif;font-size:13;text-anchor:middle;" transform="matrix(1 0 0 1 2636.69 322)">Heavy</text>
  <text style="stroke:none;fill:black;font-family:sans-serif;font-size:13;text-anchor:middle;" transform="matrix(1 0 0 1 2933.4 322)">Black</text>
  <line style="fill:none;stroke:black;opacity:1;stroke-width:0.5;" x1="263" x2="3036" y1="1903" y2="1903"/>
  <g transform="matrix(1 0 0 1 263 1933)">
   <path d="M9.24805 0.830078Q10.8691 0.830078 12.2949 0.214844Q13.7207-0.400391 14.8096-1.49414Q15.8984-2.58789 16.5186-4.01367Q17.1387-5.43945 17.1387-7.05078Q17.1387-8.66211 16.5186-10.0879Q15.8984-11.5137 14.8047-12.6074Q13.7109-13.7012 12.2852-14.3164Q10.8594-14.9316 9.23828-14.9316Q7.62695-14.9316 6.20117-14.3164Q4.77539-13.7012 3.69141-12.6074Q2.60742-11.5137 1.9873-10.0879Q1.36719-8.66211 1.36719-7.05078Q1.36719-5.43945 1.9873-4.01367Q2.60742-2.58789 3.69629-1.49414Q4.78516-0.400391 6.21094 0.214844Q7.63672 0.830078 9.24805 0.830078ZM9.24805-0.654297Q7.91992-0.654297 6.7627-1.14746Q5.60547-1.64062 4.73145-2.51953Q3.85742-3.39844 3.36426-4.56055Q2.87109-5.72266 2.87109-7.05078Q2.87109-8.37891 3.35938-9.54102Q3.84766-10.7031 4.72168-11.582Q5.5957-12.4609 6.75293-12.9541Q7.91016-13.4473 9.23828-13.4473Q10.5762-13.4473 11.7334-12.9541Q12.8906-12.4609 13.7695-11.582Q14.6484-10.7031 15.1465-9.54102Q15.6445-8.37891 15.6445-7.05078Q15.6445-5.72266 15.1514-4.56055Q14.6582-3.39844 13.7842-2.51953Q12.9102-1.64062 11.748-1.14746Q10.5859-0.654297 9.24805-0.654297ZM5.6543-7.05078Q5.6543-6.72852 5.85938-6.52832Q6.06445-6.32812 6.40625-6.32812L8.51562-6.32812L8.51562-4.20898Q8.51562-3.88672 8.71094-3.67676Q8.90625-3.4668 9.23828-3.4668Q9.56055-3.4668 9.77051-3.67676Q9.98047-3.88672 9.98047-4.20898L9.98047-6.32812L12.0898-6.32812Q12.4219-6.32812 12.627-6.52832Q12.832-6.72852 12.832-7.05078Q12.832-7.38281 12.627-7.58789Q12.4219-7.79297 12.0898-7.79297L9.98047-7.79297L9.98047-9.90234Q9.98047-10.2344 9.77051-10.4443Q9.56055-10.6543 9.23828-10.6543Q8.90625-10.6543 8.71094-10.4443Q8.51562-10.2344 8.51562-9.90234L8.51562-7.79297L6.40625-7.79297Q6.06445-7.79297 5.85938-7.58789Q5.6543-7.38281 5.6543-7.05078Z"/>
  </g>
  <g transform="matrix(1 0 0 1 281.867 1933)">
   <path d="M11.709 2.91016Q13.75 2.91016 15.5518 2.12891Q17.3535 1.34766 18.7305-0.0292969Q20.1074-1.40625 20.8887-3.20801Q21.6699-5.00977 21.6699-7.05078Q21.6699-9.0918 20.8887-10.8936Q20.1074-12.6953 18.7305-14.0723Q17.3535-15.4492 15.5469-16.2305Q13.7402-17.0117 11.6992-17.0117Q9.6582-17.0117 7.85645-16.2305Q6.05469-15.4492 4.68262-14.0723Q3.31055-12.6953 2.5293-10.8936Q1.74805-9.0918 1.74805-7.05078Q1.74805-5.00977 2.5293-3.20801Q3.31055-1.40625 4.6875-0.0292969Q6.06445 1.34766 7.86621 2.12891Q9.66797 2.91016 11.709 2.91016ZM11.709 1.25Q9.98047 1.25 8.47656 0.605469Q6.97266-0.0390625 5.83496-1.17676Q4.69727-2.31445 4.05762-3.81836Q3.41797-5.32227 3.41797-7.05078Q3.41797-8.7793 4.05762-10.2832Q4.69727-11.7871 5.83008-12.9297Q6.96289-14.0723 8.4668-14.7119Q9.9707-15.3516 11.6992-15.3516Q13.4277-15.3516 14.9316-14.7119Q16.4355-14.0723 17.5781-12.9297Q18.7207-11.7871 19.3652-10.2832Q20.0098-8.7793 20.0098-7.05078Q20.0098-5.32227 19.3701-3.81836Q18.7305-2.31445 17.5928-1.17676Q16.4551-0.0390625 14.9463 0.605469Q13.4375 1.25 11.709 1.25ZM7.17773-7.05078Q7.17773-6.69922 7.41211-6.47461Q7.64648-6.25 8.01758-6.25L10.8887-6.25L10.8887-3.36914Q10.8887-2.99805 11.1133-2.76855Q11.3379-2.53906 11.6895-2.53906Q12.0605-2.53906 12.29-2.76855Q12.5195-2.99805 12.5195-3.36914L12.5195-6.25L15.4004-6.25Q15.7715-6.25 16.001-6.47461Q16.2305-6.69922 16.2305-7.05078Q16.2305-7.42188 16.001-7.65137Q15.7715-7.88086 15.4004-7.88086L12.5195-7.88086L12.5195-10.752Q12.5195-11.1328 12.29-11.3623Q12.0605-11.5918 11.6895-11.5918Q11.3379-11.5918 11.1133-11.3574Q10.8887-11.123 10.8887-10.752L10.8887-7.88086L8.01758-7.88086Q7.63672-7.88086 7.40723-7.65137Q7.17773-7.42188 7.17773-7.05078Z"/>
  </g>
  <g transform="matrix(1 0 0 1 305.646 1933)">
   <path d="M14.9707 5.66406Q17.0605 5.66406 18.96 5.01465Q20.8594 4.36523 22.4512 3.19336Q24.043 2.02148 25.2197 0.429688Q26.3965-1.16211 27.0459-3.06641Q27.6953-4.9707 27.6953-7.05078Q27.6953-9.14062 27.0459-11.04Q26.3965-12.9395 25.2197-14.5312Q24.043-16.123 22.4512-17.2998Q20.8594-18.4766 18.9551-19.126Q17.0508-19.7754 14.9609-19.7754Q12.8711-19.7754 10.9717-19.126Q9.07227-18.4766 7.48535-17.2998Q5.89844-16.123 4.72168-14.5312Q3.54492-12.9395 2.90039-11.04Q2.25586-9.14062 2.25586-7.05078Q2.25586-4.9707 2.90527-3.06641Q3.55469-1.16211 4.72656 0.429688Q5.89844 2.02148 7.49023 3.19336Q9.08203 4.36523 10.9814 5.01465Q12.8809 5.66406 14.9707 5.66406ZM14.9707 3.84766Q13.1641 3.84766 11.5283 3.2959Q9.89258 2.74414 8.53516 1.74805Q7.17773 0.751953 6.17676-0.610352Q5.17578-1.97266 4.62891-3.6084Q4.08203-5.24414 4.08203-7.05078Q4.08203-8.86719 4.62891-10.5029Q5.17578-12.1387 6.17188-13.501Q7.16797-14.8633 8.52539-15.8594Q9.88281-16.8555 11.5186-17.4023Q13.1543-17.9492 14.9609-17.9492Q16.7773-17.9492 18.4131-17.4023Q20.0488-16.8555 21.4111-15.8594Q22.7734-14.8633 23.7695-13.501Q24.7656-12.1387 25.3174-10.5029Q25.8691-8.86719 25.8691-7.05078Q25.8789-5.24414 25.332-3.6084Q24.7852-1.97266 23.7842-0.610352Q22.7832 0.751953 21.4209 1.74805Q20.0586 2.74414 18.4229 3.2959Q16.7871 3.84766 14.9707 3.84766ZM9.19922-7.05078Q9.19922-6.66992 9.45801-6.4209Q9.7168-6.17188 10.1172-6.17188L14.0625-6.17188L14.0625-2.2168Q14.0625-1.81641 14.3115-1.55762Q14.5605-1.29883 14.9512-1.29883Q15.3516-1.29883 15.6104-1.55273Q15.8691-1.80664 15.8691-2.2168L15.8691-6.17188L19.8242-6.17188Q20.2246-6.17188 20.4785-6.4209Q20.7324-6.66992 20.7324-7.05078Q20.7324-7.46094 20.4785-7.71484Q20.2246-7.96875 19.8242-7.96875L15.8691-7.96875L15.8691-11.9141Q15.8691-12.3242 15.6104-12.583Q15.3516-12.8418 14.9512-12.8418Q14.5605-12.8418 14.3115-12.583Q14.0625-12.3242 14.0625-11.9141L14.0625-7.96875L10.1172-7.96875Q9.70703-7.96875 9.45312-7.71484Q9.19922-7.46094 9.19922-7.05078Z"/>
  </g>
  <text style="stroke:none;fill:black;font-family:sans-serif;font-size:13;font-weight:bold;" transform="matrix(1 0 0 1 263 1953)">Design Variations</text>
  <text style="stroke:none;fill:black;font-family:sans-serif;font-size:13;" transform="matrix(1 0 0 1 263 1971)">Symbols are supported in up to nine weights and three scales.</text>
  <text style="stroke:none;fill:black;font-family:sans-serif;font-size:13;" transform="matrix(1 0 0 1 263 1989)">For optimal layout with text and other symbols, vertically align</text>
  <text style="stroke:none;fill:black;font-family:sans-serif;font-size:13;" transform="matrix(1 0 0 1 263 2007)">symbols with the adjacent text.</text>
  <line style="fill:none;stroke:#00AEEF;stroke-width:0.5;opacity:1.0;" x1="776" x2="776" y1="1919" y2="1933"/>
  <g transform="matrix(1 0 0 1 776 1933)">
   <path d="M3.31055 0.15625Q3.70117 0.15625 3.91602-0.00976562Q4.13086-0.175781 4.26758-0.585938L5.52734-4.0332L11.2891-4.0332L12.5488-0.585938Q12.6855-0.175781 12.9004-0.00976562Q13.1152 0.15625 13.4961 0.15625Q13.8867 0.15625 14.1162-0.0585938Q14.3457-0.273438 14.3457-0.644531Q14.3457-0.869141 14.2383-1.17188L9.6582-13.3691Q9.48242-13.8184 9.17969-14.043Q8.87695-14.2676 8.4082-14.2676Q7.5-14.2676 7.17773-13.3789L2.59766-1.16211Q2.49023-0.859375 2.49023-0.634766Q2.49023-0.263672 2.70996-0.0537109Q2.92969 0.15625 3.31055 0.15625ZM6.00586-5.51758L8.37891-12.0898L8.42773-12.0898L10.8008-5.51758Z"/>
  </g>
  <line style="fill:none;stroke:#00AEEF;stroke-width:0.5;opacity:1.0;" x1="793.197" x2="793.197" y1="1919" y2="1933"/>
  <text style="stroke:none;fill:black;font-family:sans-serif;font-size:13;font-weight:bold;" transform="matrix(1 0 0 1 776 1953)">Margins</text>
  <text style="stroke:none;fill:black;font-family:sans-serif;font-size:13;" transform="matrix(1 0 0 1 776 1971)">Leading and trailing margins on the left and right side of each symbol</text>
  <text style="stroke:none;fill:black;font-family:sans-serif;font-size:13;" transform="matrix(1 0 0 1 776 1989)">can be adjusted by modifying the x-location of the margin guidelines.</text>
  <text style="stroke:none;fill:black;font-family:sans-serif;font-size:13;" transform="matrix(1 0 0 1 776 2007)">Modifications are automatically applied proportionally to all</text>
  <text style="stroke:none;fill:black;font-family:sans-serif;font-size:13;" transform="matrix(1 0 0 1 776 2025)">scales and weights.</text>
  <g transform="matrix(1 0 0 1 1289 1933)">
   <path d="M2.8418 1.86523L4.54102 3.57422Q5.18555 4.22852 5.90332 4.17969Q6.62109 4.13086 7.31445 3.35938L18.0078-8.42773L17.041-9.4043L6.42578 2.27539Q6.16211 2.57812 5.89355 2.61719Q5.625 2.65625 5.27344 2.30469L4.10156 1.14258Q3.75 0.791016 3.79395 0.522461Q3.83789 0.253906 4.14062-0.0195312L15.6152-10.8203L14.6387-11.7871L3.04688-0.898438Q2.30469-0.214844 2.25098 0.498047Q2.19727 1.21094 2.8418 1.86523ZM9.25781-16.3281Q8.94531-16.0254 8.90625-15.6348Q8.86719-15.2441 9.04297-14.9512Q9.21875-14.6777 9.55566-14.541Q9.89258-14.4043 10.3809-14.5215Q11.4746-14.7754 12.5977-14.7314Q13.7207-14.6875 14.7949-13.9844L14.209-12.5293Q13.9551-11.9043 14.0674-11.4404Q14.1797-10.9766 14.5801-10.5664L16.875-8.25195Q17.2363-7.88086 17.5781-7.82227Q17.9199-7.76367 18.3398-7.8418L19.4043-8.03711L20.0684-7.36328L20.0293-6.80664Q20-6.43555 20.1221-6.12305Q20.2441-5.81055 20.6055-5.44922L21.3672-4.70703Q21.7285-4.3457 22.1533-4.33105Q22.5781-4.31641 22.9297-4.66797L25.8398-7.58789Q26.1914-7.93945 26.1816-8.35449Q26.1719-8.76953 25.8105-9.13086L25.0391-9.89258Q24.6875-10.2539 24.3799-10.3857Q24.0723-10.5176 23.7109-10.4883L23.1348-10.4395L22.4902-11.0742L22.7344-12.1973Q22.832-12.6172 22.6953-12.9834Q22.5586-13.3496 22.1191-13.7891L19.9219-15.9766Q18.6719-17.2168 17.2607-17.8369Q15.8496-18.457 14.4189-18.4814Q12.9883-18.5059 11.665-17.959Q10.3418-17.4121 9.25781-16.3281ZM10.752-15.957Q11.6602-16.6211 12.7002-16.9043Q13.7402-17.1875 14.8047-17.085Q15.8691-16.9824 16.8701-16.5137Q17.8711-16.0449 18.7012-15.2051L21.1328-12.793Q21.3086-12.6172 21.3525-12.4512Q21.3965-12.2852 21.3379-12.0312L21.0156-10.5469L22.5195-9.0625L23.5059-9.12109Q23.6914-9.13086 23.7891-9.09668Q23.8867-9.0625 24.0332-8.91602L24.6094-8.33984L22.168-5.89844L21.5918-6.47461Q21.4453-6.62109 21.4062-6.71875Q21.3672-6.81641 21.377-7.01172L21.4453-7.98828L19.9512-9.47266L18.4277-9.21875Q18.1836-9.16992 18.042-9.2041Q17.9004-9.23828 17.7148-9.41406L15.7129-11.416Q15.5176-11.5918 15.4932-11.7529Q15.4688-11.9141 15.5859-12.1875L16.4648-14.2773Q15.293-15.3711 13.8281-15.791Q12.3633-16.2109 10.8398-15.7617Q10.7227-15.7324 10.6885-15.8057Q10.6543-15.8789 10.752-15.957Z"/>
  </g>
  <text style="stroke:none;fill:black;font-family:sans-serif;font-size:13;font-weight:bold;" transform="matrix(1 0 0 1 1289 1953)">Exporting</text>
  <text style="stroke:none;fill:black;font-family:sans-serif;font-size:13;" transform="matrix(1 0 0 1 1289 1971)">Symbols should be outlined when exporting to ensure the</text>
  <text style="stroke:none;fill:black;font-family:sans-serif;font-size:13;" transform="matrix(1 0 0 1 1289 1989)">design is preserved when submitting to Xcode.</text>
  <text id="template-version" style="stroke:none;fill:black;font-family:sans-serif;font-size:13;text-anchor:end;" transform="matrix(1 0 0 1 3036 1933)">Template v.3.0</text>
  <text style="stroke:none;fill:black;font-family:sans-serif;font-size:13;text-anchor:end;" transform="matrix(1 0 0 1 3036 1951)">Requires Xcode 13 or greater</text>
  <text id="descriptive-name" style="stroke:none;fill:black;font-family:sans-serif;font-size:13;text-anchor:end;" transform="matrix(1 0 0 1 3036 1969)">Generated from arrow.triangle.2.circlepath</text>
  <text style="stroke:none;fill:black;font-family:sans-serif;font-size:13;text-anchor:end;" transform="matrix(1 0 0 1 3036 1987)">Typeset at 100 points</text>
  <text style="stroke:none;fill:black;font-family:sans-serif;font-size:13;" transform="matrix(1 0 0 1 263 726)">Small</text>
  <text style="stroke:none;fill:black;font-family:sans-serif;font-size:13;" transform="matrix(1 0 0 1 263 1156)">Medium</text>
  <text style="stroke:none;fill:black;font-family:sans-serif;font-size:13;" transform="matrix(1 0 0 1 263 1586)">Large</text>
 </g>
 <g id="Guides">
  <g id="H-reference" style="fill:#27AAE1;stroke:none;" transform="matrix(1 0 0 1 339 696)">
   <path d="M0.993347 0L3.6377 0L29.3282-67.1326L30.0301-67.1326L30.0301-70.459L28.1227-70.459ZM11.6882-24.4797L46.9818-24.4797L46.2311-26.7288L12.4382-26.7288ZM55.1193 0L57.7637 0L30.6381-70.459L29.4327-70.459L29.4327-67.1326Z"/>
  </g>
  <line id="Baseline-S" style="fill:none;stroke:#27AAE1;opacity:1;stroke-width:0.5;" x1="263" x2="3036" y1="696" y2="696"/>
  <line id="Capline-S" style="fill:none;stroke:#27AAE1;opacity:1;stroke-width:0.5;" x1="263" x2="3036" y1="625.541" y2="625.541"/>
  <g id="H-reference" style="fill:#27AAE1;stroke:none;" transform="matrix(1 0 0 1 339 1126)">
   <path d="M0.993347 0L3.6377 0L29.3282-67.1326L30.0301-67.1326L30.0301-70.459L28.1227-70.459ZM11.6882-24.4797L46.9818-24.4797L46.2311-26.7288L12.4382-26.7288ZM55.1193 0L57.7637 0L30.6381-70.459L29.4327-70.459L29.4327-67.1326Z"/>
  </g>
  <line id="Baseline-M" style="fill:none;stroke:#27AAE1;opacity:1;stroke-width:0.5;" x1="263" x2="3036" y1="1126" y2="1126"/>
  <line id="Capline-M" style="fill:none;stroke:#27AAE1;opacity:1;stroke-width:0.5;" x1="263" x2="3036" y1="1055.54" y2="1055.54"/>
  <g id="H-reference" style="fill:#27AAE1;stroke:none;" transform="matrix(1 0 0 1 339 1556)">
   <path d="M0.993347 0L3.6377 0L29.3282-67.1326L30.0301-67.1326L30.0301-70.459L28.1227-70.459ZM11.6882-24.4797L46.9818-24.4797L46.2311-26.7288L12.4382-26.7288ZM55.1193 0L57.7637 0L30.6381-70.459L29.4327-70.459L29.4327-67.1326Z"/>
  </g>
  <line id="Baseline-L" style="fill:none;stroke:#27AAE1;opacity:1;stroke-width:0.5;" x1="263" x2="3036" y1="1556" y2="1556"/>
  <line id="Capline-L" style="fill:none;stroke:#27AAE1;opacity:1;stroke-width:0.5;" x1="263" x2="3036" y1="1485.54" y2="1485.54"/>
  <line id="left-margin-Regular-M" style="fill:none;stroke:#00AEEF;stroke-width:0.5;opacity:1.0;" x1="1381.44" x2="1381.44" y1="1030.79" y2="1150.12"/>
  <line id="right-margin-Regular-M" style="fill:none;stroke:#00AEEF;stroke-width:0.5;opacity:1.0;" x1="1518.25" x2="1518.25" y1="1030.79" y2="1150.12"/>
 </g>
 <g id="Symbols">
  <g id="Black-L" transform="matrix(1 0 0 1 2839.14 1556)">
   <path d="M13.3301-35.4004Q11.377-32.7637 11.2305-30.2979Q11.084-27.832 12.6465-26.2695Q14.209-24.707 17.2852-24.707L26.8066-24.707Q28.2227-15.2344 32.2998-6.61621Q36.377 2.00195 42.627 9.2041Q48.877 16.4062 56.9336 21.7041Q64.9902 27.002 74.4629 29.9316Q83.9355 32.8613 94.3848 32.8613Q102.588 32.8613 110.205 30.9082Q117.822 28.9551 124.536 25.4395Q131.25 21.9238 136.768 17.2363Q140.723 14.0625 141.187 9.96094Q141.65 5.85938 139.6 2.88086Q137.305-0.390625 133.13-1.2207Q128.955-2.05078 124.072 1.5625Q120.117 4.88281 115.381 7.32422Q110.645 9.76562 105.347 11.084Q100.049 12.4023 94.3848 12.4023Q85.498 12.4023 77.7344 9.52148Q69.9707 6.64062 63.7939 1.53809Q57.6172-3.56445 53.4668-10.3027Q49.3164-17.041 47.6074-24.707L57.2266-24.707Q60.2051-24.707 61.7676-26.2695Q63.3301-27.832 63.2324-30.2734Q63.1348-32.7148 61.1328-35.4004L42.9688-60.2051Q40.625-63.4277 37.2559-63.3789Q33.8867-63.3301 31.5918-60.2051ZM51.9531-87.6953Q47.998-84.5215 47.5342-80.4443Q47.0703-76.3672 49.1699-73.3398Q51.4648-70.0684 55.6396-69.2383Q59.8145-68.4082 64.6973-72.0215Q68.6523-75.3418 73.4131-77.7588Q78.1738-80.1758 83.4473-81.4941Q88.7207-82.8125 94.3848-82.8125Q103.223-82.8125 110.986-79.9316Q118.75-77.0508 124.927-71.9482Q131.104-66.8457 135.278-60.1074Q139.453-53.3691 141.113-45.7031L131.299-45.7031Q128.271-45.7031 126.709-44.165Q125.146-42.627 125.269-40.1611Q125.391-37.6953 127.344-35.0098L145.557-10.2051Q147.9-6.98242 151.245-7.03125Q154.59-7.08008 156.934-10.2051L175.195-35.0098Q177.148-37.6953 177.271-40.1367Q177.393-42.5781 175.854-44.1406Q174.316-45.7031 171.24-45.7031L161.963-45.7031Q160.547-55.1758 156.47-63.7939Q152.393-72.4121 146.118-79.6143Q139.844-86.8164 131.787-92.1143Q123.73-97.4121 114.258-100.342Q104.785-103.271 94.3848-103.271Q86.1816-103.271 78.5645-101.343Q70.9473-99.4141 64.2334-95.8984Q57.5195-92.3828 51.9531-87.6953Z"/>
  </g>
  <g id="Heavy-L" transform="matrix(1 0 0 1 2544 1556)">
   <path d="M13.1111-35.3546Q11.3541-32.9597 11.2305-30.759Q11.1069-28.5583 12.5427-27.1744Q13.9786-25.7904 16.8015-25.7904L26.2192-25.7904Q27.52-16.2834 31.4991-7.65343Q35.4782 0.976562 41.6416 8.17871Q47.805 15.3809 55.7755 20.673Q63.7459 25.9651 73.1091 28.883Q82.4722 31.8008 92.7826 31.8008Q101.332 31.8008 109.243 29.652Q117.154 27.5032 124.075 23.613Q130.997 19.7227 136.594 14.505Q139.962 11.6768 140.276 8.09402Q140.59 4.51126 138.666 1.97067Q136.533-0.79422 132.934-1.35345Q129.335-1.91269 125.294 1.20544Q121.097 5.12466 115.945 8.00972Q110.794 10.8948 104.943 12.4611Q99.0921 14.0274 92.7826 14.0274Q83.493 14.0274 75.3605 10.9505Q67.2279 7.87354 60.7861 2.41394Q54.3442-3.04565 50.0957-10.2795Q45.8473-17.5133 44.2886-25.7904L54.023-25.7904Q56.7589-25.7904 58.1947-27.1744Q59.6306-28.5583 59.5501-30.7404Q59.4696-32.9224 57.6752-35.3424L40.5258-58.9607Q38.4125-61.8835 35.4122-61.8519Q32.412-61.8202 30.336-58.9607ZM48.9449-84.964Q45.5666-82.1358 45.2522-78.5774Q44.9379-75.0191 46.9109-72.4411Q49.0334-69.6762 52.6375-69.1113Q56.2416-68.5463 60.2837-71.6644Q64.4806-75.5836 69.656-78.45Q74.8314-81.3164 80.6583-82.877Q86.4853-84.4376 92.7826-84.4376Q102.024-84.4376 110.162-81.3606Q118.301-78.2837 124.743-72.8241Q131.184-67.3645 135.451-60.1307Q139.718-52.8969 141.24-44.6198L131.357-44.6198Q128.571-44.6198 127.141-43.2545Q125.711-41.8892 125.81-39.6885Q125.909-37.4878 127.666-35.0677L144.854-11.4494Q146.967-8.52661 149.943-8.55827Q152.919-8.58994 155.044-11.4494L172.268-35.0555Q174.025-37.4878 174.124-39.6698Q174.223-41.8518 172.812-43.2358Q171.4-44.6198 168.578-44.6198L159.347-44.6198Q158.046-54.1267 154.067-62.7567Q150.088-71.3867 143.906-78.5889Q137.724-85.791 129.753-91.0831Q121.783-96.3753 112.414-99.2931Q103.045-102.211 92.7826-102.211Q84.2453-102.211 76.3344-100.081Q68.4235-97.9507 61.5021-94.0662Q54.5807-90.1817 48.9449-84.964Z"/>
  </g>
  <g id="Bold-L" transform="matrix(1 0 0 1 2249.05 1556)">
   <path d="M12.8662-35.3027Q11.3281-33.1787 11.2305-31.2744Q11.1328-29.3701 12.4268-28.186Q13.7207-27.002 16.2598-27.002L25.5615-27.002Q26.7334-17.4561 30.603-8.81348Q34.4727-0.170898 40.5396 7.03125Q46.6064 14.2334 54.48 19.519Q62.3535 24.8047 71.5942 27.71Q80.835 30.6152 90.9912 30.6152Q99.9268 30.6152 108.167 28.2471Q116.406 25.8789 123.56 21.5698Q130.713 17.2607 136.401 11.4502Q139.111 9.00879 139.258 6.00586Q139.404 3.00293 137.622 0.952148Q135.669-1.24512 132.715-1.50146Q129.761-1.75781 126.66 0.805664Q122.192 5.39551 116.577 8.77686Q110.962 12.1582 104.492 14.0015Q98.0225 15.8447 90.9912 15.8447Q81.25 15.8447 72.7051 12.5488Q64.1602 9.25293 57.4219 3.39355Q50.6836-2.46582 46.3257-10.2539Q41.9678-18.042 40.5762-27.002L50.4395-27.002Q52.9053-27.002 54.1992-28.186Q55.4932-29.3701 55.4321-31.2622Q55.3711-33.1543 53.8086-35.2783L37.793-57.5684Q35.9375-60.1562 33.3496-60.144Q30.7617-60.1318 28.9307-57.5684ZM45.5811-81.9092Q42.8467-79.4678 42.7002-76.4893Q42.5537-73.5107 44.3848-71.4355Q46.3135-69.2383 49.2798-68.9697Q52.2461-68.7012 55.3467-71.2646Q59.8145-75.8545 65.4541-79.2236Q71.0938-82.5928 77.5391-84.4238Q83.9844-86.2549 90.9912-86.2549Q100.684-86.2549 109.241-82.959Q117.798-79.6631 124.536-73.8037Q131.274-67.9443 135.645-60.1562Q140.015-52.3682 141.382-43.4082L131.421-43.4082Q128.906-43.4082 127.625-42.2363Q126.343-41.0645 126.416-39.1602Q126.489-37.2559 128.027-35.1318L144.067-12.8418Q145.923-10.2539 148.486-10.2661Q151.05-10.2783 152.93-12.8418L168.994-35.1074Q170.532-37.2559 170.605-39.1479Q170.679-41.04 169.409-42.2241Q168.14-43.4082 165.601-43.4082L156.421-43.4082Q155.249-52.9541 151.379-61.5967Q147.51-70.2393 141.431-77.4414Q135.352-84.6436 127.478-89.9292Q119.604-95.2148 110.352-98.1201Q101.099-101.025 90.9912-101.025Q82.0801-101.025 73.8403-98.6694Q65.6006-96.3135 58.4473-92.0166Q51.2939-87.7197 45.5811-81.9092Z"/>
  </g>
  <g id="Semibold-L" transform="matrix(1 0 0 1 1953.55 1556)">
   <path d="M12.6976-35.2669Q11.3106-33.3298 11.2305-31.6299Q11.1504-29.9301 12.3466-28.8837Q13.5429-27.8374 15.8867-27.8374L25.1083-27.8374Q26.1909-18.2648 29.985-9.61342Q33.7791-0.962067 39.7797 6.24008Q45.7802 13.4422 53.587 18.7237Q61.3937 24.0051 70.5502 26.9012Q79.7066 29.7974 89.756 29.7974Q98.9578 29.7974 107.424 27.2781Q115.891 24.7589 123.204 20.1611Q130.518 15.5632 136.268 9.34372Q138.525 7.16934 138.556 4.56619Q138.586 1.96304 136.902 0.250244Q135.074-1.5564 132.564-1.6037Q130.054-1.651 127.602 0.530243Q122.948 5.58243 117.012 9.30595Q111.077 13.0295 104.181 15.0635Q97.2847 17.0975 89.756 17.0975Q79.7035 17.0975 70.8744 13.6505Q62.0453 10.2036 55.1025 4.06876Q48.1598-2.06604 43.7263-10.2364Q39.2929-18.4067 38.0165-27.8374L47.9691-27.8374Q50.248-27.8374 51.4442-28.8837Q52.6405-29.9301 52.5928-31.6223Q52.5452-33.3145 51.1421-35.2341L35.9093-56.6086Q34.2316-58.9653 31.9279-58.9664Q29.6242-58.9676 27.9617-56.6086ZM43.2617-79.8027Q40.9714-77.6283 40.9405-75.0496Q40.9096-72.4709 42.643-70.742Q44.4382-68.9362 46.9646-68.8721Q49.4911-68.808 51.9432-70.9892Q56.5971-76.0414 62.5568-79.7569Q68.5165-83.4724 75.3883-85.49Q82.2601-87.5076 89.756-87.5076Q99.7597-87.5076 108.606-84.0607Q117.451-80.6137 124.394-74.4789Q131.337-68.3441 135.778-60.1738Q140.219-52.0035 141.479-42.5728L131.465-42.5728Q129.137-42.5728 127.958-41.5344Q126.778-40.4961 126.834-38.7959Q126.889-37.0956 128.276-35.1761L143.525-13.8016Q145.203-11.4449 147.482-11.4437Q149.761-11.4426 151.472-13.8016L166.737-35.1433Q168.124-37.0956 168.179-38.7878Q168.235-40.48 167.063-41.5264Q165.891-42.5728 163.548-42.5728L154.404-42.5728Q153.32-52.1454 149.526-60.7967Q145.732-69.4481 139.724-76.6502Q133.717-83.8524 125.909-89.1338Q118.102-94.4153 108.929-97.3114Q99.7566-100.208 89.756-100.208Q80.587-100.208 72.1207-97.6963Q63.6543-95.1851 56.3412-90.6036Q49.028-86.0222 43.2617-79.8027Z"/>
  </g>
  <g id="Medium-L" transform="matrix(1 0 0 1 1657.76 1556)">
   <path d="M12.5694-35.2402Q11.2968-33.4442 11.2305-31.8993Q11.1641-30.3543 12.286-29.4125Q13.4079-28.4706 15.6036-28.4706L24.7643-28.4706Q25.7805-18.8782 29.5174-10.22Q33.2542-1.56174 39.2036 5.64041Q45.153 12.8426 52.9095 18.1206Q60.6659 23.3986 69.7582 26.2882Q78.8506 29.1779 88.8191 29.1779Q98.2239 29.1779 106.862 26.5438Q115.5 23.9098 122.934 19.0929Q130.369 14.2761 136.167 7.74689Q138.08 5.77469 138.023 3.47481Q137.967 1.17493 136.356-0.282288Q134.622-1.79214 132.449-1.68114Q130.276-1.57013 128.316 0.321198Q123.521 5.72357 117.343 9.7065Q111.165 13.6894 103.945 15.8688Q96.7255 18.0481 88.8191 18.0481Q78.5309 18.0481 69.4862 14.4863Q60.4416 10.9245 53.344 4.58107Q46.2463-1.76239 41.7553-10.2226Q37.2643-18.6829 36.0764-28.4706L46.0953-28.4706Q48.233-28.4706 49.3553-29.4125Q50.4776-30.3543 50.4398-31.8951Q50.4021-33.4358 49.1211-35.2005L34.4803-55.8807Q32.9376-58.0627 30.8498-58.0738Q28.7621-58.0849 27.2278-55.8807ZM41.5031-78.2059Q39.55-76.2337 39.6065-73.9582Q39.6629-71.6827 41.3223-70.2171Q43.0168-68.7073 45.2095-68.7981Q47.4022-68.8889 49.3622-70.7802Q54.158-76.1826 60.3603-80.1613Q66.5627-84.14 73.7579-86.2991Q80.9532-88.4583 88.8191-88.4583Q99.0585-88.4583 108.123-84.8965Q117.188-81.3347 124.286-74.9912Q131.384-68.6478 135.879-60.1875Q140.374-51.7273 141.553-41.9395L131.499-41.9395Q129.313-41.9395 128.211-41.0019Q127.109-40.0642 127.151-38.5193Q127.193-36.9743 128.465-35.2097L143.114-14.5294Q144.657-12.3474 146.721-12.3363Q148.784-12.3253 150.367-14.5294L165.025-35.17Q166.298-36.9743 166.34-38.5151Q166.382-40.0558 165.284-40.9977Q164.186-41.9395 161.991-41.9395L152.874-41.9395Q151.859-51.532 148.122-60.1902Q144.385-68.8484 138.431-76.0506Q132.477-83.2527 124.72-88.5307Q116.964-93.8087 107.851-96.6984Q98.7389-99.588 88.8191-99.588Q79.4548-99.588 70.8168-96.9585Q62.1788-94.3291 54.744-89.5321Q47.3091-84.7351 41.5031-78.2059Z"/>
  </g>
  <g id="Regular-L" transform="matrix(1 0 0 1 1362.25 1556)">
   <path d="M12.4023-35.2051Q11.2793-33.5938 11.2305-32.251Q11.1816-30.9082 12.207-30.1025Q13.2324-29.2969 15.2344-29.2969L24.3164-29.2969Q25.2441-19.6777 28.9062-11.0107Q32.5684-2.34375 38.4521 4.8584Q44.3359 12.0605 52.0264 17.334Q59.7168 22.6074 68.7256 25.4883Q77.7344 28.3691 87.5977 28.3691Q97.2656 28.3691 106.128 25.5859Q114.99 22.8027 122.583 17.7002Q130.176 12.5977 136.035 5.66406Q137.5 3.95508 137.329 2.05078Q137.158 0.146484 135.645-0.976562Q134.033-2.09961 132.3-1.78223Q130.566-1.46484 129.248 0.0488281Q124.268 5.9082 117.773 10.2295Q111.279 14.5508 103.638 16.9189Q95.9961 19.2871 87.5977 19.2871Q77.002 19.2871 67.6758 15.5762Q58.3496 11.8652 51.0498 5.24902Q43.75-1.36719 39.1846-10.2051Q34.6191-19.043 33.5449-29.2969L43.6523-29.2969Q45.6055-29.2969 46.6309-30.1025Q47.6562-30.9082 47.6318-32.251Q47.6074-33.5938 46.4844-35.1562L32.6172-54.9316Q31.25-56.8848 29.4434-56.9092Q27.6367-56.9336 26.2695-54.9316ZM39.209-76.123Q37.6953-74.4141 37.8662-72.5342Q38.0371-70.6543 39.5996-69.5312Q41.1621-68.4082 42.9199-68.7012Q44.6777-68.9941 45.9961-70.5078Q50.9766-76.3672 57.4951-80.6885Q64.0137-85.0098 71.6309-87.3535Q79.248-89.6973 87.5977-89.6973Q98.1445-89.6973 107.495-85.9863Q116.846-82.2754 124.146-75.6592Q131.445-69.043 136.011-60.2051Q140.576-51.3672 141.65-41.1133L131.543-41.1133Q129.541-41.1133 128.54-40.3076Q127.539-39.502 127.563-38.1592Q127.588-36.8164 128.711-35.2539L142.578-15.4785Q143.945-13.5254 145.728-13.501Q147.51-13.4766 148.926-15.4785L162.793-35.2051Q163.916-36.8164 163.94-38.1592Q163.965-39.502 162.964-40.3076Q161.963-41.1133 159.961-41.1133L150.879-41.1133Q149.951-50.7324 146.289-59.3994Q142.627-68.0664 136.743-75.2686Q130.859-82.4707 123.169-87.7441Q115.479-93.0176 106.445-95.8984Q97.4121-98.7793 87.5977-98.7793Q77.9785-98.7793 69.1162-95.9961Q60.2539-93.2129 52.6611-88.1348Q45.0684-83.0566 39.209-76.123Z"/>
  </g>
  <g id="Light-L" transform="matrix(1 0 0 1 1066.47 1556)">
   <path d="M12.2208-35.3561Q11.264-33.9722 11.2305-32.8487Q11.1969-31.7253 12.0483-31.0558Q12.8998-30.3864 14.5378-30.3864L24.2104-30.3864Q24.9718-20.7527 28.5053-12.0552Q32.0389-3.3577 37.8319 3.86696Q43.6249 11.0916 51.247 16.3879Q58.8692 21.6843 67.8478 24.5876Q76.8265 27.491 86.6592 27.491Q96.3875 27.491 105.265 24.6475Q114.143 21.804 121.712 16.6103Q129.282 11.4166 135.066 4.37775Q136.137 3.09219 136.005 1.66473Q135.872 0.237274 134.721-0.628662Q133.504-1.49384 132.187-1.25237Q130.869-1.01089 129.884 0.139618Q124.767 6.36215 118.039 10.9558Q111.31 15.5495 103.358 18.0767Q95.4056 20.6039 86.6592 20.6039Q75.6851 20.6039 66.0259 16.6885Q56.3667 12.7731 48.84 5.80902Q41.3132-1.15509 36.7023-10.4168Q32.0915-19.6785 31.1989-30.3864L42.366-30.3864Q43.9705-30.3864 44.8219-31.0558Q45.6734-31.7253 45.6566-32.8564Q45.6398-33.9874 44.6831-35.3226L31.134-54.6745Q29.9637-56.3553 28.4519-56.3644Q26.9402-56.3736 25.7698-54.6745ZM38.2858-74.7459Q37.1803-73.4604 37.3135-72.0497Q37.4466-70.639 38.6307-69.7731Q39.7995-68.9079 41.1411-69.1326Q42.4828-69.3573 43.4685-70.5078Q48.5695-76.7303 55.323-81.324Q62.0766-85.9177 70.0115-88.4281Q77.9465-90.9386 86.6592-90.9386Q97.5998-90.9386 107.283-87.0232Q116.967-83.1078 124.486-76.1436Q132.005-69.1795 136.624-59.9178Q141.242-50.6561 142.12-39.9475L130.952-39.9475Q129.329-39.9475 128.487-39.278Q127.645-38.6086 127.662-37.4855Q127.679-36.3625 128.635-35.0121L142.2-15.6601Q143.37-13.9946 144.857-13.9778Q146.344-13.961 147.549-15.6601L161.098-34.993Q162.054-36.3625 162.071-37.4855Q162.088-38.6086 161.253-39.278Q160.419-39.9475 158.781-39.9475L149.108-39.9475Q148.347-49.5819 144.813-58.2794Q141.28-66.9769 135.487-74.2016Q129.694-81.4262 122.071-86.7298Q114.449-92.0334 105.462-94.9295Q96.4737-97.8256 86.6592-97.8256Q76.9646-97.8256 68.087-94.9818Q59.2094-92.1379 51.6396-86.9614Q44.0697-81.7848 38.2858-74.7459Z"/>
  </g>
  <g id="Thin-L" transform="matrix(1 0 0 1 771.004 1556)">
   <path d="M11.9804-35.5568Q11.2442-34.4727 11.2305-33.6395Q11.2167-32.8064 11.8378-32.3174Q12.4588-31.8283 13.6169-31.8283L24.07-31.8283Q24.6117-22.1741 27.9747-13.4365Q31.3377-4.69894 37.0106 2.55585Q42.6834 9.81064 50.2159 15.1367Q57.7484 20.4628 66.6866 23.3963Q75.6248 26.3298 85.4179 26.3298Q95.2263 26.3298 104.124 23.4062Q113.022 20.4826 120.562 15.1691Q128.101 9.85565 133.785 2.67563Q134.336 1.9516 134.253 1.15433Q134.17 0.357056 133.5-0.167847Q132.803-0.693512 132.036-0.551987Q131.27-0.410461 130.724 0.259399Q125.428 6.96259 118.389 11.9167Q111.349 16.8709 102.987 19.6083Q94.6251 22.3457 85.4179 22.3457Q73.9433 22.3457 63.8439 18.1602Q53.7445 13.9748 45.9171 6.54984Q38.0898-0.875092 33.419-10.6972Q28.7483-20.5193 28.096-31.8283L40.6639-31.8283Q41.8091-31.8283 42.4301-32.3174Q43.0511-32.8064 43.0443-33.6571Q43.0374-34.5078 42.3012-35.5431L29.1718-54.3343Q28.2616-55.6541 27.1404-55.6435Q26.0193-55.6328 25.1091-54.3343ZM37.0644-72.924Q36.4998-72.1992 36.5829-71.4092Q36.6661-70.6192 37.3497-70.0935Q37.9982-69.5686 38.7894-69.7033Q39.5805-69.838 40.1253-70.5078Q45.3873-77.211 52.4506-82.1651Q59.5139-87.1193 67.8692-89.8495Q76.2245-92.5797 85.4179-92.5797Q96.8788-92.5797 107.003-88.3942Q117.127-84.2087 124.937-76.7841Q132.746-69.3596 137.434-59.5371Q142.123-49.7147 142.74-38.4064L130.172-38.4064Q129.049-38.4064 128.417-37.9169Q127.785-37.4275 127.792-36.5948Q127.798-35.762 128.535-34.6916L141.699-15.9004Q142.609-14.6149 143.706-14.6084Q144.803-14.6019 145.727-15.9004L158.855-34.713Q159.592-35.762 159.599-36.5948Q159.605-37.4275 158.991-37.9169Q158.377-38.4064 157.219-38.4064L146.766-38.4064Q146.225-48.0606 142.862-56.7978Q139.498-65.535 133.825-72.7901Q128.152-80.0453 120.62-85.3889Q113.088-90.7326 104.16-93.6485Q95.2324-96.5645 85.4179-96.5645Q75.6233-96.5645 66.7259-93.6405Q57.8285-90.7166 50.2884-85.4099Q42.7483-80.1033 37.0644-72.924Z"/>
  </g>
  <g id="Ultralight-L" transform="matrix(1 0 0 1 474.929 1556)">
   <path d="M11.8576-35.659Q11.2335-34.729 11.2305-34.0446Q11.2274-33.3603 11.7306-32.9632Q12.2337-32.5661 13.1454-32.5661L23.9983-32.5661Q24.427-22.9019 27.7031-14.1441Q30.9792-5.38635 36.5906 1.88408Q42.202 9.15451 49.688 14.4958Q57.1739 19.8372 66.0919 22.7863Q75.0099 25.7355 84.7824 25.7355Q94.632 25.7355 103.54 22.7707Q112.447 19.8059 119.972 14.4306Q127.496 9.05533 133.129 1.80435Q133.413 1.36642 133.356 0.892639Q133.298 0.418854 132.874 0.0679016Q132.444-0.283051 131.959-0.192642Q131.474-0.102234 131.155 0.321198Q125.766 7.27081 118.568 12.4092Q111.37 17.5476 102.798 20.3926Q94.2253 23.2376 84.7824 23.2376Q73.0515 23.2376 62.7262 18.9137Q52.401 14.5897 44.4199 6.92902Q36.4388-0.731659 31.7371-10.841Q27.0355-20.9503 26.506-32.5661L39.7926-32.5661Q40.7013-32.5661 41.2045-32.9632Q41.7076-33.3603 41.7057-34.0675Q41.7038-34.7748 41.0805-35.656L28.167-54.1595Q27.3903-55.2956 26.469-55.2746Q25.5478-55.2536 24.7711-54.1595ZM36.4388-71.991Q36.1511-71.553 36.2087-71.0808Q36.2663-70.6085 36.6936-70.2576Q37.075-69.9066 37.5843-69.9951Q38.0936-70.0836 38.4125-70.5078Q43.7561-77.4567 50.9789-82.5954Q58.2016-87.7342 66.7721-90.5777Q75.3426-93.4212 84.7824-93.4212Q96.5096-93.4212 106.859-89.0972Q117.209-84.7733 125.167-77.1126Q133.125-69.4519 137.85-59.3426Q142.574-49.2332 143.058-37.6167L129.772-37.6167Q128.905-37.6167 128.381-37.2196Q127.857-36.8225 127.859-36.1382Q127.86-35.4538 128.484-34.5276L141.443-16.0233Q142.22-14.933 143.116-14.9315Q144.013-14.93 144.794-16.0233L157.707-34.5695Q158.331-35.4538 158.332-36.1382Q158.334-36.8225 157.833-37.2196Q157.331-37.6167 156.419-37.6167L145.566-37.6167Q145.138-47.2816 141.862-56.0394Q138.586-64.7972 132.974-72.0673Q127.363-79.3373 119.877-84.7015Q112.391-90.0658 103.494-92.992Q94.5969-95.9183 84.7824-95.9183Q74.9359-95.9183 66.0282-92.9535Q57.1205-89.9887 49.596-84.6153Q42.0715-79.2419 36.4388-71.991Z"/>
  </g>
  <g id="Black-M" transform="matrix(1 0 0 1 2859.33 1126)">
   <path d="M10.4492-35.4492Q8.00781-32.1289 8.91113-29.3213Q9.81445-26.5137 13.5742-26.5137L21.2402-26.5137Q22.6562-17.3828 27.2461-9.30176Q31.8359-1.2207 38.8916 4.95605Q45.9473 11.1328 54.9316 14.624Q63.916 18.1152 74.1699 18.1152Q83.3008 18.1152 91.4307 15.1611Q99.5605 12.207 105.811 7.32422Q109.277 4.73633 109.766 1.26953Q110.254-2.19727 108.643-4.83398Q106.885-7.71484 103.296-8.59375Q99.707-9.47266 95.3125-6.34766Q90.918-3.125 85.5225-1.19629Q80.127 0.732422 74.1699 0.732422Q67.5293 0.732422 61.7188-1.3916Q55.9082-3.51562 51.2695-7.2998Q46.6309-11.084 43.4814-16.0156Q40.332-20.9473 38.9648-26.5137L46.6309-26.5137Q50.293-26.5137 51.2451-29.3213Q52.1973-32.1289 49.707-35.4492L34.8633-55.5664Q32.9102-58.2031 30.1025-58.1787Q27.2949-58.1543 25.3906-55.5664ZM42.5293-77.7344Q39.1113-75.1465 38.623-71.6797Q38.1348-68.2129 39.6973-65.625Q41.5039-62.7441 45.0928-61.8408Q48.6816-60.9375 53.0273-64.0625Q57.4219-67.2852 62.8418-69.2139Q68.2617-71.1426 74.1699-71.1426Q80.8594-71.1426 86.6699-68.9941Q92.4805-66.8457 97.0947-63.0859Q101.709-59.3262 104.883-54.3945Q108.057-49.4629 109.424-43.8965L101.514-43.8965Q97.8516-43.8965 96.875-41.0889Q95.8984-38.2812 98.3887-34.9609L113.281-14.8438Q115.234-12.207 118.042-12.2314Q120.85-12.2559 122.754-14.8438L137.695-34.9609Q140.137-38.2812 139.209-41.0889Q138.281-43.8965 134.57-43.8965L127.148-43.8965Q125.684-53.0273 121.118-61.1084Q116.553-69.1895 109.473-75.3662Q102.393-81.543 93.4082-85.0342Q84.4238-88.5254 74.1699-88.5254Q65.0879-88.5254 56.958-85.5713Q48.8281-82.6172 42.5293-77.7344Z"/>
  </g>
  <g id="Heavy-M" transform="matrix(1 0 0 1 2563.95 1126)">
   <path d="M10.2646-35.3683Q8.0658-32.3593 8.90541-29.8515Q9.74503-27.3438 13.2401-27.3438L20.6871-27.3438Q22.0108-18.1664 26.5144-10.0796Q31.0181-1.9928 37.9986 4.16679Q44.9791 10.3264 53.8483 13.8Q62.7174 17.2737 72.8104 17.2737Q82.4249 17.2737 90.9351 13.905Q99.4453 10.5362 105.845 4.93851Q108.817 2.59247 109.155-0.470734Q109.493-3.53394 107.928-5.79071Q106.251-8.23364 103.129-8.83598Q100.007-9.43832 96.373-6.7276Q91.6786-2.72141 85.6377-0.343323Q79.5967 2.03476 72.8104 2.03476Q65.8585 2.03476 59.7538-0.233459Q53.6491-2.50168 48.8033-6.56242Q43.9575-10.6232 40.7158-15.9466Q37.4741-21.27 36.2106-27.3438L43.7843-27.3438Q47.1931-27.3438 48.0759-29.8458Q48.9586-32.3479 46.7224-35.3569L32.8003-54.4022Q31.0318-56.8085 28.5179-56.7955Q26.004-56.7825 24.2615-54.4022ZM39.7865-75.3716Q36.8408-73.0263 36.5025-69.9684Q36.1641-66.9106 37.7037-64.6912Q39.418-62.2482 42.54-61.6219Q45.6619-60.9955 49.2592-63.7054Q53.9642-67.7116 60.0239-70.0897Q66.0835-72.4678 72.8104-72.4678Q79.7989-72.4678 85.9035-70.1752Q92.0082-67.8825 96.8357-63.8405Q101.663-59.7984 104.918-54.475Q108.172-49.1516 109.447-43.0786L101.687-43.0786Q98.278-43.0786 97.3763-40.5762Q96.4745-38.0737 98.7114-35.0647L112.67-16.0194Q114.439-13.6131 116.953-13.6261Q119.466-13.6391 121.21-16.0194L135.194-35.0533Q137.405-38.0737 136.541-40.5762Q135.677-43.0786 132.219-43.0786L124.97-43.0786Q123.609-52.2552 119.125-60.342Q114.64-68.4288 107.64-74.5884Q100.641-80.748 91.766-84.2278Q82.8911-87.7075 72.8104-87.7075Q63.2439-87.7075 54.7337-84.3384Q46.2234-80.9692 39.7865-75.3716Z"/>
  </g>
  <g id="Bold-M" transform="matrix(1 0 0 1 2268.74 1126)">
   <path d="M10.0586-35.2783Q8.12988-32.6172 8.89893-30.4443Q9.66797-28.2715 12.8662-28.2715L20.0684-28.2715Q21.2891-19.043 25.6958-10.9497Q30.1025-2.85645 36.9995 3.28369Q43.8965 9.42383 52.6367 12.8784Q61.377 16.333 71.2891 16.333Q81.4453 16.333 90.3809 12.5Q99.3164 8.66699 105.884 2.27051Q108.301 0.195312 108.472-2.41699Q108.643-5.0293 107.129-6.86035Q105.542-8.81348 102.942-9.10645Q100.342-9.39941 97.5586-7.15332Q92.5293-2.27051 85.7666 0.610352Q79.0039 3.49121 71.2891 3.49121Q63.9893 3.49121 57.5562 1.06201Q51.123-1.36719 46.0449-5.7373Q40.9668-10.1074 37.6221-15.8691Q34.2773-21.6309 33.1299-28.2715L40.6006-28.2715Q43.7256-28.2715 44.5312-30.4321Q45.3369-32.5928 43.3838-35.2539L30.4932-53.1006Q28.9307-55.249 26.7456-55.249Q24.5605-55.249 22.998-53.1006ZM36.7188-72.7295Q34.3018-70.6543 34.1309-68.0542Q33.96-65.4541 35.4736-63.6475Q37.085-61.6943 39.6851-61.377Q42.2852-61.0596 45.0439-63.3057Q50.0977-68.1885 56.8726-71.0693Q63.6475-73.9502 71.2891-73.9502Q78.6133-73.9502 85.0464-71.4966Q91.4795-69.043 96.5454-64.6851Q101.611-60.3271 104.956-54.5654Q108.301-48.8037 109.473-42.1631L101.88-42.1631Q98.7549-42.1631 97.937-40.0024Q97.1191-37.8418 99.0723-35.1807L111.987-17.334Q113.55-15.1855 115.735-15.1855Q117.92-15.1855 119.482-17.334L132.397-35.1562Q134.351-37.8418 133.557-40.0024Q132.764-42.1631 129.59-42.1631L122.534-42.1631Q121.289-51.3916 116.895-59.4849Q112.5-67.5781 105.591-73.7183Q98.6816-79.8584 89.9292-83.3252Q81.1768-86.792 71.2891-86.792Q61.1816-86.792 52.2461-82.959Q43.3105-79.126 36.7188-72.7295Z"/>
  </g>
  <g id="Semibold-M" transform="matrix(1 0 0 1 1973.06 1126)">
   <path d="M9.91669-35.2158Q8.17413-32.795 8.89435-30.8533Q9.61456-28.9116 12.6083-28.9116L19.6419-28.9116Q20.7916-19.6472 25.1316-11.5494Q29.4716-3.45154 36.311 2.67525Q43.1503 8.80203 51.8017 12.2433Q60.453 15.6845 70.24 15.6845Q80.7701 15.6845 89.999 11.5314Q99.2279 7.37839 105.91 0.431061Q107.945-1.45798 108.001-3.759Q108.056-6.06003 106.578-7.59811Q105.053-9.21326 102.813-9.29298Q100.573-9.37271 98.3765-7.44629Q93.116-1.95923 85.8555 1.26801Q78.595 4.49524 70.24 4.49524Q62.7007 4.49524 56.041 1.95503Q49.3813-0.585175 44.1433-5.16853Q38.9053-9.75189 35.4893-15.8157Q32.0732-21.8796 31.0059-28.9116L38.4056-28.9116Q41.3353-28.9116 42.0876-30.8365Q42.8398-32.7614 41.082-35.183L28.9024-52.2034Q27.4818-54.174 25.5234-54.1828Q23.5649-54.1916 22.1268-52.2034ZM34.6039-70.9076Q32.5508-69.0193 32.4955-66.7347Q32.4402-64.4501 33.9363-62.9272Q35.4767-61.3121 37.7167-61.208Q39.9567-61.1038 42.1379-63.0302Q47.4312-68.5173 54.6993-71.7449Q61.9675-74.9725 70.24-74.9725Q77.7954-74.9725 84.4551-72.4075Q91.1148-69.8425 96.3451-65.2672Q101.575-60.6918 104.982-54.6276Q108.389-48.5634 109.49-41.5321L102.013-41.5321Q99.0837-41.5321 98.3234-39.6069Q97.5632-37.6816 99.321-35.2608L111.517-18.2404Q112.936-16.2697 114.895-16.2609Q116.853-16.2521 118.291-18.2404L130.469-35.2272Q132.244-37.6816 131.499-39.6069Q130.755-41.5321 127.777-41.5321L120.854-41.5321Q119.689-50.7965 115.357-58.894Q111.024-66.9914 104.177-73.1182Q97.3305-79.245 88.6627-82.703Q79.995-86.161 70.24-86.161Q59.7595-86.161 50.5306-82.008Q41.3017-77.8549 34.6039-70.9076Z"/>
  </g>
  <g id="Medium-M" transform="matrix(1 0 0 1 1677.13 1126)">
   <path d="M9.80835-35.1692Q8.2077-32.93 8.89091-31.1634Q9.57413-29.3968 12.413-29.3968L19.3184-29.3968Q20.414-20.1057 24.7036-12.0045Q28.9932-3.9032 35.7887 2.21329Q42.5842 8.32977 51.1681 11.7611Q59.7519 15.1924 69.445 15.1924Q80.2574 15.1924 89.7087 10.7967Q99.16 6.40106 105.93-0.963593Q107.676-2.71072 107.644-4.77638Q107.611-6.84204 106.16-8.15735Q104.683-9.51691 102.716-9.43489Q100.748-9.35287 98.996-7.66907Q93.5608-1.72348 85.923 1.76659Q78.2852 5.25665 69.445 5.25665Q61.7233 5.25665 54.892 2.63214Q48.0606 0.00762939 42.7013-4.73747Q37.3421-9.48257 33.8722-15.7753Q30.4024-22.068 29.3953-29.3968L36.7409-29.3968Q39.5226-29.3968 40.2344-31.1432Q40.9462-32.8896 39.3372-35.1288L27.6962-51.5221Q26.384-53.3585 24.5972-53.3741Q22.8104-53.3897 21.4668-51.5221ZM33.0002-69.5267Q31.2233-67.7795 31.2557-65.7341Q31.2881-63.6887 32.7705-62.3817Q34.2567-61.0222 36.224-61.0798Q38.1912-61.1374 39.9345-62.8212Q45.4102-68.7668 53.0521-72.2569Q60.6941-75.7469 69.445-75.7469Q77.1759-75.7469 84.0073-73.098Q90.8386-70.4491 96.1937-65.7085Q101.549-60.968 105.003-54.6749Q108.457-48.3818 109.504-41.0538L102.114-41.0538Q99.3332-41.0538 98.6168-39.307Q97.9004-37.5603 99.5094-35.321L111.16-18.9278Q112.472-17.0921 114.258-17.0765Q116.045-17.0609 117.389-18.9278L129.007-35.2814Q130.647-37.5603 129.94-39.307Q129.232-41.0538 126.402-41.0538L119.581-41.0538Q118.477-50.3448 114.191-58.4457Q109.906-66.5466 103.106-72.6635Q96.3066-78.7804 87.7026-82.2315Q79.0985-85.6827 69.445-85.6827Q58.6815-85.6827 49.2302-81.287Q39.7789-76.8913 33.0002-69.5267Z"/>
  </g>
  <g id="Regular-M" transform="matrix(1 0 0 1 1381.44 1126)">
   <path d="M9.66797-35.1074Q8.25195-33.1055 8.88672-31.5674Q9.52148-30.0293 12.1582-30.0293L18.8965-30.0293Q19.9219-20.7031 24.1455-12.5977Q28.3691-4.49219 35.1074 1.61133Q41.8457 7.71484 50.3418 11.1328Q58.8379 14.5508 68.4082 14.5508Q79.5898 14.5508 89.3311 9.83887Q99.0723 5.12695 105.957-2.7832Q107.324-4.3457 107.178-6.10352Q107.031-7.86133 105.615-8.88672Q104.199-9.91211 102.588-9.61914Q100.977-9.32617 99.8047-7.95898Q94.1406-1.41602 86.0107 2.41699Q77.8809 6.25 68.4082 6.25Q60.4492 6.25 53.3936 3.51562Q46.3379 0.78125 40.8203-4.1748Q35.3027-9.13086 31.7627-15.7227Q28.2227-22.3145 27.2949-30.0293L34.5703-30.0293Q37.1582-30.0293 37.8174-31.543Q38.4766-33.0566 37.0605-35.0586L26.123-50.6348Q24.9512-52.2949 23.3887-52.3193Q21.8262-52.3438 20.6055-50.6348ZM30.9082-67.7246Q29.4922-66.1621 29.6387-64.4287Q29.7852-62.6953 31.25-61.6699Q32.666-60.6445 34.2773-60.9131Q35.8887-61.1816 37.0605-62.5488Q42.7734-69.0918 50.9033-72.9248Q59.0332-76.7578 68.4082-76.7578Q76.3672-76.7578 83.4229-73.999Q90.4785-71.2402 95.9961-66.2842Q101.514-61.3281 105.029-54.7363Q108.545-48.1445 109.521-40.4297L102.246-40.4297Q99.6582-40.4297 98.999-38.916Q98.3398-37.4023 99.7559-35.4004L110.693-19.8242Q111.865-18.1641 113.428-18.1396Q114.99-18.1152 116.211-19.8242L127.1-35.3516Q128.564-37.4023 127.905-38.916Q127.246-40.4297 124.609-40.4297L117.92-40.4297Q116.895-49.7559 112.671-57.8613Q108.447-65.9668 101.709-72.0703Q94.9707-78.1738 86.4502-81.6162Q77.9297-85.0586 68.4082-85.0586Q57.2754-85.0586 47.5342-80.3467Q37.793-75.6348 30.9082-67.7246Z"/>
  </g>
  <g id="Light-M" transform="matrix(1 0 0 1 1085.57 1126)">
   <path d="M9.51691-35.244Q8.31223-33.5442 8.8562-32.2712Q9.40018-30.9982 11.5379-30.9982L18.8057-30.9982Q19.6342-21.6568 23.7293-13.5284Q27.8244-5.40009 34.4719 0.733566Q41.1194 6.86722 49.5701 10.3153Q58.0208 13.7634 67.5606 13.7634Q78.8177 13.7634 88.5666 8.94585Q98.3154 4.12827 105.079-3.94897Q106.098-5.1178 105.989-6.4518Q105.881-7.7858 104.798-8.56857Q103.715-9.36737 102.482-9.1423Q101.249-8.91724 100.365-7.86819Q94.5343-0.856018 86.0184 3.28751Q77.5024 7.43103 67.5606 7.43103Q59.2537 7.43103 51.9028 4.50745Q44.5518 1.58386 38.8298-3.67508Q33.1078-8.93402 29.5376-15.9119Q25.9674-22.8897 25.206-30.9982L33.4045-30.9982Q35.5232-30.9982 36.084-32.2544Q36.6447-33.5106 35.4408-35.2097L24.791-50.4074Q23.7854-51.8257 22.488-51.8425Q21.1906-51.8593 20.1668-50.4074ZM30.0758-66.4833Q29.0382-65.2992 29.147-63.9896Q29.2557-62.6801 30.3719-61.882Q31.4552-61.0985 32.6881-61.2991Q33.9211-61.4998 34.8053-62.5488Q40.6693-69.5763 49.1852-73.7194Q57.7011-77.8625 67.5606-77.8625Q75.8827-77.8625 83.2336-74.9222Q90.5846-71.9818 96.299-66.7233Q102.013-61.4647 105.574-54.4868Q109.135-47.509 109.93-39.4005L101.731-39.4005Q99.6124-39.4005 99.0517-38.1439Q98.4909-36.8874 99.6956-35.1883L110.345-19.9905Q111.35-18.573 112.648-18.5562Q113.946-18.5394 114.97-19.9905L125.586-35.1547Q126.823-36.8874 126.263-38.1439Q125.702-39.4005 123.565-39.4005L116.331-39.4005Q115.502-48.7419 111.407-56.8699Q107.312-64.9979 100.665-71.1319Q94.017-77.2659 85.5495-80.7308Q77.0821-84.1957 67.5606-84.1957Q56.337-84.1957 46.5958-79.3777Q36.8546-74.5598 30.0758-66.4833Z"/>
  </g>
  <g id="Thin-M" transform="matrix(1 0 0 1 789.965 1126)">
   <path d="M9.31625-35.424Q8.39233-34.1248 8.81615-33.202Q9.23996-32.2792 10.717-32.2792L18.6859-32.2792Q19.2543-22.9179 23.1789-14.7598Q27.1034-6.60172 33.6308-0.427628Q40.1581 5.74646 48.5489 9.23462Q56.9397 12.7228 66.4398 12.7228Q77.7969 12.7228 87.5557 7.76482Q97.3145 2.80685 103.918-5.49011Q104.477-6.13861 104.418-6.91223Q104.359-7.68585 103.717-8.14819Q103.075-8.64639 102.342-8.51173Q101.609-8.37708 101.105-7.74841Q95.0546-0.115204 86.0283 4.4384Q77.002 8.992 66.4398 8.992Q57.6721 8.992 49.931 5.81818Q42.1898 2.64435 36.1977-3.01476Q30.2055-8.67386 26.5949-16.1621Q22.9843-23.6504 22.4434-32.2792L31.8634-32.2792Q33.3618-32.2792 33.7925-33.1951Q34.2232-34.111 33.2993-35.4103L23.0293-50.1076Q22.2443-51.2054 21.2971-51.2123Q20.3499-51.2192 19.5862-50.1076ZM28.9749-64.8422Q28.4378-64.1586 28.4962-63.4094Q28.5545-62.6602 29.2107-62.162Q29.8538-61.6989 30.5862-61.8095Q31.3187-61.9202 31.8222-62.5488Q37.8868-70.2171 46.9131-74.7707Q55.9395-79.3243 66.4398-79.3243Q75.2426-79.3243 82.9838-76.1436Q90.7249-72.963 96.6995-67.3038Q102.674-61.6447 106.295-54.1565Q109.916-46.6682 110.471-38.0394L101.051-38.0394Q99.5529-38.0394 99.1222-37.1231Q98.6916-36.2068 99.6155-34.9083L109.885-20.211Q110.67-19.1132 111.617-19.1063Q112.565-19.0994 113.329-20.211L123.584-34.8946Q124.522-36.2068 124.091-37.1231Q123.66-38.0394 122.184-38.0394L114.229-38.0394Q113.66-47.4007 109.735-55.5588Q105.811-63.7169 99.2832-69.8906Q92.7559-76.0643 84.3586-79.5597Q75.9613-83.0551 66.4398-83.0551Q55.0957-83.0551 45.3545-78.0968Q35.6133-73.1384 28.9749-64.8422Z"/>
  </g>
  <g id="Ultralight-M" transform="matrix(1 0 0 1 493.823 1126)">
   <path d="M9.21402-35.5164Q8.43353-34.4223 8.79593-33.6788Q9.15833-32.9353 10.2966-32.9353L18.6241-32.9353Q19.059-23.5641 22.8966-15.3904Q26.7342-7.21664 33.2001-1.02234Q39.666 5.17197 48.0259 8.68073Q56.3858 12.1895 65.8653 12.1895Q77.2743 12.1895 87.038 7.15981Q96.8018 2.13013 103.323-6.27975Q103.646-6.66122 103.613-7.1476Q103.58-7.63397 103.163-7.93304Q102.746-8.27713 102.27-8.18863Q101.794-8.10013 101.485-7.68661Q95.3217 0.263977 86.0336 5.02815Q76.7456 9.79233 65.8653 9.79233Q56.8619 9.79233 48.9208 6.49033Q40.9798 3.18832 34.8492-2.67601Q28.7186-8.54034 25.0877-16.2903Q21.4569-24.0402 21.0281-32.9353L31.0738-32.9353Q32.254-32.9353 32.618-33.6773Q32.9819-34.4193 32.2014-35.5125L22.1268-49.9535Q21.4546-50.8873 20.6867-50.8888Q19.9188-50.8904 19.2886-49.9535ZM28.4103-64.0007Q28.1296-63.5735 28.1628-63.1115Q28.196-62.6495 28.6163-62.3055Q29.0329-62.0071 29.509-62.0712Q29.985-62.1353 30.2948-62.5488Q36.4616-70.5452 45.7493-75.309Q55.0369-80.0728 65.8653-80.0728Q74.9138-80.0728 82.8552-76.7689Q90.7967-73.465 96.9044-67.601Q103.012-61.7371 106.664-53.9871Q110.316-46.2372 110.748-37.3421L100.702-37.3421Q99.5216-37.3421 99.1577-36.6001Q98.7938-35.8582 99.5743-34.7649L109.649-20.3239Q110.321-19.3901 111.089-19.3886Q111.857-19.3871 112.487-20.3239L122.559-34.761Q123.342-35.8582 122.978-36.6001Q122.614-37.3421 121.476-37.3421L113.152-37.3421Q112.717-46.7133 108.879-54.887Q105.042-63.0608 98.5756-69.2551Q92.1097-75.4494 83.7482-78.9597Q75.3868-82.4699 65.8653-82.4699Q54.4601-82.4699 44.7189-77.4403Q34.9777-72.4106 28.4103-64.0007Z"/>
  </g>
  <g id="Black-S" transform="matrix(1 0 0 1 2874.98 696)">
   <path d="M8.25195-35.4492Q6.29883-32.7637 7.03125-30.4932Q7.76367-28.2227 10.6934-28.2227L16.7969-28.2227Q17.9688-21.0449 21.582-14.7217Q25.1953-8.39844 30.7373-3.56445Q36.2793 1.26953 43.3594 4.02832Q50.4395 6.78711 58.4961 6.78711Q65.5273 6.78711 71.7773 4.56543Q78.0273 2.34375 82.8613-1.2207Q85.6934-3.32031 86.1328-6.12793Q86.5723-8.93555 85.3027-11.084Q83.9355-13.4766 81.0059-14.2578Q78.0762-15.0391 74.4141-12.5Q71.0449-10.1562 66.9922-8.76465Q62.9395-7.37305 58.4961-7.37305Q53.3691-7.37305 48.877-9.00879Q44.3848-10.6445 40.8203-13.5498Q37.2559-16.4551 34.79-20.2148Q32.3242-23.9746 31.25-28.2227L37.3535-28.2227Q40.2832-28.2227 41.0645-30.4932Q41.8457-32.7637 39.7949-35.4492L27.8809-51.5137Q26.3184-53.6621 24.0479-53.6133Q21.7773-53.5645 20.2148-51.5137ZM34.1309-69.1895Q31.3477-67.0898 30.9082-64.2822Q30.4688-61.4746 31.6895-59.3262Q33.1055-56.9336 36.0352-56.1523Q38.9648-55.3711 42.5781-57.9102Q45.9473-60.2539 50.0244-61.6455Q54.1016-63.0371 58.4961-63.0371Q63.6719-63.0371 68.1396-61.4014Q72.6074-59.7656 76.1963-56.8604Q79.7852-53.9551 82.2266-50.1953Q84.668-46.4355 85.7422-42.1875L79.4434-42.1875Q76.5625-42.1875 75.7812-39.9414Q75-37.6953 77.002-34.9609L88.916-18.8965Q90.5273-16.7969 92.7979-16.8213Q95.0684-16.8457 96.582-18.8965L108.545-34.9609Q110.547-37.6465 109.814-39.917Q109.082-42.1875 106.104-42.1875L100.195-42.1875Q99.0723-49.3652 95.459-55.6885Q91.8457-62.0117 86.2793-66.8457Q80.7129-71.6797 73.6572-74.4385Q66.6016-77.1973 58.4961-77.1973Q51.5137-77.1973 45.2637-75Q39.0137-72.8027 34.1309-69.1895Z"/>
  </g>
  <g id="Heavy-S" transform="matrix(1 0 0 1 2579.3 696)">
   <path d="M8.12531-35.3569Q6.33316-32.9018 7.02553-30.8502Q7.7179-28.7987 10.4973-28.7987L16.3475-28.7987Q17.45-21.5981 21.0056-15.2748Q24.5613-8.95157 30.0514-4.12903Q35.5415 0.693512 42.5297 3.42903Q49.5178 6.16455 57.4356 6.16455Q64.8705 6.16455 71.4489 3.6087Q78.0273 1.05286 82.9994-3.12195Q85.4515-5.04913 85.7582-7.56874Q86.0649-10.0883 84.7954-11.9484Q83.4518-13.9954 80.8735-14.5287Q78.2951-15.062 75.2441-12.8342Q71.6438-9.8793 67.0841-8.14209Q62.5244-6.40488 57.4356-6.40488Q52.0897-6.40488 47.39-8.14438Q42.6903-9.88388 38.9648-12.9795Q35.2394-16.0751 32.7099-20.1286Q30.1804-24.1821 29.1641-28.7987L35.0601-28.7987Q37.8403-28.7987 38.5696-30.8445Q39.299-32.8903 37.4435-35.3455L26.2901-50.5455Q24.855-52.5215 22.8035-52.4899Q20.752-52.4582 19.3161-50.5455ZM31.8832-67.3225Q29.4693-65.3839 29.1622-62.8704Q28.8551-60.3569 30.0873-58.5083Q31.4804-56.4613 34.0588-55.9219Q36.6371-55.3825 39.6507-57.6103Q43.2617-60.5537 47.8348-62.291Q52.4078-64.0282 57.4356-64.0282Q62.8304-64.0282 67.5114-62.2887Q72.1924-60.5492 75.9369-57.4482Q79.6814-54.3472 82.1918-50.2991Q84.7023-46.2509 85.7079-41.6344L79.6623-41.6344Q76.931-41.6344 76.2016-39.6015Q75.4723-37.5687 77.2903-35.0761L88.4438-19.8875Q89.9048-17.9375 91.9621-17.9562Q94.0193-17.9749 95.4178-19.8875L106.609-35.0647Q108.438-37.5313 107.746-39.5828Q107.053-41.6344 104.237-41.6344L98.5359-41.6344Q97.4701-48.835 93.9144-55.1582Q90.3587-61.4815 84.8499-66.2983Q79.3411-71.1151 72.3721-73.8567Q65.403-76.5984 57.4356-76.5984Q50.0504-76.5984 43.4776-74.0665Q36.9049-71.5347 31.8832-67.3225Z"/>
  </g>
  <g id="Bold-S" transform="matrix(1 0 0 1 2283.75 696)">
   <path d="M7.9834-35.2539Q6.37207-33.0566 7.01904-31.25Q7.66602-29.4434 10.2783-29.4434L15.8447-29.4434Q16.8701-22.2168 20.3613-15.8936Q23.8525-9.57031 29.2847-4.76074Q34.7168 0.0488281 41.6016 2.75879Q48.4863 5.46875 56.25 5.46875Q64.1357 5.46875 71.0815 2.53906Q78.0273-0.390625 83.1543-5.24902Q85.1807-6.98242 85.3394-9.17969Q85.498-11.377 84.2285-12.915Q82.9102-14.5752 80.7251-14.8315Q78.54-15.0879 76.1719-13.208Q72.3145-9.57031 67.1875-7.44629Q62.0605-5.32227 56.25-5.32227Q50.6592-5.32227 45.7275-7.17773Q40.7959-9.0332 36.8896-12.3413Q32.9834-15.6494 30.3833-20.0317Q27.7832-24.4141 26.8311-29.4434L32.4951-29.4434Q35.1074-29.4434 35.7788-31.2378Q36.4502-33.0322 34.8145-35.2295L24.5117-49.4629Q23.2178-51.2451 21.4111-51.2329Q19.6045-51.2207 18.3105-49.4629ZM29.3701-65.2344Q27.3682-63.4766 27.2095-61.2915Q27.0508-59.1064 28.2959-57.5928Q29.6631-55.9326 31.8481-55.6641Q34.0332-55.3955 36.377-57.2754Q40.2588-60.8887 45.3857-63.0127Q50.5127-65.1367 56.25-65.1367Q61.8896-65.1367 66.8091-63.2812Q71.7285-61.4258 75.647-58.1055Q79.5654-54.7852 82.1533-50.415Q84.7412-46.0449 85.6689-41.0156L79.9072-41.0156Q77.3438-41.0156 76.6724-39.2212Q76.001-37.4268 77.6123-35.2051L87.915-20.9961Q89.209-19.2139 91.0278-19.2261Q92.8467-19.2383 94.1162-20.9961L104.443-35.1807Q106.079-37.4023 105.432-39.209Q104.785-41.0156 102.148-41.0156L96.6797-41.0156Q95.6787-48.2422 92.1875-54.5654Q88.6963-60.8887 83.252-65.686Q77.8076-70.4834 70.9351-73.2056Q64.0625-75.9277 56.25-75.9277Q48.4131-75.9277 41.4795-73.0225Q34.5459-70.1172 29.3701-65.2344Z"/>
  </g>
  <g id="Semibold-S" transform="matrix(1 0 0 1 1987.84 696)">
   <path d="M7.88574-35.183Q6.39877-33.1635 7.01447-31.5254Q7.63016-29.8874 10.1273-29.8874L15.4984-29.8874Q16.4703-22.6433 19.9169-16.32Q23.3635-9.9968 28.756-5.196Q34.1484-0.395203 40.9618 2.29683Q47.7753 4.98886 55.4321 4.98886Q63.6292 4.98886 70.8282 1.8013Q78.0273-1.38626 83.2611-6.71539Q84.9937-8.31528 85.0502-10.2905Q85.1067-12.2658 83.8371-13.5818Q82.5371-14.975 80.6229-15.0402Q78.7086-15.1054 76.812-13.4659Q72.7768-9.35669 67.2588-6.9664Q61.7409-4.57611 55.4321-4.57611Q49.6727-4.57611 44.5812-6.51131Q39.4897-8.4465 35.4591-11.9015Q31.4285-15.3564 28.7792-19.9654Q26.1299-24.5743 25.2228-29.8874L30.7266-29.8874Q33.2237-29.8874 33.8551-31.5086Q34.4864-33.1299 33.0017-35.1494L23.2857-48.7167Q22.0894-50.3654 20.4514-50.3666Q18.8133-50.3677 17.617-48.7167ZM27.6375-63.7947Q25.9193-62.1613 25.8629-60.2028Q25.8064-58.2443 27.0607-56.9618Q28.4103-55.5679 30.3242-55.4863Q32.238-55.4047 34.1194-57.0442Q38.1882-61.1198 43.6974-63.5105Q49.2065-65.9012 55.4321-65.9012Q61.2411-65.9012 66.325-63.9656Q71.4088-62.03 75.4471-58.5587Q79.4853-55.0873 82.1266-50.4951Q84.7679-45.903 85.6422-40.5891L80.0758-40.5891Q77.6283-40.5891 76.997-38.9591Q76.3657-37.3291 77.8343-35.2936L87.5504-21.7606Q88.7291-20.0935 90.3835-20.1015Q92.038-20.1096 93.219-21.7606L102.95-35.2608Q104.453-37.3138 103.837-38.9515Q103.221-40.5891 100.709-40.5891L95.4002-40.5891Q94.4435-47.8333 90.9966-54.1565Q87.5496-60.4797 82.1499-65.2637Q76.7502-70.0478 69.9444-72.7566Q63.1386-75.4654 55.4321-75.4654Q47.2847-75.4654 40.102-72.3026Q32.9193-69.1399 27.6375-63.7947Z"/>
  </g>
  <g id="Medium-S" transform="matrix(1 0 0 1 1691.74 696)">
   <path d="M7.81174-35.1288Q6.41861-33.2443 7.01103-31.7345Q7.60345-30.2246 10.0128-30.2246L15.2351-30.2246Q16.1667-22.9668 19.5801-16.6435Q22.9935-10.3203 28.355-5.52635Q33.7166-0.732422 40.4766 1.94626Q47.2366 4.62494 54.8126 4.62494Q63.2454 4.62494 70.6364 1.24207Q78.0273-2.14081 83.342-7.827Q84.8526-9.32617 84.8316-11.1328Q84.8106-12.9395 83.5411-14.0869Q82.254-15.2786 80.5454-15.1989Q78.8368-15.1192 77.2972-13.6612Q73.127-9.19495 67.3126-6.60248Q61.4983-4.01001 54.8126-4.01001Q48.925-4.01001 43.7119-6.00586Q38.4987-8.00171 34.3739-11.5677Q30.249-15.1337 27.5631-19.9146Q24.8772-24.6956 24.0028-30.2246L29.3854-30.2246Q31.7947-30.2246 32.3959-31.7142Q32.9971-33.2039 31.6269-35.0891L22.3557-48.1506Q21.2334-49.6979 19.7235-49.7093Q18.2137-49.7208 17.0921-48.1506ZM26.3229-62.7029Q24.8215-61.1641 24.8425-59.3773Q24.8634-57.5905 26.1238-56.4835Q27.4597-55.2917 29.1683-55.3513Q30.8769-55.4108 32.4081-56.8695Q36.618-61.2946 42.4168-63.8874Q48.2155-66.4803 54.8126-66.4803Q60.7491-66.4803 65.9576-64.4844Q71.1662-62.4886 75.2956-58.9024Q79.425-55.3162 82.1064-50.5554Q84.7878-45.7947 85.6224-40.2657L80.204-40.2657Q77.8435-40.2657 77.2427-38.7604Q76.6418-37.2551 78.0029-35.3615L87.2742-22.3396Q88.3652-20.7611 89.8949-20.7653Q91.4246-20.7695 92.5377-22.3396L101.818-35.321Q103.22-37.2459 102.627-38.7558Q102.035-40.2657 99.617-40.2657L94.4298-40.2657Q93.5066-47.5235 90.0936-53.8467Q86.6806-60.17 81.3145-64.9437Q75.9483-69.7174 69.1929-72.4163Q62.4374-75.1152 54.8126-75.1152Q46.4287-75.1152 39.0575-71.7567Q31.6864-68.3983 26.3229-62.7029Z"/>
  </g>
  <g id="Regular-S" transform="matrix(1 0 0 1 1395.82 696)">
   <path d="M7.71484-35.0586Q6.44531-33.3496 7.00684-32.0068Q7.56836-30.6641 9.86328-30.6641L14.8926-30.6641Q15.7715-23.3887 19.1406-17.0654Q22.5098-10.7422 27.832-5.95703Q33.1543-1.17188 39.8438 1.48926Q46.5332 4.15039 54.0039 4.15039Q62.7441 4.15039 70.3857 0.512695Q78.0273-3.125 83.4473-9.27734Q84.668-10.6445 84.5459-12.2314Q84.4238-13.8184 83.1543-14.7461Q81.8848-15.6738 80.4443-15.4053Q79.0039-15.1367 77.9297-13.916Q73.584-8.98438 67.3828-6.12793Q61.1816-3.27148 54.0039-3.27148Q47.9492-3.27148 42.5781-5.34668Q37.207-7.42188 32.959-11.1328Q28.7109-14.8438 25.9766-19.8486Q23.2422-24.8535 22.4121-30.6641L27.6367-30.6641Q29.9316-30.6641 30.4932-31.9824Q31.0547-33.3008 29.834-35.0098L21.1426-47.4121Q20.1172-48.8281 18.7744-48.8525Q17.4316-48.877 16.4062-47.4121ZM24.6094-61.2793Q23.3887-59.8633 23.5107-58.3008Q23.6328-56.7383 24.9023-55.8594Q26.2207-54.9316 27.6611-55.1758Q29.1016-55.4199 30.1758-56.6406Q34.5703-61.5234 40.7471-64.3799Q46.9238-67.2363 54.0039-67.2363Q60.1074-67.2363 65.4785-65.1611Q70.8496-63.0859 75.0977-59.3506Q79.3457-55.6152 82.0801-50.6348Q84.8145-45.6543 85.5957-39.8438L80.3711-39.8438Q78.125-39.8438 77.5635-38.501Q77.002-37.1582 78.2227-35.4492L86.9141-23.0957Q87.8906-21.6309 89.2578-21.6309Q90.625-21.6309 91.6504-23.0957L100.342-35.4004Q101.611-37.1582 101.05-38.501Q100.488-39.8438 98.1934-39.8438L93.1641-39.8438Q92.2852-47.1191 88.916-53.4424Q85.5469-59.7656 80.2246-64.5264Q74.9023-69.2871 68.2129-71.9727Q61.5234-74.6582 54.0039-74.6582Q45.3125-74.6582 37.6953-71.0449Q30.0781-67.4316 24.6094-61.2793Z"/>
  </g>
  <g id="Light-S" transform="matrix(1 0 0 1 1099.85 696)">
   <path d="M7.56378-35.1799Q6.50558-33.7433 6.98395-32.6351Q7.46231-31.5269 9.31854-31.5269L14.8018-31.5269Q15.5144-24.2363 18.7698-17.8829Q22.0253-11.5295 27.272-6.7215Q32.5188-1.91345 39.1628 0.770187Q45.8069 3.45383 53.2623 3.45383Q62.0628 3.45383 69.7044-0.274658Q77.346-4.00314 82.6752-10.2913Q83.593-11.3411 83.5014-12.5496Q83.4099-13.7581 82.428-14.4737Q81.4606-15.1894 80.3532-14.9815Q79.2458-14.7736 78.4294-13.8405Q73.9319-8.49991 67.3977-5.37109Q60.8635-2.24228 53.2623-2.24228Q46.9048-2.24228 41.2689-4.47655Q35.6331-6.71082 31.2107-10.6941Q26.7883-14.6774 24.0162-20.0153Q21.244-25.3532 20.5658-31.5269L26.6228-31.5269Q28.4782-31.5269 28.9566-32.6183Q29.435-33.7097 28.3958-35.1463L19.9615-47.2153Q19.088-48.4039 17.9798-48.4211Q16.8716-48.4383 16.0126-47.2153ZM23.8831-60.1746Q22.9797-59.1064 23.0717-57.9147Q23.1636-56.723 24.1302-56.041Q25.1457-55.3253 26.2531-55.5164Q27.3605-55.7076 28.1776-56.6406Q32.7087-61.9476 39.2258-65.0764Q45.7428-68.2053 53.2623-68.2053Q59.6687-68.2053 65.3046-65.971Q70.9404-63.7367 75.3624-59.7366Q79.7844-55.7365 82.5569-50.4154Q85.3294-45.0943 85.9741-38.9206L79.9171-38.9206Q78.0945-38.9206 77.6165-37.8124Q77.1385-36.7043 78.1624-35.2676L86.6112-23.2323Q87.4367-22.0093 88.5693-22.0093Q89.7018-22.0093 90.5609-23.2323L99.0097-35.2341Q100.067-36.7043 99.5892-37.8124Q99.1112-38.9206 97.2549-38.9206L91.7564-38.9206Q91.0591-46.2112 87.796-52.5646Q84.5329-58.918 79.2938-63.7089Q74.0547-68.4998 67.4107-71.2006Q60.7666-73.9014 53.2623-73.9014Q44.4954-73.9014 36.8706-70.1897Q29.2458-66.478 23.8831-60.1746Z"/>
  </g>
  <g id="Thin-S" transform="matrix(1 0 0 1 804.116 696)">
   <path d="M7.36313-35.3401Q6.58569-34.2636 6.95381-33.4656Q7.32193-32.6675 8.59756-32.6675L14.682-32.6675Q15.1741-25.3571 18.2796-18.9636Q21.3852-12.5702 26.5316-7.73239Q31.678-2.89459 38.2618-0.180817Q44.8456 2.53296 52.2812 2.53296Q61.1618 2.53296 68.8034-1.31569Q76.445-5.16434 81.6544-11.6325Q82.1716-12.262 82.1201-12.97Q82.0686-13.678 81.4667-14.1136Q80.9006-14.5493 80.2334-14.4211Q79.5662-14.2929 79.0901-13.7405Q74.3927-7.8598 67.4179-4.3705Q60.4431-0.881195 52.2812-0.881195Q45.5238-0.881195 39.5374-3.32527Q33.551-5.76935 28.8986-10.1131Q24.2462-14.4569 21.4241-20.2354Q18.602-26.0139 18.1229-32.6675L25.2815-32.6675Q26.5572-32.6675 26.9253-33.4587Q27.2934-34.2499 26.4946-35.3264L18.4006-46.9551Q17.7269-47.8439 16.9289-47.8508Q16.1308-47.8577 15.4922-46.9551ZM22.9218-58.7128Q22.4396-58.1055 22.4915-57.4043Q22.5433-56.7032 23.1094-56.2813Q23.7244-55.8456 24.3916-55.9666Q25.0587-56.0875 25.5356-56.6406Q30.246-62.5076 37.2139-65.9969Q44.1818-69.4862 52.2812-69.4862Q59.0881-69.4862 65.0742-67.0418Q71.0602-64.5973 75.7126-60.247Q80.365-55.8968 83.1875-50.1251Q86.01-44.3535 86.4746-37.6991L79.3167-37.6991Q78.0548-37.6991 77.6867-36.9015Q77.3186-36.1038 78.0823-35.0273L86.2106-23.4123Q86.8362-22.5098 87.6583-22.5098Q88.4804-22.5098 89.119-23.4123L97.2481-35.0136Q98.0255-36.1038 97.6574-36.9015Q97.2893-37.6991 96.0136-37.6991L89.8949-37.6991Q89.4379-45.0096 86.3148-51.4034Q83.1917-57.7972 78.0628-62.6282Q72.934-67.4591 66.3498-70.1797Q59.7656-72.9004 52.2812-72.9004Q43.4143-72.9004 35.7796-69.0586Q28.1448-65.2168 22.9218-58.7128Z"/>
  </g>
  <g id="Ultralight-S" transform="matrix(1 0 0 1 507.908 696)">
   <path d="M7.26089-35.4218Q6.62689-34.5306 6.93855-33.8917Q7.25021-33.2527 8.2283-33.2527L14.6202-33.2527Q14.9994-25.9315 18.0279-19.5175Q21.0564-13.1035 26.1517-8.25005Q31.2469-3.39661 37.8002-0.667572Q44.3535 2.06146 51.7792 2.06146Q60.701 2.06146 68.3426-1.8486Q75.9842-5.75867 81.1317-12.3199Q81.4438-12.7335 81.4125-13.1851Q81.3812-13.6368 80.9746-13.929Q80.6129-14.2204 80.1716-14.1338Q79.7302-14.0472 79.4281-13.6887Q74.6284-7.53098 67.4282-3.85742Q60.228-0.183868 51.7792-0.183868Q44.8158-0.183868 38.6501-2.7359Q32.4844-5.28793 27.7142-9.81598Q22.9439-14.344 20.0958-20.348Q17.2478-26.3519 16.8724-33.2527L24.5941-33.2527Q25.5722-33.2527 25.8839-33.8898Q26.1955-34.5268 25.5203-35.4187L17.6003-46.8216Q17.0296-47.5563 16.3906-47.5582Q15.7516-47.5601 15.2252-46.8216ZM22.4297-57.9643Q22.1626-57.5928 22.1939-57.1426Q22.2252-56.6925 22.5868-56.4041Q22.9965-56.1127 23.4379-56.1977Q23.8792-56.2828 24.1814-56.6406Q28.9848-62.7953 36.1832-66.4688Q43.3815-70.1424 51.7792-70.1424Q58.7906-70.1424 64.9563-67.5903Q71.122-65.0383 75.8923-60.5083Q80.6625-55.9784 83.5106-49.9763Q86.3586-43.9743 86.731-37.0735L79.0085-37.0735Q78.0342-37.0735 77.7225-36.4346Q77.4109-35.7956 78.0411-34.9045L86.0062-23.5046Q86.528-22.7661 87.1914-22.7661Q87.8548-22.7661 88.3812-23.5046L96.3455-34.9007Q96.9795-35.7956 96.6679-36.4346Q96.3562-37.0735 95.3781-37.0735L88.9412-37.0735Q88.607-44.3947 85.5556-50.8087Q82.5043-57.2227 77.4319-62.0743Q72.3595-66.9258 65.8062-69.6568Q59.2529-72.3877 51.7792-72.3877Q42.8604-72.3877 35.2203-68.4792Q27.5803-64.5706 22.4297-57.9643Z"/>
  </g>
 </g>
</svg>
