<?xml version="1.0" encoding="UTF-8"?>
<!--Generator: Apple Native CoreSVG 175-->
<!DOCTYPE svg
PUBLIC "-//W3C//DTD SVG 1.1//EN"
       "http://www.w3.org/Graphics/SVG/1.1/DTD/svg11.dtd">
<svg version="1.1" xmlns="http://www.w3.org/2000/svg" xmlns:xlink="http://www.w3.org/1999/xlink" width="3300" height="2200">
 <!--glyph: "uni100762.medium", point size: 100.0, font version: "17.0d12e1", template writer version: "65.1"-->
 <g id="Notes">
  <rect height="2200" id="artboard" style="fill:white;opacity:1" width="3300" x="0" y="0"/>
  <line style="fill:none;stroke:black;opacity:1;stroke-width:0.5;" x1="263" x2="3036" y1="292" y2="292"/>
  <text style="stroke:none;fill:black;font-family:sans-serif;font-size:13;font-weight:bold;" transform="matrix(1 0 0 1 263 322)">Weight/Scale Variations</text>
  <text style="stroke:none;fill:black;font-family:sans-serif;font-size:13;text-anchor:middle;" transform="matrix(1 0 0 1 559.711 322)">Ultralight</text>
  <text style="stroke:none;fill:black;font-family:sans-serif;font-size:13;text-anchor:middle;" transform="matrix(1 0 0 1 856.422 322)">Thin</text>
  <text style="stroke:none;fill:black;font-family:sans-serif;font-size:13;text-anchor:middle;" transform="matrix(1 0 0 1 1153.13 322)">Light</text>
  <text style="stroke:none;fill:black;font-family:sans-serif;font-size:13;text-anchor:middle;" transform="matrix(1 0 0 1 1449.84 322)">Regular</text>
  <text style="stroke:none;fill:black;font-family:sans-serif;font-size:13;text-anchor:middle;" transform="matrix(1 0 0 1 1746.56 322)">Medium</text>
  <text style="stroke:none;fill:black;font-family:sans-serif;font-size:13;text-anchor:middle;" transform="matrix(1 0 0 1 2043.27 322)">Semibold</text>
  <text style="stroke:none;fill:black;font-family:sans-serif;font-size:13;text-anchor:middle;" transform="matrix(1 0 0 1 2339.98 322)">Bold</text>
  <text style="stroke:none;fill:black;font-family:sans-serif;font-size:13;text-anchor:middle;" transform="matrix(1 0 0 1 2636.69 322)">Heavy</text>
  <text style="stroke:none;fill:black;font-family:sans-serif;font-size:13;text-anchor:middle;" transform="matrix(1 0 0 1 2933.4 322)">Black</text>
  <line style="fill:none;stroke:black;opacity:1;stroke-width:0.5;" x1="263" x2="3036" y1="1903" y2="1903"/>
  <g transform="matrix(1 0 0 1 263 1933)">
   <path d="M9.24805 0.830078Q10.8691 0.830078 12.2949 0.214844Q13.7207-0.400391 14.8096-1.49414Q15.8984-2.58789 16.5186-4.01367Q17.1387-5.43945 17.1387-7.05078Q17.1387-8.66211 16.5186-10.0879Q15.8984-11.5137 14.8047-12.6074Q13.7109-13.7012 12.2852-14.3164Q10.8594-14.9316 9.23828-14.9316Q7.62695-14.9316 6.20117-14.3164Q4.77539-13.7012 3.69141-12.6074Q2.60742-11.5137 1.9873-10.0879Q1.36719-8.66211 1.36719-7.05078Q1.36719-5.43945 1.9873-4.01367Q2.60742-2.58789 3.69629-1.49414Q4.78516-0.400391 6.21094 0.214844Q7.63672 0.830078 9.24805 0.830078ZM9.24805-0.654297Q7.91992-0.654297 6.7627-1.14746Q5.60547-1.64062 4.73145-2.51953Q3.85742-3.39844 3.36426-4.56055Q2.87109-5.72266 2.87109-7.05078Q2.87109-8.37891 3.35938-9.54102Q3.84766-10.7031 4.72168-11.582Q5.5957-12.4609 6.75293-12.9541Q7.91016-13.4473 9.23828-13.4473Q10.5762-13.4473 11.7334-12.9541Q12.8906-12.4609 13.7695-11.582Q14.6484-10.7031 15.1465-9.54102Q15.6445-8.37891 15.6445-7.05078Q15.6445-5.72266 15.1514-4.56055Q14.6582-3.39844 13.7842-2.51953Q12.9102-1.64062 11.748-1.14746Q10.5859-0.654297 9.24805-0.654297ZM5.6543-7.05078Q5.6543-6.72852 5.85938-6.52832Q6.06445-6.32812 6.40625-6.32812L8.51562-6.32812L8.51562-4.20898Q8.51562-3.88672 8.71094-3.67676Q8.90625-3.4668 9.23828-3.4668Q9.56055-3.4668 9.77051-3.67676Q9.98047-3.88672 9.98047-4.20898L9.98047-6.32812L12.0898-6.32812Q12.4219-6.32812 12.627-6.52832Q12.832-6.72852 12.832-7.05078Q12.832-7.38281 12.627-7.58789Q12.4219-7.79297 12.0898-7.79297L9.98047-7.79297L9.98047-9.90234Q9.98047-10.2344 9.77051-10.4443Q9.56055-10.6543 9.23828-10.6543Q8.90625-10.6543 8.71094-10.4443Q8.51562-10.2344 8.51562-9.90234L8.51562-7.79297L6.40625-7.79297Q6.06445-7.79297 5.85938-7.58789Q5.6543-7.38281 5.6543-7.05078Z"/>
  </g>
  <g transform="matrix(1 0 0 1 281.867 1933)">
   <path d="M11.709 2.91016Q13.75 2.91016 15.5518 2.12891Q17.3535 1.34766 18.7305-0.0292969Q20.1074-1.40625 20.8887-3.20801Q21.6699-5.00977 21.6699-7.05078Q21.6699-9.0918 20.8887-10.8936Q20.1074-12.6953 18.7305-14.0723Q17.3535-15.4492 15.5469-16.2305Q13.7402-17.0117 11.6992-17.0117Q9.6582-17.0117 7.85645-16.2305Q6.05469-15.4492 4.68262-14.0723Q3.31055-12.6953 2.5293-10.8936Q1.74805-9.0918 1.74805-7.05078Q1.74805-5.00977 2.5293-3.20801Q3.31055-1.40625 4.6875-0.0292969Q6.06445 1.34766 7.86621 2.12891Q9.66797 2.91016 11.709 2.91016ZM11.709 1.25Q9.98047 1.25 8.47656 0.605469Q6.97266-0.0390625 5.83496-1.17676Q4.69727-2.31445 4.05762-3.81836Q3.41797-5.32227 3.41797-7.05078Q3.41797-8.7793 4.05762-10.2832Q4.69727-11.7871 5.83008-12.9297Q6.96289-14.0723 8.4668-14.7119Q9.9707-15.3516 11.6992-15.3516Q13.4277-15.3516 14.9316-14.7119Q16.4355-14.0723 17.5781-12.9297Q18.7207-11.7871 19.3652-10.2832Q20.0098-8.7793 20.0098-7.05078Q20.0098-5.32227 19.3701-3.81836Q18.7305-2.31445 17.5928-1.17676Q16.4551-0.0390625 14.9463 0.605469Q13.4375 1.25 11.709 1.25ZM7.17773-7.05078Q7.17773-6.69922 7.41211-6.47461Q7.64648-6.25 8.01758-6.25L10.8887-6.25L10.8887-3.36914Q10.8887-2.99805 11.1133-2.76855Q11.3379-2.53906 11.6895-2.53906Q12.0605-2.53906 12.29-2.76855Q12.5195-2.99805 12.5195-3.36914L12.5195-6.25L15.4004-6.25Q15.7715-6.25 16.001-6.47461Q16.2305-6.69922 16.2305-7.05078Q16.2305-7.42188 16.001-7.65137Q15.7715-7.88086 15.4004-7.88086L12.5195-7.88086L12.5195-10.752Q12.5195-11.1328 12.29-11.3623Q12.0605-11.5918 11.6895-11.5918Q11.3379-11.5918 11.1133-11.3574Q10.8887-11.123 10.8887-10.752L10.8887-7.88086L8.01758-7.88086Q7.63672-7.88086 7.40723-7.65137Q7.17773-7.42188 7.17773-7.05078Z"/>
  </g>
  <g transform="matrix(1 0 0 1 305.646 1933)">
   <path d="M14.9707 5.66406Q17.0605 5.66406 18.96 5.01465Q20.8594 4.36523 22.4512 3.19336Q24.043 2.02148 25.2197 0.429688Q26.3965-1.16211 27.0459-3.06641Q27.6953-4.9707 27.6953-7.05078Q27.6953-9.14062 27.0459-11.04Q26.3965-12.9395 25.2197-14.5312Q24.043-16.123 22.4512-17.2998Q20.8594-18.4766 18.9551-19.126Q17.0508-19.7754 14.9609-19.7754Q12.8711-19.7754 10.9717-19.126Q9.07227-18.4766 7.48535-17.2998Q5.89844-16.123 4.72168-14.5312Q3.54492-12.9395 2.90039-11.04Q2.25586-9.14062 2.25586-7.05078Q2.25586-4.9707 2.90527-3.06641Q3.55469-1.16211 4.72656 0.429688Q5.89844 2.02148 7.49023 3.19336Q9.08203 4.36523 10.9814 5.01465Q12.8809 5.66406 14.9707 5.66406ZM14.9707 3.84766Q13.1641 3.84766 11.5283 3.2959Q9.89258 2.74414 8.53516 1.74805Q7.17773 0.751953 6.17676-0.610352Q5.17578-1.97266 4.62891-3.6084Q4.08203-5.24414 4.08203-7.05078Q4.08203-8.86719 4.62891-10.5029Q5.17578-12.1387 6.17188-13.501Q7.16797-14.8633 8.52539-15.8594Q9.88281-16.8555 11.5186-17.4023Q13.1543-17.9492 14.9609-17.9492Q16.7773-17.9492 18.4131-17.4023Q20.0488-16.8555 21.4111-15.8594Q22.7734-14.8633 23.7695-13.501Q24.7656-12.1387 25.3174-10.5029Q25.8691-8.86719 25.8691-7.05078Q25.8789-5.24414 25.332-3.6084Q24.7852-1.97266 23.7842-0.610352Q22.7832 0.751953 21.4209 1.74805Q20.0586 2.74414 18.4229 3.2959Q16.7871 3.84766 14.9707 3.84766ZM9.19922-7.05078Q9.19922-6.66992 9.45801-6.4209Q9.7168-6.17188 10.1172-6.17188L14.0625-6.17188L14.0625-2.2168Q14.0625-1.81641 14.3115-1.55762Q14.5605-1.29883 14.9512-1.29883Q15.3516-1.29883 15.6104-1.55273Q15.8691-1.80664 15.8691-2.2168L15.8691-6.17188L19.8242-6.17188Q20.2246-6.17188 20.4785-6.4209Q20.7324-6.66992 20.7324-7.05078Q20.7324-7.46094 20.4785-7.71484Q20.2246-7.96875 19.8242-7.96875L15.8691-7.96875L15.8691-11.9141Q15.8691-12.3242 15.6104-12.583Q15.3516-12.8418 14.9512-12.8418Q14.5605-12.8418 14.3115-12.583Q14.0625-12.3242 14.0625-11.9141L14.0625-7.96875L10.1172-7.96875Q9.70703-7.96875 9.45312-7.71484Q9.19922-7.46094 9.19922-7.05078Z"/>
  </g>
  <text style="stroke:none;fill:black;font-family:sans-serif;font-size:13;font-weight:bold;" transform="matrix(1 0 0 1 263 1953)">Design Variations</text>
  <text style="stroke:none;fill:black;font-family:sans-serif;font-size:13;" transform="matrix(1 0 0 1 263 1971)">Symbols are supported in up to nine weights and three scales.</text>
  <text style="stroke:none;fill:black;font-family:sans-serif;font-size:13;" transform="matrix(1 0 0 1 263 1989)">For optimal layout with text and other symbols, vertically align</text>
  <text style="stroke:none;fill:black;font-family:sans-serif;font-size:13;" transform="matrix(1 0 0 1 263 2007)">symbols with the adjacent text.</text>
  <line style="fill:none;stroke:#00AEEF;stroke-width:0.5;opacity:1.0;" x1="776" x2="776" y1="1919" y2="1933"/>
  <g transform="matrix(1 0 0 1 776 1933)">
   <path d="M3.31055 0.15625Q3.70117 0.15625 3.91602-0.00976562Q4.13086-0.175781 4.26758-0.585938L5.52734-4.0332L11.2891-4.0332L12.5488-0.585938Q12.6855-0.175781 12.9004-0.00976562Q13.1152 0.15625 13.4961 0.15625Q13.8867 0.15625 14.1162-0.0585938Q14.3457-0.273438 14.3457-0.644531Q14.3457-0.869141 14.2383-1.17188L9.6582-13.3691Q9.48242-13.8184 9.17969-14.043Q8.87695-14.2676 8.4082-14.2676Q7.5-14.2676 7.17773-13.3789L2.59766-1.16211Q2.49023-0.859375 2.49023-0.634766Q2.49023-0.263672 2.70996-0.0537109Q2.92969 0.15625 3.31055 0.15625ZM6.00586-5.51758L8.37891-12.0898L8.42773-12.0898L10.8008-5.51758Z"/>
  </g>
  <line style="fill:none;stroke:#00AEEF;stroke-width:0.5;opacity:1.0;" x1="793.197" x2="793.197" y1="1919" y2="1933"/>
  <text style="stroke:none;fill:black;font-family:sans-serif;font-size:13;font-weight:bold;" transform="matrix(1 0 0 1 776 1953)">Margins</text>
  <text style="stroke:none;fill:black;font-family:sans-serif;font-size:13;" transform="matrix(1 0 0 1 776 1971)">Leading and trailing margins on the left and right side of each symbol</text>
  <text style="stroke:none;fill:black;font-family:sans-serif;font-size:13;" transform="matrix(1 0 0 1 776 1989)">can be adjusted by modifying the x-location of the margin guidelines.</text>
  <text style="stroke:none;fill:black;font-family:sans-serif;font-size:13;" transform="matrix(1 0 0 1 776 2007)">Modifications are automatically applied proportionally to all</text>
  <text style="stroke:none;fill:black;font-family:sans-serif;font-size:13;" transform="matrix(1 0 0 1 776 2025)">scales and weights.</text>
  <g transform="matrix(1 0 0 1 1289 1933)">
   <path d="M2.8418 1.86523L4.54102 3.57422Q5.18555 4.22852 5.90332 4.17969Q6.62109 4.13086 7.31445 3.35938L18.0078-8.42773L17.041-9.4043L6.42578 2.27539Q6.16211 2.57812 5.89355 2.61719Q5.625 2.65625 5.27344 2.30469L4.10156 1.14258Q3.75 0.791016 3.79395 0.522461Q3.83789 0.253906 4.14062-0.0195312L15.6152-10.8203L14.6387-11.7871L3.04688-0.898438Q2.30469-0.214844 2.25098 0.498047Q2.19727 1.21094 2.8418 1.86523ZM9.25781-16.3281Q8.94531-16.0254 8.90625-15.6348Q8.86719-15.2441 9.04297-14.9512Q9.21875-14.6777 9.55566-14.541Q9.89258-14.4043 10.3809-14.5215Q11.4746-14.7754 12.5977-14.7314Q13.7207-14.6875 14.7949-13.9844L14.209-12.5293Q13.9551-11.9043 14.0674-11.4404Q14.1797-10.9766 14.5801-10.5664L16.875-8.25195Q17.2363-7.88086 17.5781-7.82227Q17.9199-7.76367 18.3398-7.8418L19.4043-8.03711L20.0684-7.36328L20.0293-6.80664Q20-6.43555 20.1221-6.12305Q20.2441-5.81055 20.6055-5.44922L21.3672-4.70703Q21.7285-4.3457 22.1533-4.33105Q22.5781-4.31641 22.9297-4.66797L25.8398-7.58789Q26.1914-7.93945 26.1816-8.35449Q26.1719-8.76953 25.8105-9.13086L25.0391-9.89258Q24.6875-10.2539 24.3799-10.3857Q24.0723-10.5176 23.7109-10.4883L23.1348-10.4395L22.4902-11.0742L22.7344-12.1973Q22.832-12.6172 22.6953-12.9834Q22.5586-13.3496 22.1191-13.7891L19.9219-15.9766Q18.6719-17.2168 17.2607-17.8369Q15.8496-18.457 14.4189-18.4814Q12.9883-18.5059 11.665-17.959Q10.3418-17.4121 9.25781-16.3281ZM10.752-15.957Q11.6602-16.6211 12.7002-16.9043Q13.7402-17.1875 14.8047-17.085Q15.8691-16.9824 16.8701-16.5137Q17.8711-16.0449 18.7012-15.2051L21.1328-12.793Q21.3086-12.6172 21.3525-12.4512Q21.3965-12.2852 21.3379-12.0312L21.0156-10.5469L22.5195-9.0625L23.5059-9.12109Q23.6914-9.13086 23.7891-9.09668Q23.8867-9.0625 24.0332-8.91602L24.6094-8.33984L22.168-5.89844L21.5918-6.47461Q21.4453-6.62109 21.4062-6.71875Q21.3672-6.81641 21.377-7.01172L21.4453-7.98828L19.9512-9.47266L18.4277-9.21875Q18.1836-9.16992 18.042-9.2041Q17.9004-9.23828 17.7148-9.41406L15.7129-11.416Q15.5176-11.5918 15.4932-11.7529Q15.4688-11.9141 15.5859-12.1875L16.4648-14.2773Q15.293-15.3711 13.8281-15.791Q12.3633-16.2109 10.8398-15.7617Q10.7227-15.7324 10.6885-15.8057Q10.6543-15.8789 10.752-15.957Z"/>
  </g>
  <text style="stroke:none;fill:black;font-family:sans-serif;font-size:13;font-weight:bold;" transform="matrix(1 0 0 1 1289 1953)">Exporting</text>
  <text style="stroke:none;fill:black;font-family:sans-serif;font-size:13;" transform="matrix(1 0 0 1 1289 1971)">Symbols should be outlined when exporting to ensure the</text>
  <text style="stroke:none;fill:black;font-family:sans-serif;font-size:13;" transform="matrix(1 0 0 1 1289 1989)">design is preserved when submitting to Xcode.</text>
  <text id="template-version" style="stroke:none;fill:black;font-family:sans-serif;font-size:13;text-anchor:end;" transform="matrix(1 0 0 1 3036 1933)">Template v.3.0</text>
  <text style="stroke:none;fill:black;font-family:sans-serif;font-size:13;text-anchor:end;" transform="matrix(1 0 0 1 3036 1951)">Requires Xcode 13 or greater</text>
  <text id="descriptive-name" style="stroke:none;fill:black;font-family:sans-serif;font-size:13;text-anchor:end;" transform="matrix(1 0 0 1 3036 1969)">Generated from figure.walk</text>
  <text style="stroke:none;fill:black;font-family:sans-serif;font-size:13;text-anchor:end;" transform="matrix(1 0 0 1 3036 1987)">Typeset at 100 points</text>
  <text style="stroke:none;fill:black;font-family:sans-serif;font-size:13;" transform="matrix(1 0 0 1 263 726)">Small</text>
  <text style="stroke:none;fill:black;font-family:sans-serif;font-size:13;" transform="matrix(1 0 0 1 263 1156)">Medium</text>
  <text style="stroke:none;fill:black;font-family:sans-serif;font-size:13;" transform="matrix(1 0 0 1 263 1586)">Large</text>
 </g>
 <g id="Guides">
  <g id="H-reference" style="fill:#27AAE1;stroke:none;" transform="matrix(1 0 0 1 339 696)">
   <path d="M0.993347 0L3.6377 0L29.3282-67.1326L30.0301-67.1326L30.0301-70.459L28.1227-70.459ZM11.6882-24.4797L46.9818-24.4797L46.2311-26.7288L12.4382-26.7288ZM55.1193 0L57.7637 0L30.6381-70.459L29.4327-70.459L29.4327-67.1326Z"/>
  </g>
  <line id="Baseline-S" style="fill:none;stroke:#27AAE1;opacity:1;stroke-width:0.5;" x1="263" x2="3036" y1="696" y2="696"/>
  <line id="Capline-S" style="fill:none;stroke:#27AAE1;opacity:1;stroke-width:0.5;" x1="263" x2="3036" y1="625.541" y2="625.541"/>
  <g id="H-reference" style="fill:#27AAE1;stroke:none;" transform="matrix(1 0 0 1 339 1126)">
   <path d="M0.993347 0L3.6377 0L29.3282-67.1326L30.0301-67.1326L30.0301-70.459L28.1227-70.459ZM11.6882-24.4797L46.9818-24.4797L46.2311-26.7288L12.4382-26.7288ZM55.1193 0L57.7637 0L30.6381-70.459L29.4327-70.459L29.4327-67.1326Z"/>
  </g>
  <line id="Baseline-M" style="fill:none;stroke:#27AAE1;opacity:1;stroke-width:0.5;" x1="263" x2="3036" y1="1126" y2="1126"/>
  <line id="Capline-M" style="fill:none;stroke:#27AAE1;opacity:1;stroke-width:0.5;" x1="263" x2="3036" y1="1055.54" y2="1055.54"/>
  <g id="H-reference" style="fill:#27AAE1;stroke:none;" transform="matrix(1 0 0 1 339 1556)">
   <path d="M0.993347 0L3.6377 0L29.3282-67.1326L30.0301-67.1326L30.0301-70.459L28.1227-70.459ZM11.6882-24.4797L46.9818-24.4797L46.2311-26.7288L12.4382-26.7288ZM55.1193 0L57.7637 0L30.6381-70.459L29.4327-70.459L29.4327-67.1326Z"/>
  </g>
  <line id="Baseline-L" style="fill:none;stroke:#27AAE1;opacity:1;stroke-width:0.5;" x1="263" x2="3036" y1="1556" y2="1556"/>
  <line id="Capline-L" style="fill:none;stroke:#27AAE1;opacity:1;stroke-width:0.5;" x1="263" x2="3036" y1="1485.54" y2="1485.54"/>
  <line id="left-margin-Regular-M" style="fill:none;stroke:#00AEEF;stroke-width:0.5;opacity:1.0;" x1="1402.6" x2="1402.6" y1="1030.79" y2="1150.12"/>
  <line id="right-margin-Regular-M" style="fill:none;stroke:#00AEEF;stroke-width:0.5;opacity:1.0;" x1="1497.09" x2="1497.09" y1="1030.79" y2="1150.12"/>
 </g>
 <g id="Symbols">
  <g id="Black-L" transform="matrix(1 0 0 1 2865.38 1556)">
   <path d="M90.332 45.5566Q93.7012 45.5566 96.1914 43.335Q98.6816 41.1133 98.6816 37.5488Q98.6816 36.377 98.3643 35.1562Q98.0469 33.9355 97.3633 32.6172L82.2754 2.14844Q81.1523-0.195312 80.0781-1.87988Q79.0039-3.56445 78.0273-4.88281L69.7754-16.6504L70.166-17.9199Q71.3867-22.0215 72.1191-25.2441Q72.8516-28.4668 73.2666-31.543Q73.6816-34.6191 73.9258-38.2324L75.4395-58.1055Q75.8301-63.4766 73.999-67.8955Q72.168-72.3145 68.2129-74.9512Q64.2578-77.5879 58.3984-77.5879Q52.5879-77.5879 47.2168-74.707Q41.8457-71.8262 36.2793-66.2598L25.1953-55.3223Q22.4121-52.4902 21.2891-49.9512Q20.166-47.4121 19.873-43.8965L18.5059-27.2949Q18.1641-23.584 20.1172-21.3135Q22.0703-19.043 25.3906-18.7988Q28.7109-18.6035 30.9326-20.5078Q33.1543-22.4121 33.4961-26.3672L34.9609-44.1895L41.3574-49.8047Q42.2852-50.6348 43.3105-50.2441Q44.3359-49.8535 44.2383-48.4375L43.0664-32.2266Q42.5781-26.123 44.9951-21.5332Q47.4121-16.9434 50.3906-13.1348L64.7949 4.98047Q65.7715 6.20117 66.1621 6.86035Q66.5527 7.51953 67.0898 8.59375L82.666 40.332Q84.0332 43.0664 86.0596 44.3115Q88.0859 45.5566 90.332 45.5566ZM24.2676 45.5566Q28.0273 45.5566 30.9082 42.0898L52.7832 16.0156Q54.5898 13.8672 55.2246 12.7197Q55.8594 11.5723 56.4453 9.61914Q56.6895 8.88672 56.9092 8.08105Q57.1289 7.27539 57.2754 6.54297L43.7988-10.2539L40.2832 5.66406L18.75 31.0059Q17.4316 32.6172 16.748 34.1553Q16.0645 35.6934 16.0645 37.4023Q16.0645 40.8203 18.5059 43.1885Q20.9473 45.5566 24.2676 45.5566ZM94.4336-34.0332L111.914-34.0332Q115.771-34.0332 117.871-36.1572Q119.971-38.2812 119.971-41.5527Q120.02-44.873 117.871-46.9971Q115.723-49.1211 111.816-49.1211L94.043-49.1211L82.0801-61.6699L80.7129-42.0898L85.5469-37.207Q87.3535-35.3027 89.3311-34.668Q91.3086-34.0332 94.4336-34.0332ZM67.7246-83.6426Q72.2168-83.6426 75.9277-85.8643Q79.6387-88.0859 81.8604-91.748Q84.082-95.4102 84.082-99.7559Q84.082-104.297 81.8604-108.008Q79.6387-111.719 75.9277-113.916Q72.2168-116.113 67.7246-116.113Q63.2324-116.113 59.5703-113.916Q55.9082-111.719 53.7598-108.008Q51.6113-104.297 51.6113-99.7559Q51.6113-95.4102 53.7598-91.748Q55.9082-88.0859 59.5703-85.8643Q63.2324-83.6426 67.7246-83.6426Z"/>
  </g>
  <g id="Heavy-L" transform="matrix(1 0 0 1 2570.46 1556)">
   <path d="M88.1538 43.5974Q91.2926 43.5974 93.6504 41.4909Q96.0083 39.3845 96.0083 35.9009Q96.0083 34.7176 95.6791 33.5083Q95.3499 32.299 94.6777 30.9921L80.1201 1.56097Q79.0665-0.621796 78.0151-2.2892Q76.9638-3.9566 75.9987-5.26276L67.7704-17.0074L68.1953-18.3693Q69.3817-22.3099 70.1141-25.4288Q70.8466-28.5477 71.2616-31.5487Q71.6766-34.5497 71.9208-38.1058L73.3994-57.7942Q73.7671-62.9807 71.9994-67.2443Q70.2316-71.508 66.4494-74.0524Q62.6671-76.5968 57.0961-76.5968Q51.3893-76.5968 46.3295-73.7446Q41.2697-70.8923 35.8757-65.522L25.0343-54.8264Q22.3083-52.0523 21.2082-49.5594Q20.108-47.0665 19.8273-43.6432L18.4944-27.2369Q18.1755-23.6877 20.0306-21.5096Q21.8857-19.3314 25.0679-19.0987Q28.2272-18.9148 30.3394-20.7325Q32.4516-22.5502 32.7812-26.3443L34.2461-44.0742L40.5624-49.6315Q41.4673-50.4387 42.4694-50.0595Q43.4715-49.6803 43.3739-48.3109L42.2134-32.2266Q41.748-26.2611 44.0556-21.7693Q46.3631-17.2775 49.2729-13.5612L63.3659 4.1626Q64.3425 5.3833 64.7217 6.04248Q65.1009 6.70166 65.6029 7.7179L80.7877 38.6147Q82.1198 41.2689 84.0599 42.4332Q86.0001 43.5974 88.1538 43.5974ZM23.7839 43.5974Q27.4162 43.5974 30.0903 40.3954L51.4114 14.9788Q53.138 12.9105 53.7323 11.8324Q54.3266 10.7544 54.9126 8.8356Q55.2261 7.92999 55.4859 6.98051Q55.7457 6.03104 55.9387 5.13687L43.0962-10.865L39.6149 5.0766L18.8194 29.5769Q17.5125 31.1653 16.7885 32.6687Q16.0645 34.1721 16.0645 35.939Q16.0645 39.1838 18.3445 41.3906Q20.6245 43.5974 23.7839 43.5974ZM91.8755-34.2178L108.63-34.2178Q112.302-34.2178 114.344-36.2267Q116.386-38.2355 116.386-41.3795Q116.424-44.5732 114.344-46.5763Q112.265-48.5794 108.555-48.5794L91.3696-48.5794L79.6371-61.0016L78.3272-42.2165L83.1955-37.3222Q84.9678-35.4759 86.8935-34.8469Q88.8191-34.2178 91.8755-34.2178ZM65.9386-82.444Q70.3156-82.444 73.9342-84.6138Q77.5528-86.7836 79.7112-90.3534Q81.8695-93.9232 81.8695-98.1651Q81.8695-102.591 79.7112-106.21Q77.5528-109.829 73.9342-111.974Q70.3156-114.12 65.9386-114.12Q61.5501-114.12 57.98-111.974Q54.4098-109.829 52.3132-106.21Q50.2167-102.591 50.2167-98.1651Q50.2167-93.9232 52.3132-90.3534Q54.4098-86.7836 57.98-84.6138Q61.5501-82.444 65.9386-82.444Z"/>
  </g>
  <g id="Bold-L" transform="matrix(1 0 0 1 2275.76 1556)">
   <path d="M85.7178 41.4062Q88.5986 41.4062 90.8081 39.4287Q93.0176 37.4512 93.0176 34.0576Q93.0176 32.8613 92.6758 31.665Q92.334 30.4688 91.6748 29.1748L77.71 0.90332Q76.7334-1.09863 75.708-2.74658Q74.6826-4.39453 73.7305-5.68848L65.5273-17.4072L65.9912-18.8721Q67.1387-22.6318 67.8711-25.6348Q68.6035-28.6377 69.0186-31.5552Q69.4336-34.4727 69.6777-37.9639L71.1182-57.4463Q71.46-62.4268 69.7632-66.5161Q68.0664-70.6055 64.4775-73.0469Q60.8887-75.4883 55.6396-75.4883Q50.0488-75.4883 45.3369-72.6685Q40.625-69.8486 35.4248-64.6973L24.8535-54.2725Q22.1924-51.5625 21.1182-49.1211Q20.0439-46.6797 19.7754-43.3594L18.4814-27.1729Q18.1885-23.8037 19.9341-21.7285Q21.6797-19.6533 24.707-19.4336Q27.6855-19.2627 29.6753-20.9839Q31.665-22.7051 31.9824-26.3184L33.4473-43.9453L39.6729-49.4385Q40.5518-50.2197 41.5283-49.8535Q42.5049-49.4873 42.4072-48.1689L41.2598-32.2266Q40.8203-26.416 43.0054-22.0337Q45.1904-17.6514 48.0225-14.0381L61.7676 3.24707Q62.7441 4.46777 63.1104 5.12695Q63.4766 5.78613 63.9404 6.73828L78.6865 36.6943Q79.9805 39.2578 81.8237 40.332Q83.667 41.4062 85.7178 41.4062ZM23.2422 41.4062Q26.7334 41.4062 29.1748 38.501L49.8779 13.8184Q51.5137 11.8408 52.063 10.8398Q52.6123 9.83887 53.1982 7.95898Q53.5889 6.86035 53.894 5.74951Q54.1992 4.63867 54.4434 3.56445L42.3096-11.5479L38.8672 4.41895L18.8965 27.9785Q17.6025 29.541 16.8335 31.0059Q16.0645 32.4707 16.0645 34.3018Q16.0645 37.3535 18.1641 39.3799Q20.2637 41.4062 23.2422 41.4062ZM89.0137-34.4238L104.956-34.4238Q108.423-34.4238 110.4-36.3037Q112.378-38.1836 112.378-41.1865Q112.402-44.2383 110.4-46.106Q108.398-47.9736 104.907-47.9736L88.3789-47.9736L76.9043-60.2539L75.6592-42.3584L80.5664-37.4512Q82.2998-35.6689 84.1675-35.0464Q86.0352-34.4238 89.0137-34.4238ZM63.9404-81.1035Q68.1885-81.1035 71.7041-83.2153Q75.2197-85.3271 77.3071-88.7939Q79.3945-92.2607 79.3945-96.3867Q79.3945-100.684 77.3071-104.199Q75.2197-107.715 71.7041-109.802Q68.1885-111.89 63.9404-111.89Q59.668-111.89 56.2012-109.802Q52.7344-107.715 50.6958-104.199Q48.6572-100.684 48.6572-96.3867Q48.6572-92.2607 50.6958-88.7939Q52.7344-85.3271 56.2012-83.2153Q59.668-81.1035 63.9404-81.1035Z"/>
  </g>
  <g id="Semibold-L" transform="matrix(1 0 0 1 1980.43 1556)">
   <path d="M84.0378 39.8956Q86.7409 39.8956 88.8485 38.007Q90.9561 36.1183 90.9561 32.7866Q90.9561 31.5819 90.6052 30.3944Q90.2542 29.2068 89.6042 27.9221L76.0483 0.450134Q75.1251-1.42746 74.1173-3.06206Q73.1094-4.69666 72.1664-5.98145L63.9809-17.6826L64.4714-19.2184Q65.5922-22.8539 66.3246-25.7771Q67.057-28.7003 67.4721-31.5598Q67.8871-34.4193 68.1313-37.8662L69.545-57.206Q69.8692-62.0445 68.2213-66.0141Q66.5733-69.9837 63.118-72.3537Q59.6626-74.7238 54.6356-74.7238Q49.1249-74.7238 44.6529-71.9261Q40.181-69.1284 35.1135-64.1289L24.7292-53.8902Q22.1123-51.2245 21.056-48.819Q19.9997-46.4134 19.7395-43.1641L18.4723-27.1286Q18.1976-23.8838 19.8677-21.8796Q21.5378-19.8753 24.4583-19.6648Q27.3125-19.503 29.2175-21.1575Q31.1226-22.8119 31.4316-26.3008L32.8964-43.8568L39.0594-49.305Q39.9208-50.0687 40.8794-49.7112Q41.8381-49.3538 41.7404-48.0713L40.6021-32.2266Q40.1802-26.5228 42.281-22.216Q44.3817-17.9092 47.1603-14.3669L60.6659 2.61612Q61.6425 3.83682 61.9995 4.496Q62.3566 5.15518 62.7937 6.06308L77.2377 35.3699Q78.5049 37.8716 80.2818 38.8836Q82.0587 39.8956 84.0378 39.8956ZM22.8691 39.8956Q26.2627 39.8956 28.5439 37.1948L48.8205 13.0188Q50.3937 11.1031 50.9121 10.1555Q51.4305 9.20792 52.0164 7.35474Q52.4605 6.12259 52.7966 4.90074Q53.1326 3.67889 53.4126 2.48032L41.7671-12.0186L38.3514 3.96576L18.9499 26.8768Q17.6651 28.421 16.8648 29.8592Q16.0645 31.2973 16.0645 33.1734Q16.0645 36.0916 18.0397 37.9936Q20.015 39.8956 22.8691 39.8956ZM87.0407-34.5657L102.423-34.5657Q105.748-34.5657 107.681-36.3567Q109.614-38.1477 109.614-41.053Q109.63-44.0071 107.681-45.7817Q105.732-47.5563 102.393-47.5563L86.3174-47.5563L75.0206-59.7382L73.8197-42.4561L78.7537-37.5397Q80.4604-35.8025 82.288-35.1841Q84.1156-34.5657 87.0407-34.5657ZM62.5626-80.1796Q66.7221-80.1796 70.1668-82.2514Q73.6115-84.3231 75.65-87.7186Q77.6886-91.114 77.6886-95.1607Q77.6886-99.3683 75.65-102.813Q73.6115-106.258 70.1668-108.305Q66.7221-110.352 62.5626-110.352Q58.3702-110.352 54.9747-108.305Q51.5793-106.258 49.5808-102.813Q47.5822-99.3683 47.5822-95.1607Q47.5822-91.114 49.5808-87.7186Q51.5793-84.3231 54.9747-82.2514Q58.3702-80.1796 62.5626-80.1796Z"/>
  </g>
  <g id="Medium-L" transform="matrix(1 0 0 1 1684.76 1556)">
   <path d="M82.7644 38.7497Q85.3333 38.7497 87.3631 36.9286Q89.3929 35.1074 89.3929 31.823Q89.3929 30.6114 89.0354 29.4308Q88.678 28.2501 88.0341 26.9714L74.7879 0.106049Q73.9052-1.67694 72.9111-3.30124Q71.917-4.92554 70.9801-6.20422L62.8082-17.8917L63.3194-19.4817Q64.4196-23.0225 65.152-25.8846Q65.8844-28.7468 66.2994-31.5628Q66.7145-34.3788 66.9586-37.7922L68.3525-57.0244Q68.663-61.7546 67.0521-65.633Q65.4411-69.5114 62.0869-71.8281Q58.7326-74.1447 53.8742-74.1447Q48.4238-74.1447 44.1338-71.3638Q39.8438-68.5829 34.8778-63.6971L24.6346-53.6003Q22.052-50.9689 21.0091-48.5901Q19.9661-46.2112 19.7128-43.0153L18.4662-27.095Q18.2037-23.9441 19.8166-21.994Q21.4294-20.0439 24.2699-19.8395Q27.0294-19.6846 28.8708-21.2887Q30.7121-22.8928 31.0135-26.2871L32.4783-43.7889L38.5948-49.2043Q39.4424-49.9542 40.3877-49.6037Q41.333-49.2531 41.2354-47.9973L40.1031-32.2266Q39.695-26.6037 41.7316-22.3541Q43.7683-18.1046 46.5065-14.6164L59.8297 2.13776Q60.8063 3.35846 61.1568 4.01764Q61.5074 4.67682 61.9247 5.55038L76.1398 34.3658Q77.3865 36.8202 79.1126 37.785Q80.8388 38.7497 82.7644 38.7497ZM22.5861 38.7497Q25.9056 38.7497 28.0655 36.2038L48.0186 12.4123Q49.5445 10.5438 50.0393 9.63669Q50.5341 8.72955 51.12 6.89621Q51.6045 5.56335 51.9642 4.2572Q52.3239 2.95105 52.6306 1.65787L41.3567-12.3756L37.9608 3.62167L18.9903 26.0406Q17.7116 27.5719 16.888 28.9902Q16.0645 30.4085 16.0645 32.3174Q16.0645 35.1349 17.9455 36.9423Q19.8265 38.7497 22.5861 38.7497ZM85.5446-34.6741L100.503-34.6741Q103.719-34.6741 105.619-36.3976Q107.519-38.121 107.519-40.9523Q107.527-43.8324 105.619-45.5357Q103.711-47.2389 100.485-47.2389L84.7542-47.2389L73.5916-59.3475L72.4251-42.5301L77.3788-37.6076Q79.0657-35.9032 80.8628-35.2886Q82.6599-34.6741 85.5446-34.6741ZM61.5189-79.4785Q65.6105-79.4785 69.001-81.5201Q72.3915-83.5617 74.3931-86.9034Q76.3947-90.2451 76.3947-94.2307Q76.3947-98.3711 74.3931-101.762Q72.3915-105.152 69.001-107.169Q65.6105-109.187 61.5189-109.187Q57.3868-109.187 54.0451-107.169Q50.7034-105.152 48.735-101.762Q46.7667-98.3711 46.7667-94.2307Q46.7667-90.2451 48.735-86.9034Q50.7034-83.5617 54.0451-81.5201Q57.3868-79.4785 61.5189-79.4785Z"/>
  </g>
  <g id="Regular-L" transform="matrix(1 0 0 1 1389.42 1556)">
   <path d="M81.1035 37.2559Q83.4961 37.2559 85.4248 35.5225Q87.3535 33.7891 87.3535 30.5664Q87.3535 29.3457 86.9873 28.1738Q86.6211 27.002 85.9863 25.7324L73.1445-0.341797Q72.3145-2.00195 71.3379-3.61328Q70.3613-5.22461 69.4336-6.49414L61.2793-18.1641L61.8164-19.8242Q62.8906-23.2422 63.623-26.0254Q64.3555-28.8086 64.7705-31.5674Q65.1855-34.3262 65.4297-37.6953L66.7969-56.7871Q67.0898-61.377 65.5273-65.1367Q63.9648-68.8965 60.7422-71.1426Q57.5195-73.3887 52.8809-73.3887Q47.5098-73.3887 43.457-70.6299Q39.4043-67.8711 34.5703-63.1348L24.5117-53.2227Q21.9727-50.6348 20.9473-48.291Q19.9219-45.9473 19.6777-42.8223L18.457-27.0508Q18.2129-24.0234 19.751-22.1436Q21.2891-20.2637 24.0234-20.0684Q26.6602-19.9219 28.418-21.46Q30.1758-22.998 30.4688-26.2695L31.9336-43.7012L37.9883-49.0723Q38.8184-49.8047 39.7461-49.4629Q40.6738-49.1211 40.5762-47.9004L39.4531-32.2266Q39.0625-26.709 41.0156-22.5342Q42.9688-18.3594 45.6543-14.9414L58.7402 1.51367Q59.7168 2.73438 60.0586 3.39355Q60.4004 4.05273 60.791 4.88281L74.707 33.0566Q75.9277 35.4492 77.5879 36.3525Q79.248 37.2559 81.1035 37.2559ZM22.2168 37.2559Q25.4395 37.2559 27.4414 34.9121L46.9727 11.6211Q48.4375 9.81445 48.9014 8.95996Q49.3652 8.10547 49.9512 6.29883Q50.4883 4.83398 50.8789 3.41797Q51.2695 2.00195 51.6113 0.585938L40.8203-12.8418L37.4512 3.17383L19.043 24.9512Q17.7734 26.4648 16.9189 27.8564Q16.0645 29.248 16.0645 31.2012Q16.0645 33.8867 17.8223 35.5713Q19.5801 37.2559 22.2168 37.2559ZM83.5938-34.8145L97.998-34.8145Q101.074-34.8145 102.93-36.4502Q104.785-38.0859 104.785-40.8203Q104.785-43.6035 102.93-45.2148Q101.074-46.8262 97.998-46.8262L82.7148-46.8262L71.7285-58.8379L70.6055-42.627L75.5859-37.6953Q77.2461-36.0352 79.0039-35.4248Q80.7617-34.8145 83.5938-34.8145ZM60.1562-78.5645Q64.1602-78.5645 67.4805-80.5664Q70.8008-82.5684 72.7539-85.8398Q74.707-89.1113 74.707-93.0176Q74.707-97.0703 72.7539-100.391Q70.8008-103.711 67.4805-105.688Q64.1602-107.666 60.1562-107.666Q56.1035-107.666 52.832-105.688Q49.5605-103.711 47.6318-100.391Q45.7031-97.0703 45.7031-93.0176Q45.7031-89.1113 47.6318-85.8398Q49.5605-82.5684 52.832-80.5664Q56.1035-78.5645 60.1562-78.5645Z"/>
  </g>
  <g id="Light-L" transform="matrix(1 0 0 1 1093.45 1556)">
   <path d="M80.0591 36.1206Q82.3608 36.1206 84.2365 34.4101Q86.1122 32.6996 86.1122 29.5525Q86.1122 28.3615 85.7536 27.2049Q85.3951 26.0483 84.7755 24.7787L72.0695-1.00784Q71.2547-2.63748 70.2858-4.24118Q69.3169-5.84488 68.4196-7.08466L60.3714-18.6028L60.8932-20.2484Q61.937-23.6359 62.6541-26.3737Q63.3713-29.1115 63.8016-31.8325Q64.2319-34.5535 64.476-37.9074L65.8127-56.7413Q66.1057-61.2556 64.5885-64.97Q63.0714-68.6844 59.9323-70.9003Q56.7932-73.1163 52.2903-73.1163Q46.9803-73.1163 42.9729-70.3953Q38.9656-67.6743 34.2072-62.9982L24.2699-53.2227Q21.7606-50.6653 20.7504-48.344Q19.7403-46.0228 19.4962-42.9436L18.2907-27.2926Q18.0466-24.3416 19.5316-22.5147Q21.0167-20.6879 23.6298-20.5223Q26.2062-20.3606 27.9411-21.8456Q29.6761-23.3307 29.9538-26.5114L31.3889-43.943L37.5496-49.3904Q38.3644-50.1076 39.2921-49.7734Q40.2199-49.4392 40.1375-48.233L39.0144-32.4837Q38.6238-27.0569 40.5464-22.9275Q42.469-18.7981 45.1393-15.4106L58.0589 0.817108Q59.0057 2.00806 59.3475 2.65961Q59.6893 3.31116 60.0945 4.15649L73.8594 32.0122Q75.0343 34.3292 76.6342 35.2249Q78.2341 36.1206 80.0591 36.1206ZM22.02 36.1206Q25.1823 36.1206 27.1538 33.7769L46.4577 10.804Q47.953 8.98209 48.3791 8.1501Q48.8052 7.31812 49.3607 5.54199Q49.9283 3.91083 50.3719 2.32048Q50.8156 0.730133 51.1871-0.791168L40.654-13.8863L37.2391 2.44751L19.0125 24.0883Q17.7582 25.5714 16.9113 26.9482Q16.0645 28.3249 16.0645 30.2475Q16.0645 32.8423 17.7692 34.4814Q19.474 36.1206 22.02 36.1206ZM82.3677-35.0418L96.7117-35.0418Q99.7116-35.0418 101.507-36.6322Q103.302-38.2225 103.302-40.8806Q103.302-43.573 101.507-45.1313Q99.7116-46.6896 96.7117-46.6896L81.5193-46.6896L70.1843-58.989L69.0613-43.2175L74.4659-37.9074Q76.1108-36.277 77.8534-35.6594Q79.5959-35.0418 82.3677-35.0418ZM59.2484-78.0647Q63.1615-78.0647 66.4059-80.0213Q69.6503-81.9778 71.558-85.1814Q73.4657-88.385 73.4657-92.2005Q73.4657-96.1472 71.558-99.3916Q69.6503-102.636 66.4059-104.576Q63.1615-106.516 59.2484-106.516Q55.3009-106.516 52.0977-104.576Q48.8945-102.636 47.0036-99.3916Q45.1126-96.1472 45.1126-92.2005Q45.1126-88.385 47.0036-85.1814Q48.8945-81.9778 52.0977-80.0213Q55.3009-78.0647 59.2484-78.0647Z"/>
  </g>
  <g id="Thin-L" transform="matrix(1 0 0 1 797.72 1556)">
   <path d="M78.6781 34.6191Q80.8594 34.6191 82.6653 32.9384Q84.4711 31.2576 84.4711 28.2112Q84.4711 27.0607 84.1225 25.9239Q83.7738 24.7871 83.1741 23.5176L70.6482-1.88828Q69.854-3.47824 68.895-5.07202Q67.9359-6.6658 67.0784-7.86514L59.1698-19.1833L59.6718-20.8084Q60.6758-24.1562 61.3731-26.8341Q62.0705-29.512 62.5206-32.1827Q62.9707-34.8534 63.2149-38.1874L64.5119-56.6818Q64.8048-61.0954 63.3476-64.7499Q61.8904-68.4044 58.8612-70.5803Q55.8319-72.7562 51.5099-72.7562Q46.2791-72.7562 42.3321-70.0851Q38.385-67.4141 33.7265-62.8181L23.9494-53.2227Q21.4806-50.705 20.4903-48.4138Q19.5-46.1227 19.2558-43.1038L18.0702-27.6131Q17.8261-24.762 19.2413-23.0049Q20.6566-21.2479 23.1094-21.1227Q25.6058-20.9412 27.3106-22.3564Q29.0154-23.7717 29.2732-26.8318L30.6679-44.2635L36.969-49.8108Q37.764-50.5081 38.6917-50.1839Q39.6194-49.8596 39.5569-48.674L38.4338-32.8239Q38.0432-27.5177 39.9258-23.4482Q41.8083-19.3787 44.4588-16.0309L57.1579-0.10376Q58.0643 1.04675 58.4061 1.68839Q58.7479 2.33002 59.1736 3.19519L72.7386 30.6313Q73.8533 32.8476 75.3731 33.7334Q76.8929 34.6191 78.6781 34.6191ZM21.7598 34.6191Q24.8421 34.6191 26.7738 32.2754L45.7771 9.7229Q47.3129 7.88116 47.6887 7.07932Q48.0644 6.27747 48.5802 4.54102Q49.1875 2.68936 49.7013 0.868988Q50.2151-0.951385 50.6271-2.61307L40.4335-15.2672L36.9591 1.48621L18.9728 22.9477Q17.7383 24.3904 16.9014 25.7469Q16.0645 27.1034 16.0645 28.9864Q16.0645 31.4613 17.6991 33.0402Q19.3336 34.6191 21.7598 34.6191ZM80.7465-35.3416L95.0096-35.3416Q97.9103-35.3416 99.625-36.8721Q101.34-38.4026 101.34-40.9607Q101.34-43.5333 99.625-45.0214Q97.9103-46.5096 95.0096-46.5096L79.9377-46.5096L68.1427-59.1896L67.0197-43.998L72.9843-38.1874Q74.6094-36.5974 76.3321-35.9695Q78.0548-35.3416 80.7465-35.3416ZM58.0467-77.404Q61.8401-77.404 64.9845-79.3007Q68.129-81.1974 69.9768-84.3105Q71.8246-87.4237 71.8246-91.1194Q71.8246-94.9257 69.9768-98.0701Q68.129-101.215 64.9845-103.104Q61.8401-104.994 58.0467-104.994Q54.2404-104.994 51.1272-103.104Q48.0141-101.215 46.1731-98.0701Q44.3321-94.9257 44.3321-91.1194Q44.3321-87.4237 46.1731-84.3105Q48.0141-81.1974 51.1272-79.3007Q54.2404-77.404 58.0467-77.404Z"/>
  </g>
  <g id="Ultralight-L" transform="matrix(1 0 0 1 501.511 1556)">
   <path d="M77.9701 33.8501Q80.0903 33.8501 81.86 32.185Q83.6296 30.5199 83.6296 27.5238Q83.6296 26.3939 83.2863 25.2674Q82.943 24.1409 82.3532 22.8714L69.9203-2.33994Q69.136-3.9093 68.182-5.49774Q67.2279-7.08618 66.391-8.26492L58.5548-19.4809L59.0462-21.096Q60.0296-24.4232 60.7166-27.0699Q61.4037-29.7165 61.8641-32.362Q62.3245-35.0075 62.5687-38.3308L63.8451-56.6505Q64.138-61.0138 62.7117-64.6374Q61.2854-68.261 58.3126-70.4163Q55.3398-72.5716 51.1101-72.5716Q45.9206-72.5716 42.004-69.9261Q38.0875-67.2806 33.4808-62.7258L23.7854-53.2227Q21.3371-50.7256 20.3571-48.4501Q19.3771-46.1746 19.133-43.1854L17.9573-27.7771Q17.7132-24.9771 19.0926-23.2563Q20.472-21.5355 22.8424-21.431Q25.2975-21.2387 26.9875-22.6177Q28.6774-23.9967 28.9246-26.9958L30.2986-44.4275L36.6714-50.0259Q37.4557-50.7126 38.3835-50.3937Q39.3112-50.0748 39.2593-48.8991L38.1363-32.9987Q37.7457-27.7534 39.608-23.7148Q41.4703-19.6762 44.1101-16.349L56.6971-0.575256Q57.5829 0.554657 57.9247 1.19133Q58.2664 1.828 58.7021 2.70309L72.1642 29.9232Q73.2483 32.0892 74.7269 32.9697Q76.2054 33.8501 77.9701 33.8501ZM21.6263 33.8501Q24.6674 33.8501 26.5785 31.5063L45.4285 9.16901Q46.9841 7.31659 47.3347 6.53038Q47.6852 5.74417 48.1804 4.02832Q48.8083 2.06375 49.3576 0.125504Q49.9069-1.81274 50.3395-3.54614L40.3206-15.9752L36.8156 0.99411L18.9522 22.3625Q17.7277 23.7854 16.8961 25.1316Q16.0645 26.4778 16.0645 28.3401Q16.0645 30.7533 17.6632 32.3017Q19.2619 33.8501 21.6263 33.8501ZM79.9156-35.4958L94.1383-35.4958Q96.9872-35.4958 98.661-36.9953Q100.335-38.4949 100.335-41.0019Q100.335-43.5127 98.661-44.965Q96.9872-46.4172 94.1383-46.4172L79.1275-46.4172L67.0967-59.2918L65.9737-44.3977L72.226-38.3308Q73.8403-36.7615 75.5527-36.1286Q77.2652-35.4958 79.9156-35.4958ZM57.4318-77.066Q61.1633-77.066 64.2567-78.9318Q67.35-80.7976 69.1666-83.8646Q70.9831-86.9316 70.9831-90.5655Q70.9831-94.3001 69.1666-97.3934Q67.35-100.487 64.2567-102.351Q61.1633-104.215 57.4318-104.215Q53.6964-104.215 50.6294-102.351Q47.5624-100.487 45.7474-97.3934Q43.9323-94.3001 43.9323-90.5655Q43.9323-86.9316 45.7474-83.8646Q47.5624-80.7976 50.6294-78.9318Q53.6964-77.066 57.4318-77.066Z"/>
  </g>
  <g id="Black-M" transform="matrix(1 0 0 1 2879.4 1126)">
   <path d="M71.4844 28.6621Q74.3164 28.6621 76.3428 26.8555Q78.3691 25.0488 78.3691 22.2168Q78.3691 21.3379 78.125 20.3857Q77.8809 19.4336 77.3438 18.4082L65.2832-5.95703Q64.3066-7.91016 63.4766-9.22852Q62.6465-10.5469 61.8652-11.5723L55.5176-20.7031L55.7617-21.582Q57.2266-26.5137 57.8125-29.9805Q58.3984-33.4473 58.6914-37.7441L59.8633-53.2227Q60.2051-57.5195 58.7402-61.0596Q57.2754-64.5996 54.1016-66.7236Q50.9277-68.8477 46.1914-68.8477Q41.6016-68.8477 37.1826-66.6016Q32.7637-64.3555 28.3203-59.8633L19.5801-51.2207Q17.3828-48.9746 16.5039-46.9727Q15.625-44.9707 15.3809-42.1875L14.2578-29.1992Q14.0137-26.2207 15.6006-24.4141Q17.1875-22.6074 19.8242-22.4121Q22.5098-22.2168 24.3164-23.7549Q26.123-25.293 26.416-28.4668L27.5391-42.334L32.6172-46.7773Q33.3496-47.4609 34.1553-47.1436Q34.9609-46.8262 34.8633-45.7031L33.9355-32.959Q33.5938-28.1738 35.5225-24.5361Q37.4512-20.8984 39.8438-17.9199L51.2207-3.61328Q51.9531-2.68555 52.2705-2.14844Q52.5879-1.61133 53.0273-0.78125L65.3809 24.4629Q66.4551 26.6113 68.0664 27.6367Q69.6777 28.6621 71.4844 28.6621ZM19.1406 28.6621Q22.1191 28.6621 24.5605 25.7812L41.9434 5.07812Q43.4082 3.36914 43.8965 2.41699Q44.3848 1.46484 44.873-0.0488281Q45.0195-0.537109 45.166-1.09863Q45.3125-1.66016 45.4102-2.09961L34.5215-15.7227L31.7383-3.27148L14.4531 17.041Q13.4277 18.2617 12.9395 19.5068Q12.4512 20.752 12.4512 21.9727Q12.4512 24.707 14.4531 26.6846Q16.4551 28.6621 19.1406 28.6621ZM75-34.2285L89.1113-34.2285Q92.2363-34.2285 93.8965-35.9375Q95.5566-37.6465 95.5566-40.2832Q95.6055-42.9688 93.8721-44.7021Q92.1387-46.4355 89.0137-46.4355L74.7559-46.4355L65.1855-56.3477L64.0625-40.625L67.9199-36.7188Q69.3848-35.2539 70.9473-34.7412Q72.5098-34.2285 75-34.2285ZM53.7109-73.584Q57.2754-73.584 60.2051-75.3418Q63.1348-77.0996 64.8926-80.0049Q66.6504-82.9102 66.6504-86.3281Q66.6504-89.8926 64.8926-92.8223Q63.1348-95.752 60.2051-97.4854Q57.2754-99.2188 53.7109-99.2188Q50.1465-99.2188 47.2656-97.4854Q44.3848-95.752 42.6758-92.8223Q40.9668-89.8926 40.9668-86.3281Q40.9668-82.9102 42.6758-80.0049Q44.3848-77.0996 47.2656-75.3418Q50.1465-73.584 53.7109-73.584Z"/>
  </g>
  <g id="Heavy-M" transform="matrix(1 0 0 1 2584.28 1126)">
   <path d="M69.5946 27.0027Q72.2076 27.0027 74.1127 25.2941Q76.0178 23.5855 76.0178 20.8336Q76.0178 19.9318 75.7622 18.9911Q75.5066 18.0504 74.9809 17.025L63.3934-6.39496Q62.4969-8.19855 61.6844-9.49936Q60.8719-10.8002 60.1021-11.8256L53.743-20.945L54.0329-21.9276Q55.4634-26.6403 56.0551-29.9976Q56.6467-33.3549 56.9397-37.571L58.0772-52.9343Q58.3954-57.0587 56.9885-60.4603Q55.5817-63.8618 52.5517-65.8997Q49.5216-67.9375 45.0386-67.9375Q40.5525-67.9375 36.4277-65.7028Q32.3029-63.4682 28.009-59.1721L19.4763-50.737Q17.3248-48.5481 16.4692-46.5866Q15.6136-44.6251 15.3809-41.9106L14.2921-29.0955Q14.0594-26.255 15.5602-24.5235Q17.0609-22.7921 19.5938-22.6082Q22.1298-22.4243 23.8384-23.8876Q25.547-25.351 25.8286-28.3859L26.9516-42.173L31.926-46.5355Q32.6347-47.1962 33.4232-46.8903Q34.2117-46.5843 34.1141-45.507L33.1978-32.9132Q32.8674-28.2318 34.6985-24.6861Q36.5295-21.1403 38.8641-18.2312L49.9649-4.25873Q50.7088-3.33099 51.0143-2.79388Q51.3199-2.25677 51.725-1.47247L63.7329 22.9996Q64.7728 25.09 66.3204 26.0464Q67.868 27.0027 69.5946 27.0027ZM18.7141 27.0027Q21.5889 27.0027 23.8113 24.3637L40.699 4.24805Q42.0944 2.60849 42.5537 1.71967Q43.013 0.830841 43.5013-0.647736Q43.6943-1.27487 43.8755-1.94016Q44.0567-2.60544 44.1887-3.18298L33.8531-16.0912L31.1272-3.69797L14.534 15.831Q13.5086 17.0403 12.9799 18.2449Q12.4512 19.4496 12.4512 20.7512Q12.4512 23.3475 14.3147 25.1751Q16.1781 27.0027 18.7141 27.0027ZM72.7524-34.3666L86.1839-34.3666Q89.1365-34.3666 90.7505-35.9718Q92.3645-37.5771 92.3645-40.11Q92.4019-42.6689 90.7318-44.3043Q89.0617-45.9396 86.1092-45.9396L72.4045-45.9396L63.1226-55.6679L62.0575-40.625L65.8569-36.7882Q67.2874-35.3691 68.8095-34.8679Q70.3316-34.3666 72.7524-34.3666ZM52.1553-72.5235Q55.6274-72.5235 58.4824-74.2413Q61.3373-75.959 63.0432-78.7891Q64.7491-81.6193 64.7491-84.9449Q64.7491-88.4178 63.0432-91.2781Q61.3373-94.1383 58.4824-95.8256Q55.6274-97.5128 52.1553-97.5128Q48.6832-97.5128 45.8771-95.8256Q43.071-94.1383 41.4024-91.2781Q39.7339-88.4178 39.7339-84.9449Q39.7339-81.6193 41.4024-78.7891Q43.071-75.959 45.8771-74.2413Q48.6832-72.5235 52.1553-72.5235Z"/>
  </g>
  <g id="Bold-M" transform="matrix(1 0 0 1 2289.36 1126)">
   <path d="M67.4805 25.1465Q69.8486 25.1465 71.6187 23.5474Q73.3887 21.9482 73.3887 19.2871Q73.3887 18.3594 73.1201 17.4316Q72.8516 16.5039 72.3389 15.4785L61.2793-6.88477Q60.4736-8.52051 59.6802-9.80225Q58.8867-11.084 58.1299-12.1094L51.7578-21.2158L52.0996-22.3145Q53.4912-26.7822 54.0894-30.0171Q54.6875-33.252 54.9805-37.3779L56.0791-52.6123Q56.3721-56.543 55.0293-59.79Q53.6865-63.0371 50.8179-64.978Q47.9492-66.9189 43.75-66.9189Q39.3799-66.9189 35.5835-64.6973Q31.7871-62.4756 27.6611-58.3984L19.3604-50.1953Q17.2607-48.0713 16.4307-46.1548Q15.6006-44.2383 15.3809-41.6016L14.3311-28.9795Q14.1113-26.2939 15.5151-24.646Q16.9189-22.998 19.3359-22.8271Q21.7041-22.6562 23.3032-24.0356Q24.9023-25.415 25.1709-28.2959L26.2939-41.9922L31.1523-46.2646Q31.8359-46.8994 32.605-46.6064Q33.374-46.3135 33.2764-45.2881L32.373-32.8613Q32.0557-28.2959 33.7769-24.8535Q35.498-21.4111 37.7686-18.5791L48.5596-4.98047Q49.3164-4.05273 49.6094-3.51562Q49.9023-2.97852 50.2686-2.24609L61.8896 21.3623Q62.8906 23.3887 64.3677 24.2676Q65.8447 25.1465 67.4805 25.1465ZM18.2373 25.1465Q20.9961 25.1465 22.9736 22.7783L39.3066 3.32031Q40.625 1.75781 41.0522 0.939941Q41.4795 0.12207 41.9678-1.31836Q42.2119-2.09961 42.4316-2.88086Q42.6514-3.66211 42.8223-4.39453L33.1055-16.5039L30.4443-4.1748L14.624 14.4775Q13.5986 15.6738 13.0249 16.8335Q12.4512 17.9932 12.4512 19.3848Q12.4512 21.8262 14.1602 23.4863Q15.8691 25.1465 18.2373 25.1465ZM70.2393-34.5215L82.9102-34.5215Q85.6689-34.5215 87.2314-36.0107Q88.7939-37.5 88.7939-39.917Q88.8184-42.334 87.2192-43.8599Q85.6201-45.3857 82.8613-45.3857L69.7754-45.3857L60.8154-54.9072L59.8145-40.625L63.5498-36.8652Q64.9414-35.498 66.4185-35.0098Q67.8955-34.5215 70.2393-34.5215ZM50.415-71.3379Q53.7842-71.3379 56.5552-73.0103Q59.3262-74.6826 60.9741-77.4292Q62.6221-80.1758 62.6221-83.3984Q62.6221-86.7676 60.9741-89.5508Q59.3262-92.334 56.5552-93.9697Q53.7842-95.6055 50.415-95.6055Q47.0459-95.6055 44.3237-93.9697Q41.6016-92.334 39.978-89.5508Q38.3545-86.7676 38.3545-83.3984Q38.3545-80.1758 39.978-77.4292Q41.6016-74.6826 44.3237-73.0103Q47.0459-71.3379 50.415-71.3379Z"/>
  </g>
  <g id="Semibold-M" transform="matrix(1 0 0 1 1993.87 1126)">
   <path d="M66.0233 23.867Q68.222 23.867 69.899 22.3434Q71.5759 20.8199 71.5759 18.2205Q71.5759 17.2752 71.2982 16.3563Q71.0205 15.4373 70.517 14.4119L59.8221-7.22275Q59.0782-8.74252 58.2981-10.0109Q57.518-11.2793 56.7703-12.3047L50.3891-21.4027L50.7668-22.5807Q52.1317-26.8799 52.734-30.0304Q53.3363-33.181 53.6293-37.2444L54.7012-52.3903Q54.9767-56.1874 53.6785-59.3281Q52.3804-62.4687 49.6227-64.3429Q46.8651-66.217 42.8612-66.217Q38.5712-66.217 35.0014-64.0041Q31.4316-61.7912 27.4208-57.8651L19.2802-49.8222Q17.2165-47.7425 16.404-45.8572Q15.5914-43.972 15.3809-41.3879L14.3578-28.8994Q14.1472-26.3206 15.4842-24.7303Q16.8213-23.14 19.1582-22.9782Q21.4111-22.8165 22.9347-24.1379Q24.4583-25.4593 24.7177-28.2333L25.8408-41.8678L30.619-46.0777Q31.2851-46.6949 32.0408-46.4108Q32.7965-46.1266 32.6988-45.137L31.8047-32.8255Q31.4957-28.3401 33.1413-24.9691Q34.787-21.5981 37.0132-18.8194L47.5906-5.47791Q48.3566-4.55017 48.6408-4.01306Q48.925-3.47595 49.2645-2.77939L60.6186 20.2339Q61.5929 22.2153 63.0211 23.0412Q64.4493 23.867 66.0233 23.867ZM17.9085 23.867Q20.5872 23.867 22.3961 21.685L38.3469 2.68021Q39.6118 1.17111 40.0169 0.402069Q40.4221-0.366974 40.9103-1.7807Q41.1896-2.66876 41.436-3.52974Q41.6824-4.39072 41.88-5.22995L32.5897-16.7885L29.9736-4.50363L14.6866 13.5445Q13.6612 14.7316 13.0562 15.8604Q12.4512 16.9891 12.4512 18.4425Q12.4512 20.7771 14.0533 22.3221Q15.6555 23.867 17.9085 23.867ZM68.5066-34.6283L80.6526-34.6283Q83.2787-34.6283 84.8053-36.0374Q86.3319-37.4466 86.3319-39.7835Q86.348-42.1028 84.7977-43.5532Q83.2474-45.0035 80.6221-45.0035L67.9626-45.0035L59.2247-54.3831L58.268-40.625L61.9591-36.9186Q63.324-35.5865 64.7697-35.1074Q66.2155-34.6283 68.5066-34.6283ZM49.2149-70.52Q52.5131-70.52 55.2265-72.1615Q57.9399-73.8029 59.5478-76.4915Q61.1557-79.1801 61.1557-82.3318Q61.1557-85.63 59.5478-88.3598Q57.9399-91.0896 55.2265-92.6899Q52.5131-94.2902 49.2149-94.2902Q45.9175-94.2902 43.2529-92.6899Q40.5884-91.0896 38.9961-88.3598Q37.4039-85.63 37.4039-82.3318Q37.4039-79.1801 38.9961-76.4915Q40.5884-73.8029 43.2529-72.1615Q45.9175-70.52 49.2149-70.52Z"/>
  </g>
  <g id="Medium-M" transform="matrix(1 0 0 1 1698.1 1126)">
   <path d="M64.9178 22.8966Q66.9891 22.8966 68.5951 21.4302Q70.2011 19.9638 70.2011 17.4118Q70.2011 16.4528 69.9169 15.5407Q69.6327 14.6286 69.136 13.6032L58.7166-7.47833Q58.0208-8.91113 57.2506-10.1696Q56.4804-11.4281 55.7388-12.4535L49.3515-21.5439L49.7559-22.7829Q51.1002-26.9539 51.7063-30.0404Q52.3125-33.1268 52.6054-37.1437L53.6575-52.2217Q53.9192-55.9181 52.6543-58.9775Q51.3893-62.0369 48.716-63.8607Q46.0426-65.6845 42.1875-65.6845Q37.9578-65.6845 34.56-63.4785Q31.1623-61.2724 27.2392-57.4608L19.22-49.5392Q17.1829-47.493 16.3841-45.6314Q15.5853-43.7698 15.3809-41.2262L14.3776-28.8391Q14.1739-26.3405 15.4606-24.7944Q16.7473-23.2483 19.0231-23.0927Q21.1884-22.9378 22.6547-24.2153Q24.1211-25.4929 24.3736-28.1868L25.4967-41.7732L30.2147-45.9366Q30.867-46.5401 31.6128-46.2627Q32.3586-45.9854 32.2609-45.0226L31.3728-32.7988Q31.0715-28.3737 32.6599-25.0565Q34.2484-21.7392 36.4403-19.001L46.8567-5.85556Q47.6288-4.92783 47.9061-4.39072Q48.1834-3.85361 48.5031-3.18375L59.655 19.3779Q60.6094 21.3264 62.0007 22.1115Q63.3919 22.8966 64.9178 22.8966ZM17.659 22.8966Q20.2774 22.8966 21.9582 20.8565L37.619 2.19498Q38.8435 0.726318 39.2319-0.00534058Q39.6202-0.737 40.1085-2.13089Q40.4152-3.09982 40.6818-4.02145Q40.9485-4.94308 41.1659-5.86319L32.1991-17.0036L29.6165-4.75311L14.7331 12.8372Q13.7077 14.0175 13.0795 15.1226Q12.4512 16.2277 12.4512 17.7284Q12.4512 19.9821 13.9725 21.4394Q15.4938 22.8966 17.659 22.8966ZM67.1921-34.7092L78.9413-34.7092Q81.4659-34.7092 82.9659-36.0577Q84.4658-37.4062 84.4658-39.6828Q84.4742-41.9281 82.9613-43.3208Q81.4484-44.7136 78.9238-44.7136L66.5878-44.7136L58.0185-53.9856L57.0953-40.625L60.7529-36.9591Q62.0979-35.6544 63.5201-35.1818Q64.9422-34.7092 67.1921-34.7092ZM48.3055-69.9005Q51.5495-69.9005 54.2191-71.5179Q56.8886-73.1354 58.4663-75.7805Q60.0441-78.4256 60.0441-81.5231Q60.0441-84.7679 58.4663-87.4573Q56.8886-90.1466 54.2191-91.7198Q51.5495-93.293 48.3055-93.293Q45.0615-93.293 42.4408-91.7198Q39.8201-90.1466 38.2515-87.4573Q36.6829-84.7679 36.6829-81.5231Q36.6829-78.4256 38.2515-75.7805Q39.8201-73.1354 42.4408-71.5179Q45.0615-69.9005 48.3055-69.9005Z"/>
  </g>
  <g id="Regular-M" transform="matrix(1 0 0 1 1402.6 1126)">
   <path d="M63.4766 21.6309Q65.3809 21.6309 66.8945 20.2393Q68.4082 18.8477 68.4082 16.3574Q68.4082 15.3809 68.1152 14.4775Q67.8223 13.5742 67.334 12.5488L57.2754-7.8125Q56.6406-9.13086 55.8838-10.376Q55.127-11.6211 54.3945-12.6465L47.998-21.7285L48.4375-23.0469Q49.7559-27.0508 50.3662-30.0537Q50.9766-33.0566 51.2695-37.0117L52.2949-52.002Q52.5391-55.5664 51.3184-58.5205Q50.0977-61.4746 47.5342-63.2324Q44.9707-64.9902 41.3086-64.9902Q37.1582-64.9902 33.9844-62.793Q30.8105-60.5957 27.002-56.9336L19.1406-49.1699Q17.1387-47.168 16.3574-45.3369Q15.5762-43.5059 15.3809-41.0156L14.4043-28.7598Q14.209-26.3672 15.4297-24.8779Q16.6504-23.3887 18.8477-23.2422Q20.8984-23.0957 22.29-24.3164Q23.6816-25.5371 23.9258-28.125L25.0488-41.6504L29.6875-45.752Q30.3223-46.3379 31.0547-46.0693Q31.7871-45.8008 31.6895-44.873L30.8105-32.7637Q30.5176-28.418 32.0312-25.1709Q33.5449-21.9238 35.6934-19.2383L45.8984-6.34766Q46.6797-5.41992 46.9482-4.88281Q47.2168-4.3457 47.5098-3.71094L58.3984 18.2617Q59.3262 20.166 60.6689 20.8984Q62.0117 21.6309 63.4766 21.6309ZM17.334 21.6309Q19.873 21.6309 21.3867 19.7754L36.6699 1.5625Q37.8418 0.146484 38.208-0.537109Q38.5742-1.2207 39.0625-2.58789Q39.4043-3.66211 39.6973-4.66309Q39.9902-5.66406 40.2344-6.68945L31.6895-17.2852L29.1504-5.07812L14.7949 11.9141Q13.7695 13.0859 13.1104 14.1602Q12.4512 15.2344 12.4512 16.7969Q12.4512 18.9453 13.8672 20.2881Q15.2832 21.6309 17.334 21.6309ZM65.4785-34.8145L76.709-34.8145Q79.1016-34.8145 80.5664-36.084Q82.0312-37.3535 82.0312-39.5508Q82.0312-41.6992 80.5664-43.0176Q79.1016-44.3359 76.709-44.3359L64.7949-44.3359L56.4453-53.4668L55.5664-40.625L59.1797-37.0117Q60.498-35.7422 61.8896-35.2783Q63.2812-34.8145 65.4785-34.8145ZM47.1191-69.0918Q50.293-69.0918 52.9053-70.6787Q55.5176-72.2656 57.0557-74.8535Q58.5938-77.4414 58.5938-80.4688Q58.5938-83.6426 57.0557-86.2793Q55.5176-88.916 52.9053-90.4541Q50.293-91.9922 47.1191-91.9922Q43.9453-91.9922 41.3818-90.4541Q38.8184-88.916 37.2803-86.2793Q35.7422-83.6426 35.7422-80.4688Q35.7422-77.4414 37.2803-74.8535Q38.8184-72.2656 41.3818-70.6787Q43.9453-69.0918 47.1191-69.0918Z"/>
  </g>
  <g id="Light-M" transform="matrix(1 0 0 1 1106.55 1126)">
   <path d="M62.5381 20.6017Q64.3669 20.6017 65.8276 19.2402Q67.2882 17.8787 67.2882 15.4495Q67.2882 14.5027 67.0029 13.607Q66.7175 12.7113 66.2445 11.7012L56.3217-8.41827Q55.687-9.69086 54.9377-10.936Q54.1885-12.1811 53.4866-13.176L47.1809-22.1375L47.6051-23.4253Q48.8777-27.3834 49.4957-30.3337Q50.1137-33.284 50.4066-37.1933L51.4168-51.9417Q51.6609-55.4604 50.478-58.3614Q49.295-61.2625 46.8151-62.9978Q44.3352-64.7331 40.7791-64.7331Q36.6737-64.7331 33.5453-62.5813Q30.4169-60.4294 26.6693-56.8123L18.9285-49.1699Q16.9418-47.1985 16.1758-45.3823Q15.4099-43.5661 15.2145-41.1369L14.2532-28.9719Q14.0579-26.6548 15.2332-25.211Q16.4085-23.7671 18.4998-23.6359Q20.5048-23.4894 21.8662-24.6647Q23.2277-25.84 23.4566-28.3524L24.5644-41.8777L29.2938-46.0396Q29.9133-46.6255 30.6458-46.357Q31.3782-46.0884 31.2958-45.1607L30.4169-32.991Q30.1239-28.7361 31.6151-25.5268Q33.1062-22.3175 35.2242-19.6625L45.2927-6.98318Q46.0442-6.07071 46.3127-5.54123Q46.5813-5.01175 46.8895-4.37698L57.6263 17.3386Q58.5236 19.1673 59.8137 19.8845Q61.1038 20.6017 62.5381 20.6017ZM17.1524 20.6017Q19.6312 20.6017 21.1449 18.7614L36.216 0.820923Q37.4031-0.595093 37.7388-1.25618Q38.0745-1.91727 38.533-3.2692Q38.9198-4.49448 39.2506-5.6469Q39.5813-6.79932 39.856-7.93076L31.5529-18.2236L28.9688-5.71365L14.7644 11.1267Q13.7695 12.2833 13.1104 13.3503Q12.4512 14.4173 12.4512 15.9492Q12.4512 17.9916 13.8065 19.2966Q15.1619 20.6017 17.1524 20.6017ZM64.389-35.0113L75.5432-35.0113Q77.8908-35.0113 79.3026-36.2431Q80.7144-37.4748 80.7144-39.5966Q80.7144-41.684 79.3026-42.9417Q77.8908-44.1994 75.5432-44.1994L63.7199-44.1994L55.0682-53.5881L54.1893-41.1545L58.1955-37.1933Q59.4841-35.9543 60.8604-35.4828Q62.2368-35.0113 64.389-35.0113ZM46.3165-68.6531Q49.3996-68.6531 51.944-70.1946Q54.4884-71.7361 55.9887-74.2558Q57.489-76.7754 57.489-79.7424Q57.489-82.8255 55.9887-85.3863Q54.4884-87.9471 51.944-89.455Q49.3996-90.963 46.3165-90.963Q43.219-90.963 40.7158-89.455Q38.2126-87.9471 36.7126-85.3863Q35.2127-82.8255 35.2127-79.7424Q35.2127-76.7754 36.7126-74.2558Q38.2126-71.7361 40.7158-70.1946Q43.219-68.6531 46.3165-68.6531Z"/>
  </g>
  <g id="Thin-M" transform="matrix(1 0 0 1 810.71 1126)">
   <path d="M61.2968 19.2406Q63.0257 19.2406 64.4161 17.9192Q65.8066 16.5977 65.8066 14.2479Q65.8066 13.3415 65.5312 12.4561Q65.2557 11.5707 64.8026 10.5804L55.0606-9.2186Q54.4258-10.4317 53.6865-11.6768Q52.9472-12.9219 52.285-13.8771L46.0999-22.6776L46.5042-23.9258Q47.7165-27.8244 48.3448-30.7041Q48.9731-33.5838 49.2661-37.4336L50.2556-51.8616Q50.4997-55.32 49.3671-58.1512Q48.2346-60.9825 45.8645-62.6877Q43.4944-64.3929 40.078-64.3929Q36.0336-64.3929 32.9651-62.3009Q29.8965-60.2089 26.2283-56.6521L18.6485-49.1699Q16.6817-47.2382 15.9355-45.4422Q15.1894-43.6462 14.994-41.2971L14.0526-29.2519Q13.8573-27.0348 14.9727-25.6512Q16.0881-24.2676 18.0389-24.1562Q19.9844-24.0097 21.3058-25.1251Q22.6273-26.2405 22.8363-28.6522L23.9243-42.1776L28.7735-46.4195Q29.3732-47.0055 30.1056-46.7369Q30.838-46.4684 30.7755-45.5406L29.8965-33.2909Q29.6036-29.1565 31.0646-25.9972Q32.5256-22.8378 34.6039-20.2225L44.4923-7.82394Q45.2034-6.9313 45.472-6.41174Q45.7405-5.89218 46.0686-5.25742L56.6055 16.1171Q57.4631 17.8459 58.6826 18.5432Q59.9022 19.2406 61.2968 19.2406ZM16.9121 19.2406Q19.3108 19.2406 20.8244 17.4202L35.6155-0.160217Q36.8225-1.57623 37.1181-2.20718Q37.4138-2.83813 37.8319-4.17023Q38.2797-5.5954 38.6604-6.94809Q39.0411-8.30078 39.3555-9.57184L31.3728-19.4649L28.7285-6.55441L14.7247 10.0861Q13.7695 11.2228 13.1104 12.2795Q12.4512 13.3362 12.4512 14.8285Q12.4512 16.7305 13.7264 17.9855Q15.0017 19.2406 16.9121 19.2406ZM62.9471-35.2715L74.0021-35.2715Q76.2894-35.2715 77.631-36.4532Q78.9726-37.635 78.9726-39.6561Q78.9726-41.6641 77.631-42.8417Q76.2894-44.0193 74.0021-44.0193L62.2986-44.0193L53.2463-53.7483L52.3674-41.8556L56.8947-37.4336Q58.1429-36.2343 59.4994-35.7529Q60.8559-35.2715 62.9471-35.2715ZM45.256-68.0725Q48.2185-68.0725 50.6729-69.5538Q53.1273-71.035 54.5773-73.465Q56.0272-75.8949 56.0272-78.7811Q56.0272-81.7444 54.5773-84.2052Q53.1273-86.6661 50.6729-88.134Q48.2185-89.6019 45.256-89.6019Q42.2577-89.6019 39.835-88.134Q37.4123-86.6661 35.9619-84.2052Q34.5116-81.7444 34.5116-78.7811Q34.5116-75.8949 35.9619-73.465Q37.4123-71.035 39.835-69.5538Q42.2577-68.0725 45.256-68.0725Z"/>
  </g>
  <g id="Ultralight-M" transform="matrix(1 0 0 1 514.445 1126)">
   <path d="M60.6613 18.5432Q62.3383 18.5432 63.6932 17.2424Q65.0482 15.9416 65.0482 13.633Q65.0482 12.7472 64.7778 11.8664Q64.5073 10.9856 64.0648 10.006L54.4144-9.62906Q53.7796-10.8109 53.0457-12.056Q52.3117-13.3011 51.6701-14.2357L45.546-22.9546L45.9396-24.1821Q47.1222-28.0495 47.7551-30.8937Q48.3879-33.7379 48.6809-37.5565L49.6613-51.8204Q49.9054-55.2483 48.798-58.0437Q47.6906-60.8391 45.377-62.5286Q43.0634-64.2181 39.7194-64.2181Q35.7048-64.2181 32.6672-62.1571Q29.6295-60.096 26.0033-56.5704L18.5051-49.1699Q16.5482-47.2588 15.8123-45.4731Q15.0764-43.6874 14.8811-41.3788L13.9503-29.3953Q13.755-27.2301 14.8396-25.877Q15.9241-24.5239 17.8032-24.4232Q19.7174-24.2767 21.0182-25.3609Q22.319-26.445 22.5182-28.8063L23.5954-42.3317L28.5065-46.6148Q29.0962-47.2008 29.8286-46.9322Q30.5611-46.6637 30.5084-45.7359L29.6295-33.445Q29.3365-29.3716 30.7823-26.2383Q32.2281-23.1049 34.2857-20.5101L44.0819-8.255Q44.7723-7.37228 45.0409-6.85806Q45.3094-6.34384 45.6482-5.70908L56.0829 15.4915Q56.9191 17.1692 58.1032 17.8562Q59.2873 18.5432 60.6613 18.5432ZM16.7892 18.5432Q19.1467 18.5432 20.6604 16.7328L35.3073-0.662231Q36.525-2.07825 36.8004-2.69394Q37.0758-3.30963 37.4733-4.63104Q37.9509-6.15997 38.3575-7.6149Q38.7642-9.06982 39.0991-10.4134L31.2805-20.1004L28.6057-6.98547L14.7041 9.55276Q13.7695 10.6789 13.1104 11.7306Q12.4512 12.7823 12.4512 14.254Q12.4512 16.0843 13.6856 17.3138Q14.92 18.5432 16.7892 18.5432ZM62.2093-35.405L73.2124-35.405Q75.4684-35.405 76.7746-36.5608Q78.0807-37.7167 78.0807-39.6873Q78.0807-41.6534 76.7746-42.7902Q75.4684-43.927 73.2124-43.927L61.5707-43.927L52.3132-53.83L51.4343-42.2142L56.2279-37.5565Q57.4554-36.3777 58.8017-35.8913Q60.1479-35.405 62.2093-35.405ZM44.7121-67.775Q47.6135-67.775 50.0217-69.2257Q52.43-70.6764 53.8544-73.0598Q55.2788-75.4433 55.2788-78.289Q55.2788-81.1905 53.8544-83.6002Q52.43-86.01 50.0217-87.4573Q47.6135-88.9046 44.7121-88.9046Q41.7656-88.9046 39.3837-87.4573Q37.0018-86.01 35.5774-83.6002Q34.153-81.1905 34.153-78.289Q34.153-75.4433 35.5774-73.0598Q37.0018-70.6764 39.3837-69.2257Q41.7656-67.775 44.7121-67.775Z"/>
  </g>
  <g id="Black-S" transform="matrix(1 0 0 1 2890.63 696)">
   <path d="M56.543 15.2832Q58.8379 15.2832 60.4492 13.8428Q62.0605 12.4023 62.0605 10.1562Q62.0605 8.74023 61.2793 7.17773L51.6602-12.207Q50.8789-13.7695 50.2197-14.8193Q49.5605-15.8691 48.9746-16.6504L43.9941-23.7793L44.1895-24.4629Q45.3125-28.3691 45.7764-31.1279Q46.2402-33.8867 46.4844-37.2559L47.4121-49.4141Q47.8027-54.4922 44.9951-58.1543Q42.1875-61.8164 36.5234-61.8164Q32.9102-61.8164 29.3701-60.0586Q25.8301-58.3008 22.2656-54.7363L15.3809-47.9004Q13.623-46.1426 12.9395-44.5557Q12.2559-42.9688 12.0605-40.7715L11.1816-30.5664Q10.9863-28.1738 12.2314-26.7334Q13.4766-25.293 15.5762-25.1465Q17.7246-25 19.1895-26.2207Q20.6543-27.4414 20.8496-29.9805L21.7285-40.8691L25.7324-44.3848Q26.3184-44.9219 26.9775-44.6533Q27.6367-44.3848 27.5391-43.5059L26.8066-33.4961Q26.5137-29.6875 28.0762-26.8311Q29.6387-23.9746 31.4941-21.582L40.4785-10.3027Q41.0645-9.57031 41.3086-9.15527Q41.5527-8.74023 41.8945-8.05664L51.709 11.9141Q52.5391 13.623 53.833 14.4531Q55.127 15.2832 56.543 15.2832ZM15.1367 15.2832Q17.5293 15.2832 19.4824 12.9395L33.2031-3.41797Q34.375-4.83398 34.79-5.56641Q35.2051-6.29883 35.5469-7.51953Q35.6445-7.91016 35.7666-8.30078Q35.8887-8.69141 35.9375-9.0332L27.2461-19.873L25.0488-10.1074L11.3281 6.05469Q10.5469 6.98242 10.1562 7.95898Q9.76562 8.93555 9.76562 9.91211Q9.76562 12.1094 11.377 13.6963Q12.9883 15.2832 15.1367 15.2832ZM59.375-34.4238L70.6543-34.4238Q73.1445-34.4238 74.4629-35.791Q75.7812-37.1582 75.7812-39.2578Q75.8301-41.4062 74.4629-42.7734Q73.0957-44.1406 70.5566-44.1406L59.2285-44.1406L51.6113-52.002L50.7324-39.502L53.8086-36.377Q54.9316-35.2051 56.1768-34.8145Q57.4219-34.4238 59.375-34.4238ZM42.5293-65.5762Q46.7285-65.5762 49.7314-68.5791Q52.7344-71.582 52.7344-75.6348Q52.7344-79.8828 49.7314-82.8613Q46.7285-85.8398 42.5293-85.8398Q38.3301-85.8398 35.4004-82.8613Q32.4707-79.8828 32.4707-75.6348Q32.4707-71.582 35.4004-68.5791Q38.3301-65.5762 42.5293-65.5762Z"/>
  </g>
  <g id="Heavy-S" transform="matrix(1 0 0 1 2595.19 696)">
   <path d="M55.0446 13.9923Q57.1556 13.9923 58.6689 12.6328Q60.1822 11.2732 60.1822 9.08432Q60.1822 7.67975 59.4009 6.09436L50.1732-12.5069Q49.4499-13.9427 48.8079-14.975Q48.1659-16.0072 47.58-16.7999L42.5766-23.9403L42.8062-24.7047Q43.9178-28.4386 44.3874-31.105Q44.857-33.7715 45.0897-37.0949L45.9946-49.1722Q46.3623-54.0543 43.6699-57.5607Q40.9775-61.0672 35.6018-61.0672Q32.0686-61.0672 28.7708-59.3151Q25.473-57.563 22.0467-54.1603L15.3114-47.4854Q13.6002-45.7741 12.928-44.2215Q12.2559-42.6689 12.072-40.5182L11.2274-30.4512Q11.0443-28.1624 12.2257-26.7796Q13.4071-25.3967 15.4266-25.2617Q17.4477-25.1266 18.832-26.2897Q20.2164-27.4529 20.4117-29.8882L21.2906-40.7082L25.2022-44.1429Q25.7652-44.6571 26.4015-44.4057Q27.0378-44.1544 26.9516-43.2983L26.2306-33.4267Q25.9491-29.6989 27.425-26.9115Q28.9009-24.1241 30.722-21.7896L39.4875-10.775Q40.0848-10.0311 40.3175-9.62181Q40.5502-9.21249 40.8691-8.564L50.3952 10.7849Q51.2024 12.4474 52.4445 13.2198Q53.6865 13.9923 55.0446 13.9923ZM14.7911 13.9923Q17.0914 13.9923 18.8713 11.8561L32.2121-4.04053Q33.3145-5.37567 33.7009-6.06766Q34.0874-6.75964 34.4406-7.94601Q34.584-8.42896 34.7237-8.89435Q34.8633-9.35974 34.9464-9.79385L26.7044-20.0691L24.5415-10.3844L11.3976 5.12085Q10.6049 6.04858 10.1852 6.99654Q9.76562 7.94449 9.76562 8.96683Q9.76562 11.0603 11.2617 12.5263Q12.7579 13.9923 14.7911 13.9923ZM57.6004-34.5161L68.2915-34.5161Q70.6551-34.5161 71.9391-35.7967Q73.2231-37.0773 73.2231-39.0968Q73.2597-41.153 71.9387-42.445Q70.6177-43.737 68.2175-43.737L57.3616-43.737L50.0328-51.3908L49.1997-39.4325L52.1721-36.4227Q53.2722-35.2859 54.4827-34.901Q55.6931-34.5161 57.6004-34.5161ZM41.2964-64.7346Q45.4033-64.7346 48.3253-67.6628Q51.2474-70.591 51.2474-74.5514Q51.2474-78.6957 48.3253-81.6051Q45.4033-84.5146 41.2964-84.5146Q37.2009-84.5146 34.3403-81.6051Q31.4796-78.6957 31.4796-74.5514Q31.4796-70.591 34.3403-67.6628Q37.2009-64.7346 41.2964-64.7346Z"/>
  </g>
  <g id="Bold-S" transform="matrix(1 0 0 1 2299.91 696)">
   <path d="M53.3691 12.5488Q55.2734 12.5488 56.6772 11.2793Q58.0811 10.0098 58.0811 7.88574Q58.0811 6.49414 57.2998 4.88281L48.5107-12.8418Q47.8516-14.1357 47.229-15.1489Q46.6064-16.1621 46.0205-16.9678L40.9912-24.1211L41.2598-24.9756Q42.3584-28.5156 42.8345-31.0791Q43.3105-33.6426 43.5303-36.9141L44.4092-48.9014Q44.751-53.5645 42.1875-56.897Q39.624-60.2295 34.5703-60.2295Q31.1279-60.2295 28.1006-58.4839Q25.0732-56.7383 21.8018-53.5156L15.2344-47.0215Q13.5742-45.3613 12.915-43.8477Q12.2559-42.334 12.085-40.2344L11.2793-30.3223Q11.1084-28.1494 12.2192-26.8311Q13.3301-25.5127 15.2588-25.3906Q17.1387-25.2686 18.4326-26.3672Q19.7266-27.4658 19.9219-29.7852L20.8008-40.5273L24.6094-43.8721Q25.1465-44.3604 25.7568-44.1284Q26.3672-43.8965 26.2939-43.0664L25.5859-33.3496Q25.3174-29.7119 26.6968-27.002Q28.0762-24.292 29.8584-22.0215L38.3789-11.3037Q38.9893-10.5469 39.209-10.144Q39.4287-9.74121 39.7217-9.13086L48.9258 9.52148Q49.707 11.1328 50.8911 11.8408Q52.0752 12.5488 53.3691 12.5488ZM14.4043 12.5488Q16.6016 12.5488 18.1885 10.6445L31.1035-4.73633Q32.1289-5.98145 32.4829-6.62842Q32.8369-7.27539 33.2031-8.42285Q33.3984-9.00879 33.5571-9.55811Q33.7158-10.1074 33.8379-10.6445L26.0986-20.2881L23.9746-10.6934L11.4746 4.07715Q10.6689 5.00488 10.2173 5.92041Q9.76562 6.83594 9.76562 7.91016Q9.76562 9.8877 11.1328 11.2183Q12.5 12.5488 14.4043 12.5488ZM55.6152-34.6191L65.6494-34.6191Q67.8711-34.6191 69.1162-35.8032Q70.3613-36.9873 70.3613-38.916Q70.3857-40.8691 69.1162-42.0776Q67.8467-43.2861 65.6006-43.2861L55.2734-43.2861L48.2666-50.708L47.4854-39.3555L50.3418-36.4746Q51.416-35.376 52.5879-34.9976Q53.7598-34.6191 55.6152-34.6191ZM39.917-63.7939Q43.9209-63.7939 46.7529-66.6382Q49.585-69.4824 49.585-73.3398Q49.585-77.3682 46.7529-80.2002Q43.9209-83.0322 39.917-83.0322Q35.9375-83.0322 33.1543-80.2002Q30.3711-77.3682 30.3711-73.3398Q30.3711-69.4824 33.1543-66.6382Q35.9375-63.7939 39.917-63.7939Z"/>
  </g>
  <g id="Semibold-S" transform="matrix(1 0 0 1 2004.19 696)">
   <path d="M52.2141 11.5532Q53.9757 11.5532 55.304 10.3458Q56.6322 9.13849 56.6322 7.05948Q56.6322 5.67627 55.851 4.04739L47.364-13.073Q46.7499-14.2693 46.1407-15.2691Q45.5315-16.2689 44.9455-17.083L39.8979-24.2455L40.1932-25.1625Q41.2834-28.569 41.7637-31.0616Q42.244-33.5541 42.4553-36.7897L43.3159-48.7144Q43.6401-53.2265 41.1655-56.4392Q38.6909-59.6519 33.8593-59.6519Q30.4794-59.6519 27.6386-57.9109Q24.7978-56.1699 21.6331-53.0716L15.181-46.7018Q13.5567-45.0768 12.9063-43.5898Q12.2559-42.1028 12.0941-40.0391L11.3152-30.2338Q11.1526-28.1403 12.2147-26.8665Q13.2767-25.5928 15.1436-25.4791Q16.925-25.3662 18.1568-26.4206Q19.3886-27.475 19.5839-29.7142L20.4628-40.403L24.2004-43.6852Q24.72-44.1559 25.3124-43.9373Q25.9048-43.7187 25.8408-42.9062L25.1419-33.2962Q24.8817-29.7211 26.1948-27.0641Q27.5078-24.4072 29.2633-22.1817L37.6144-11.6684Q38.2339-10.9024 38.4449-10.5042Q38.6559-10.1059 38.9305-9.52225L47.9126 8.65021Q48.6763 10.2264 49.8203 10.8898Q50.9644 11.5532 52.2141 11.5532ZM14.138 11.5532Q16.2636 11.5532 17.7177 9.80911L30.3391-5.21622Q31.311-6.39877 31.6429-7.01485Q31.9748-7.63092 32.3502-8.75168Q32.5806-9.40857 32.7526-10.0159Q32.9247-10.6232 33.0734-11.2312L25.6813-20.4391L23.5832-10.907L11.528 3.35693Q10.7132 4.28467 10.2394 5.17807Q9.76562 6.07147 9.76562 7.18155Q9.76562 9.07898 11.0439 10.3161Q12.3222 11.5532 14.138 11.5532ZM54.2465-34.6901L63.8275-34.6901Q65.9515-34.6901 67.17-35.8074Q68.3884-36.9247 68.3884-38.7917Q68.4036-40.6738 67.17-41.8243Q65.9363-42.9749 63.7962-42.9749L53.8338-42.9749L47.049-50.2373L46.3036-39.3021L49.0799-36.5105Q50.1366-35.4385 51.2817-35.0643Q52.4269-34.6901 54.2465-34.6901ZM38.9664-63.1454Q42.8986-63.1454 45.6684-65.9317Q48.4383-68.718 48.4383-72.5044Q48.4383-76.4526 45.6684-79.2313Q42.8986-82.0099 38.9664-82.0099Q35.0662-82.0099 32.3364-79.2313Q29.6066-76.4526 29.6066-72.5044Q29.6066-68.718 32.3364-65.9317Q35.0662-63.1454 38.9664-63.1454Z"/>
  </g>
  <g id="Medium-S" transform="matrix(1 0 0 1 1708.23 696)">
   <path d="M51.3382 10.7986Q52.9922 10.7986 54.2633 9.6386Q55.5344 8.47855 55.5344 6.43234Q55.5344 5.05676 54.7531 3.41415L46.4951-13.2477Q45.9137-14.37 45.3148-15.3599Q44.7159-16.3498 44.1299-17.1707L39.0694-24.3401L39.3845-25.3036Q40.4678-28.6095 40.9515-31.0478Q41.4352-33.4862 41.6397-36.6951L42.4873-48.5733Q42.7979-52.9709 40.3908-56.0925Q37.9837-59.214 33.3206-59.214Q29.9873-59.214 27.2881-57.476Q24.5888-55.7381 21.505-52.7344L15.1405-46.4592Q13.5429-44.8616 12.8994-43.3949Q12.2559-41.9281 12.1002-39.8903L11.3419-30.1659Q11.1862-28.1342 12.2112-26.8936Q13.2362-25.6531 15.0558-25.547Q16.7633-25.4402 17.9482-26.4606Q19.133-27.4811 19.3283-29.66L20.2072-40.3084L23.8907-43.544Q24.3965-44.001 24.9756-43.7923Q25.5547-43.5837 25.4967-42.7849L24.8047-33.2558Q24.5514-29.7272 25.8137-27.1111Q27.076-24.4949 28.8116-22.303L37.0354-11.9446Q37.661-11.1717 37.8651-10.7769Q38.0692-10.3821 38.3308-9.81827L47.1443 7.99026Q47.8943 9.53903 49.0082 10.1688Q50.1221 10.7986 51.3382 10.7986ZM13.9359 10.7986Q16.008 10.7986 17.3607 9.17587L29.76-5.58014Q30.6915-6.71616 31.0062-7.3082Q31.321-7.90024 31.7032-9.00116Q31.9611-9.71222 32.143-10.363Q32.325-11.0138 32.4944-11.676L25.3639-20.5536L23.2872-11.0687L11.5685 2.81143Q10.7468 3.73917 10.2562 4.61578Q9.76562 5.4924 9.76562 6.62918Q9.76562 8.46558 10.9764 9.63211Q12.1872 10.7986 13.9359 10.7986ZM53.2089-34.7443L62.4466-34.7443Q64.4958-34.7443 65.694-35.8112Q66.8922-36.8782 66.8922-38.6971Q66.9014-40.5251 65.6944-41.6321Q64.4875-42.7391 62.4283-42.7391L52.742-42.7391L46.1258-49.8802L45.4071-39.2616L48.1232-36.5372Q49.1661-35.4851 50.2911-35.1147Q51.416-34.7443 53.2089-34.7443ZM38.2454-62.6534Q42.1242-62.6534 44.8467-65.3961Q47.5693-68.1389 47.5693-71.8712Q47.5693-75.7591 44.8467-78.4973Q42.1242-81.2355 38.2454-81.2355Q34.4063-81.2355 31.7169-78.4973Q29.0276-75.7591 29.0276-71.8712Q29.0276-68.1389 31.7169-65.3961Q34.4063-62.6534 38.2454-62.6534Z"/>
  </g>
  <g id="Regular-S" transform="matrix(1 0 0 1 1412.49 696)">
   <path d="M50.1953 9.81445Q51.709 9.81445 52.9053 8.71582Q54.1016 7.61719 54.1016 5.61523Q54.1016 4.24805 53.3203 2.58789L45.3613-13.4766Q44.8242-14.502 44.2383-15.4785Q43.6523-16.4551 43.0664-17.2852L37.9883-24.4629L38.3301-25.4883Q39.4043-28.6621 39.8926-31.0303Q40.3809-33.3984 40.5762-36.5723L41.4062-48.3887Q41.6992-52.6367 39.3799-55.6396Q37.0605-58.6426 32.6172-58.6426Q29.3457-58.6426 26.8311-56.9092Q24.3164-55.1758 21.3379-52.2949L15.0879-46.1426Q13.5254-44.5801 12.8906-43.1396Q12.2559-41.6992 12.1094-39.6973L11.377-30.0781Q11.2305-28.125 12.207-26.9287Q13.1836-25.7324 14.9414-25.6348Q16.5527-25.5371 17.6758-26.5137Q18.7988-27.4902 18.9941-29.5898L19.873-40.1855L23.4863-43.3594Q23.9746-43.7988 24.5361-43.6035Q25.0977-43.4082 25.0488-42.627L24.3652-33.2031Q24.1211-29.7363 25.3174-27.1729Q26.5137-24.6094 28.2227-22.4609L36.2793-12.3047Q36.9141-11.5234 37.1094-11.1328Q37.3047-10.7422 37.5488-10.2051L46.1426 7.12891Q46.875 8.64258 47.9492 9.22852Q49.0234 9.81445 50.1953 9.81445ZM13.6719 9.81445Q15.6738 9.81445 16.8945 8.34961L29.0039-6.05469Q29.8828-7.12891 30.1758-7.69043Q30.4688-8.25195 30.8594-9.32617Q31.1523-10.1074 31.3477-10.8154Q31.543-11.5234 31.7383-12.2559L24.9512-20.7031L22.9004-11.2793L11.6211 2.09961Q10.791 3.02734 10.2783 3.88184Q9.76562 4.73633 9.76562 5.9082Q9.76562 7.66602 10.8887 8.74023Q12.0117 9.81445 13.6719 9.81445ZM51.8555-34.8145L60.6445-34.8145Q62.5977-34.8145 63.7695-35.8154Q64.9414-36.8164 64.9414-38.5742Q64.9414-40.332 63.7695-41.3818Q62.5977-42.4316 60.6445-42.4316L51.3184-42.4316L44.9219-49.4141L44.2383-39.209L46.875-36.5723Q47.9004-35.5469 48.999-35.1807Q50.0977-34.8145 51.8555-34.8145ZM37.3047-62.0117Q41.1133-62.0117 43.7744-64.6973Q46.4355-67.3828 46.4355-71.0449Q46.4355-74.8535 43.7744-77.5391Q41.1133-80.2246 37.3047-80.2246Q33.5449-80.2246 30.9082-77.5391Q28.2715-74.8535 28.2715-71.0449Q28.2715-67.3828 30.9082-64.6973Q33.5449-62.0117 37.3047-62.0117Z"/>
  </g>
  <g id="Light-S" transform="matrix(1 0 0 1 1116.37 696)">
   <path d="M49.3629 8.90656Q50.8156 8.90656 51.9741 7.83043Q53.1326 6.7543 53.1326 4.81262Q53.1326 3.50647 52.3514 1.84631L44.5137-14.006Q43.9919-15.0017 43.4059-15.9782Q42.82-16.9548 42.2638-17.7544L37.2772-24.826L37.6038-25.8209Q38.6322-28.965 39.1205-31.2878Q39.6088-33.6105 39.8193-36.7233L40.6342-48.3429Q40.9271-52.5154 38.6761-55.4729Q36.425-58.4305 32.148-58.4305Q28.9215-58.4305 26.445-56.7348Q23.9685-55.0392 21.0503-52.1889L14.9063-46.1426Q13.3591-44.5953 12.7392-43.1774Q12.1193-41.7595 11.9728-39.8033L11.2404-30.2597Q11.0939-28.3821 12.0327-27.2312Q12.9715-26.0803 14.6385-25.9979Q16.2048-25.885 17.2974-26.8238Q18.3899-27.7626 18.5699-29.7714L19.4344-40.3671L23.1232-43.6012Q23.6115-44.0407 24.173-43.8454Q24.7345-43.6501 24.6857-42.8841L24.0021-33.4Q23.7732-30.0087 24.9466-27.483Q26.12-24.9573 27.7985-22.8546L35.7346-12.8647Q36.3388-12.114 36.5417-11.7157Q36.7447-11.3174 36.9888-10.7956L45.4613 6.3118Q46.1639 7.76443 47.1924 8.33549Q48.2208 8.90656 49.3629 8.90656ZM13.5208 8.90656Q15.477 8.90656 16.6824 7.45621L28.5797-6.70547Q29.4891-7.79495 29.7596-8.33359Q30.0301-8.87222 30.3902-9.93195Q30.7137-10.8337 30.9467-11.6779Q31.1798-12.5221 31.4056-13.3606L24.8146-21.5355L22.7493-11.8546L11.5906 1.40305Q10.791 2.31628 10.2783 3.16315Q9.76562 4.01001 9.76562 5.16663Q9.76562 6.83365 10.8433 7.8701Q11.9209 8.90656 13.5208 8.90656ZM50.8865-34.9808L59.6306-34.9808Q61.5082-34.9808 62.6343-35.9592Q63.7604-36.9377 63.7604-38.62Q63.7604-40.3015 62.6343-41.3059Q61.5082-42.3103 59.6306-42.3103L50.3647-42.3103L43.6958-49.5354L43.0122-39.6782L45.9969-36.7233Q47.007-35.7285 48.0907-35.3546Q49.1745-34.9808 50.8865-34.9808ZM36.5936-61.6028Q40.2809-61.6028 42.8738-64.2204Q45.4666-66.8381 45.4666-70.3941Q45.4666-74.0814 42.8738-76.6991Q40.2809-79.3167 36.5936-79.3167Q32.9391-79.3167 30.3707-76.6991Q27.8023-74.0814 27.8023-70.3941Q27.8023-66.8381 30.3707-64.2204Q32.9391-61.6028 36.5936-61.6028Z"/>
  </g>
  <g id="Thin-S" transform="matrix(1 0 0 1 820.44 696)">
   <path d="M48.262 7.70493Q49.6346 7.70493 50.7431 6.65932Q51.8517 5.61371 51.8517 3.75214Q51.8517 2.52533 51.0704 0.865173L43.3929-14.7072Q42.8909-15.6624 42.305-16.6389Q41.7191-17.6155 41.2033-18.3746L36.3358-25.3067L36.6425-26.2619Q37.6114-29.3655 38.0997-31.628Q38.588-33.8905 38.8184-36.924L39.6133-48.2834Q39.9063-52.3552 37.7453-55.2528Q35.5843-58.1505 31.5277-58.1505Q28.3615-58.1505 25.9346-56.5048Q23.5077-54.8592 20.6703-52.0485L14.666-46.1426Q13.1386-44.6152 12.5389-43.2274Q11.9392-41.8396 11.7928-39.9437L11.0603-30.5Q10.9138-28.7224 11.8027-27.6318Q12.6915-26.5411 14.238-26.4786Q15.744-26.3458 16.7969-27.2343Q17.8497-28.1227 18.0099-30.0117L18.8538-40.6075L22.6425-43.9217Q23.1308-44.3611 23.6923-44.1658Q24.2538-43.9705 24.205-43.2243L23.5214-33.6601Q23.3124-30.3688 24.456-27.8934Q25.5997-25.4181 27.2385-23.3749L35.0136-13.6055Q35.5782-12.8944 35.791-12.4863Q36.0039-12.0781 36.248-11.5761L44.5602 5.23071Q45.2225 6.60324 46.1914 7.15408Q47.1603 7.70493 48.262 7.70493ZM13.3202 7.70493Q15.2168 7.70493 16.4024 6.27518L28.0197-7.56607Q28.9688-8.67538 29.2091-9.18427Q29.4495-9.69315 29.7699-10.7323Q30.1331-11.795 30.4161-12.8193Q30.6992-13.8435 30.9647-14.8224L24.6346-22.6364L22.5487-12.6152L11.5509 0.482178Q10.791 1.37482 10.2783 2.21176Q9.76562 3.04871 9.76562 4.18549Q9.76562 5.73273 10.7834 6.71883Q11.8011 7.70493 13.3202 7.70493ZM49.6056-35.2013L58.2893-35.2013Q60.0662-35.2013 61.1328-36.1496Q62.1994-37.0979 62.1994-38.6795Q62.1994-40.2618 61.1328-41.206Q60.0662-42.1501 58.2893-42.1501L49.1035-42.1501L42.0746-49.6956L41.391-40.2985L44.8357-36.924Q45.826-35.9688 46.8895-35.585Q47.953-35.2013 49.6056-35.2013ZM35.6522-61.0626Q39.18-61.0626 41.6828-63.5899Q44.1856-66.1171 44.1856-69.5335Q44.1856-73.0606 41.6828-75.5878Q39.18-78.1151 35.6522-78.1151Q32.1388-78.1151 29.6604-75.5878Q27.182-73.0606 27.182-69.5335Q27.182-66.1171 29.6604-63.5899Q32.1388-61.0626 35.6522-61.0626Z"/>
  </g>
  <g id="Ultralight-S" transform="matrix(1 0 0 1 524.129 696)">
   <path d="M47.6974 7.09Q49.0295 7.09 50.1125 6.05927Q51.1955 5.02853 51.1955 3.20816Q51.1955 2.02332 50.4143 0.363159L42.8185-15.0658Q42.3264-16.0004 41.7404-16.9769Q41.1545-17.9535 40.6593-18.6928L35.8543-25.5524L36.1504-26.487Q37.0888-29.57 37.5771-31.802Q38.0653-34.034 38.3057-37.0262L39.0907-48.2521Q39.3837-52.2736 37.2684-55.1403Q35.1532-58.007 31.2096-58.007Q28.0739-58.007 25.6729-56.3869Q23.2719-54.7668 20.475-51.9768L14.5432-46.1426Q13.0257-44.6259 12.4363-43.2533Q11.8469-41.8808 11.7004-40.0154L10.968-30.6229Q10.8215-28.8971 11.6848-27.837Q12.5481-26.7769 14.0335-26.7242Q15.5083-26.5816 16.5405-27.4445Q17.5728-28.3073 17.7223-30.1346L18.5562-40.7303L22.3969-44.0857Q22.8851-44.5251 23.4467-44.3298Q24.0082-44.1345 23.9594-43.399L23.2758-33.7936Q23.0766-30.5534 24.2046-28.1036Q25.3326-25.6538 26.9508-23.642L34.6443-13.9847Q35.1883-13.2942 35.4065-12.8811Q35.6247-12.468 35.8688-11.9759L44.0994 4.67682Q44.7411 6.00891 45.6787 6.54945Q46.6164 7.09 47.6974 7.09ZM13.2179 7.09Q15.0833 7.09 16.259 5.67017L27.7321-8.00705Q28.7018-9.12704 28.9268-9.62029Q29.1519-10.1135 29.4518-11.1427Q29.8355-12.2871 30.1445-13.4037Q30.4535-14.5203 30.7396-15.5708L24.5422-23.201L22.4464-13.0051L11.5303 0.0106812Q10.791 0.893402 10.2783 1.72501Q9.76562 2.55661 9.76562 3.68347Q9.76562 5.16815 10.7525 6.12907Q11.7393 7.09 13.2179 7.09ZM48.9494-35.3142L57.6019-35.3142Q59.3285-35.3142 60.3638-36.2469Q61.3991-37.1796 61.3991-38.7108Q61.3991-40.2412 60.3638-41.1549Q59.3285-42.0685 57.6019-42.0685L48.4573-42.0685L41.2437-49.7772L40.5602-40.6166L44.2413-37.0262Q45.2209-36.0916 46.2742-35.7029Q47.3274-35.3142 48.9494-35.3142ZM35.1707-60.7857Q38.6154-60.7857 41.0725-63.2668Q43.5295-65.7478 43.5295-69.0926Q43.5295-72.538 41.0725-75.0191Q38.6154-77.5002 35.1707-77.5002Q31.7284-77.5002 29.2961-75.0191Q26.8639-72.538 26.8639-69.0926Q26.8639-65.7478 29.2961-63.2668Q31.7284-60.7857 35.1707-60.7857Z"/>
  </g>
 </g>
</svg>
